{"glyphs":{"0":{"ha":749,"x_min":58,"x_max":692,"o":"m 692 490 q 670 274 692 368 q 606 115 648 180 q 504 17 564 50 q 366 -17 443 -17 q 235 15 292 -17 q 138 109 178 47 q 79 261 99 171 q 58 467 58 351 q 80 692 58 594 q 142 856 101 789 q 245 955 184 922 q 386 989 307 989 q 692 490 692 989 m 578 479 q 380 895 578 895 q 172 472 172 895 q 376 78 172 78 q 578 479 578 78 z "},"1":{"ha":749,"x_min":155,"x_max":491,"o":"m 491 0 l 380 0 l 380 840 q 342 811 367 827 q 287 778 317 794 q 221 747 256 762 q 155 725 187 733 l 155 838 q 232 865 191 848 q 313 904 273 882 q 388 948 353 925 q 449 994 423 972 l 491 994 l 491 0 z "},"2":{"ha":749,"x_min":74,"x_max":674,"o":"m 524 718 q 510 795 524 762 q 472 851 496 829 q 415 884 448 873 q 345 895 382 895 q 281 886 312 895 q 220 861 250 877 q 163 824 191 846 q 112 776 136 802 l 112 895 q 217 965 159 941 q 358 989 275 989 q 469 971 418 989 q 557 921 519 954 q 615 839 594 888 q 637 727 637 790 q 624 623 637 669 q 584 534 610 576 q 516 455 557 493 q 420 378 475 417 q 308 294 352 329 q 237 230 263 260 q 200 169 211 199 q 190 100 190 139 l 674 100 l 674 0 l 74 0 l 74 48 q 87 158 74 111 q 132 248 101 205 q 214 334 163 291 q 338 430 264 376 q 426 503 391 468 q 484 572 462 537 q 514 642 505 606 q 524 718 524 677 z "},"3":{"ha":749,"x_min":83,"x_max":646,"o":"m 646 275 q 622 156 646 210 q 552 63 597 102 q 444 4 507 25 q 304 -17 380 -17 q 83 36 165 -17 l 83 155 q 309 78 182 78 q 400 91 359 78 q 471 128 441 104 q 516 187 500 153 q 532 265 532 222 q 261 456 532 456 l 180 456 l 180 550 l 257 550 q 497 729 497 550 q 314 895 497 895 q 121 825 211 895 l 121 933 q 342 989 214 989 q 452 972 403 989 q 537 924 502 955 q 592 851 572 894 q 611 757 611 808 q 417 510 611 565 l 417 507 q 509 483 467 502 q 581 435 551 465 q 629 365 612 405 q 646 275 646 324 z "},"4":{"ha":749,"x_min":9,"x_max":701,"o":"m 576 972 l 576 330 l 701 330 l 701 229 l 576 229 l 576 0 l 467 0 l 467 229 l 9 229 l 9 325 q 138 478 73 397 q 263 644 203 560 q 373 812 322 728 q 458 972 423 896 l 576 972 m 135 330 l 467 330 l 467 806 q 370 648 416 718 q 284 521 325 578 q 205 418 243 464 q 135 330 168 372 z "},"5":{"ha":749,"x_min":111,"x_max":657,"o":"m 657 297 q 633 168 657 226 q 563 69 608 111 q 454 5 518 28 q 313 -17 391 -17 q 111 24 177 -17 l 111 142 q 314 78 210 78 q 409 94 367 78 q 481 137 452 109 q 527 204 511 165 q 543 290 543 243 q 479 439 543 385 q 294 493 416 493 q 253 492 275 493 q 210 491 231 492 q 167 488 188 490 q 130 485 146 487 l 163 972 l 612 972 l 612 872 l 259 872 l 239 587 q 286 589 261 588 q 329 590 310 590 q 467 570 406 590 q 571 512 528 549 q 635 419 613 474 q 657 297 657 365 z "},"6":{"ha":749,"x_min":75,"x_max":693,"o":"m 693 309 q 670 178 693 237 q 606 75 647 118 q 509 7 566 31 q 387 -17 453 -17 q 256 14 314 -17 q 158 101 198 44 q 96 241 117 159 q 75 428 75 324 q 103 658 75 555 q 183 835 132 762 q 309 949 235 909 q 472 989 382 989 q 633 961 572 989 l 633 856 q 475 895 558 895 q 357 865 410 895 q 268 783 305 836 q 211 654 231 730 q 191 487 191 579 l 193 487 q 415 608 260 608 q 530 587 479 608 q 617 525 581 565 q 673 431 654 486 q 693 309 693 376 m 579 294 q 566 386 579 345 q 529 455 553 427 q 470 499 505 484 q 390 514 435 514 q 313 498 349 514 q 252 456 278 483 q 212 394 227 429 q 197 318 197 358 q 212 224 197 268 q 252 148 226 180 q 313 97 277 115 q 392 78 349 78 q 469 94 434 78 q 528 138 503 110 q 566 207 552 167 q 579 294 579 246 z "},"7":{"ha":749,"x_min":66,"x_max":685,"o":"m 685 908 q 631 812 663 869 q 564 682 600 754 q 492 528 529 610 q 424 357 456 445 q 368 178 392 269 q 333 0 344 87 l 214 0 q 251 177 226 87 q 309 355 277 268 q 377 523 341 442 q 447 671 413 604 q 509 791 481 739 q 554 872 537 843 l 66 872 l 66 972 l 685 972 l 685 908 z "},"8":{"ha":749,"x_min":61,"x_max":692,"o":"m 61 271 q 73 349 61 310 q 108 422 85 388 q 164 484 131 456 q 241 528 198 511 q 140 618 178 563 q 103 741 103 673 q 124 840 103 794 q 181 918 144 885 q 268 970 218 951 q 376 989 318 989 q 486 970 435 989 q 572 918 536 951 q 629 839 609 884 q 650 741 650 793 q 612 618 650 673 q 513 528 575 563 q 589 484 555 511 q 645 422 622 456 q 680 349 667 388 q 692 271 692 310 q 669 155 692 208 q 604 64 646 102 q 504 5 562 26 q 376 -16 446 -16 q 250 5 307 -16 q 150 64 192 26 q 84 155 108 102 q 61 271 61 208 m 182 281 q 196 199 182 235 q 235 136 210 162 q 297 97 260 111 q 377 83 333 83 q 456 97 420 83 q 518 137 492 111 q 558 199 544 163 q 573 281 573 236 q 559 357 573 321 q 519 420 545 393 q 458 463 494 447 q 377 478 422 478 q 299 464 335 478 q 238 423 264 449 q 197 360 212 397 q 182 281 182 324 m 216 732 q 229 668 216 697 q 263 616 241 638 q 315 582 286 594 q 377 569 344 569 q 440 582 410 569 q 491 617 469 595 q 526 668 513 639 q 538 732 538 698 q 526 797 538 767 q 492 848 513 827 q 440 883 470 870 q 377 895 411 895 q 312 882 341 895 q 261 847 282 869 q 228 795 239 825 q 216 732 216 766 z "},"9":{"ha":749,"x_min":64,"x_max":681,"o":"m 681 545 q 654 307 681 411 q 577 131 628 203 q 453 21 526 58 q 286 -17 380 -17 q 117 17 190 -17 l 117 123 q 289 78 197 78 q 407 105 355 78 q 494 184 458 132 q 549 312 530 236 q 568 486 568 388 l 566 486 q 349 361 503 361 q 234 383 286 361 q 144 445 182 405 q 85 541 106 486 q 64 664 64 597 q 87 795 64 736 q 152 898 111 855 q 251 965 194 941 q 376 989 309 989 q 506 959 450 989 q 602 873 563 930 q 661 734 640 817 q 681 545 681 651 m 561 644 q 546 747 561 701 q 506 826 532 793 q 445 877 480 859 q 367 895 409 895 q 292 879 327 895 q 232 834 258 863 q 192 765 207 805 q 178 679 178 726 q 192 587 178 627 q 231 518 205 546 q 293 475 257 490 q 374 460 330 460 q 447 474 412 460 q 506 514 481 489 q 546 572 532 538 q 561 644 561 606 z "},"\r":{"ha":0,"x_min":0,"x_max":0,"o":""}," ":{"ha":380,"x_min":0,"x_max":0,"o":""},"!":{"ha":395,"x_min":122,"x_max":273,"o":"m 254 972 l 241 274 l 150 274 l 138 972 l 254 972 m 197 -12 q 144 9 166 -12 q 122 62 122 31 q 144 116 122 94 q 197 138 166 138 q 250 116 228 138 q 273 62 273 94 q 250 9 273 31 q 197 -12 228 -12 z "},"\"":{"ha":545,"x_min":100,"x_max":444,"o":"m 219 972 l 199 669 l 121 669 l 100 972 l 219 972 m 444 972 l 424 669 l 346 669 l 326 972 l 444 972 z "},"#":{"ha":821,"x_min":22,"x_max":791,"o":"m 791 700 l 775 628 l 598 628 l 555 425 l 746 425 l 728 353 l 541 353 l 481 83 l 396 83 l 454 353 l 285 353 l 228 83 l 143 83 l 200 353 l 22 353 l 36 425 l 216 425 l 257 628 l 69 628 l 83 700 l 271 700 l 328 972 l 414 972 l 357 700 l 528 700 l 586 972 l 669 972 l 612 700 l 791 700 m 514 628 l 343 628 l 298 425 l 471 425 l 514 628 z "},"$":{"ha":749,"x_min":110,"x_max":663,"o":"m 418 5 l 418 -142 l 347 -142 l 347 0 q 113 58 203 0 l 113 176 q 220 118 152 142 q 347 95 288 95 l 347 442 q 154 575 198 514 q 110 718 110 635 q 177 888 110 817 q 347 974 244 960 l 347 1096 l 418 1096 l 418 977 q 602 939 551 972 l 602 823 q 418 882 532 878 l 418 524 q 611 394 559 456 q 663 251 663 331 q 598 89 663 155 q 418 5 533 24 m 347 562 l 347 878 q 257 827 290 866 q 224 732 224 788 q 251 637 224 674 q 347 562 278 600 m 418 407 l 418 100 q 549 241 549 129 q 418 407 549 335 z "},"%":{"ha":1137,"x_min":54,"x_max":1085,"o":"m 274 485 q 114 551 174 485 q 54 728 54 617 q 117 918 54 848 q 288 987 180 987 q 449 923 391 987 q 506 742 506 859 q 442 555 506 625 q 274 485 378 485 m 283 913 q 182 865 219 913 q 144 734 144 817 q 181 606 144 652 q 281 560 218 560 q 380 608 345 560 q 416 739 416 655 q 381 867 416 821 q 283 913 345 913 m 925 972 l 301 -7 l 204 -7 l 827 972 l 925 972 m 853 -15 q 693 52 753 -15 q 633 228 633 118 q 697 419 633 349 q 867 489 761 489 q 1027 424 970 489 q 1085 241 1085 359 q 1021 55 1085 125 q 853 -15 957 -15 m 863 412 q 761 365 798 412 q 724 233 724 317 q 760 107 724 153 q 860 61 797 61 q 960 109 924 61 q 996 240 996 157 q 960 368 996 323 q 863 412 924 412 z "},"&":{"ha":1112,"x_min":81,"x_max":1084,"o":"m 980 -16 q 912 -5 941 -16 q 857 25 882 5 q 809 72 832 44 q 760 135 785 100 q 697 79 732 106 q 618 31 661 52 q 523 -3 574 9 q 411 -16 471 -16 q 277 3 338 -16 q 172 57 216 21 q 105 144 129 92 q 81 264 81 197 q 140 442 81 368 q 307 562 199 515 q 266 597 286 577 q 230 643 245 617 q 204 699 214 668 q 194 766 194 730 q 213 861 194 820 q 267 931 233 903 q 347 974 300 960 q 446 989 393 989 q 543 974 499 989 q 618 932 587 960 q 667 867 650 905 q 685 783 685 829 q 638 647 685 701 q 499 555 592 593 q 584 511 546 537 q 654 452 622 484 q 714 382 686 419 q 769 304 742 345 q 852 473 824 381 q 880 667 880 566 q 877 715 880 692 q 868 760 873 738 l 976 760 q 982 718 981 738 q 985 670 983 698 q 972 546 985 608 q 937 425 959 484 q 887 313 916 366 q 826 216 858 260 q 869 160 850 184 q 909 119 889 136 q 950 95 929 103 q 999 87 972 87 q 1040 93 1019 87 q 1084 106 1061 98 l 1084 3 q 1033 -11 1059 -6 q 980 -16 1006 -16 m 411 81 q 506 92 463 81 q 586 122 549 103 q 652 165 623 140 q 707 217 682 190 q 630 327 665 281 q 560 406 595 373 q 484 463 524 439 q 391 507 444 487 q 312 470 348 490 q 250 421 276 449 q 209 355 224 393 q 194 268 194 318 q 211 186 194 222 q 257 128 228 151 q 326 93 287 104 q 411 81 366 81 m 581 773 q 568 831 581 807 q 536 870 555 854 q 493 893 517 886 q 446 900 469 900 q 340 864 380 900 q 300 766 300 828 q 308 714 300 739 q 332 669 317 690 q 368 631 347 648 q 411 604 388 615 q 538 673 496 633 q 581 773 581 713 z "},"'":{"ha":319,"x_min":100,"x_max":219,"o":"m 219 972 l 199 669 l 121 669 l 100 972 l 219 972 z "},"(":{"ha":419,"x_min":95,"x_max":406,"o":"m 404 -221 l 305 -221 q 95 371 95 19 q 305 972 95 724 l 406 972 q 193 372 193 715 q 404 -221 193 33 z "},")":{"ha":419,"x_min":15,"x_max":327,"o":"m 115 -221 l 16 -221 q 228 372 228 33 q 15 972 228 715 l 115 972 q 327 371 327 724 q 115 -221 327 19 z "},"*":{"ha":579,"x_min":52,"x_max":529,"o":"m 529 749 l 343 711 l 472 546 l 397 494 l 292 674 l 184 494 l 110 546 l 239 711 l 52 749 l 82 833 l 260 766 l 244 972 l 338 972 l 322 766 l 500 833 l 529 749 z "},"+":{"ha":950,"x_min":157,"x_max":795,"o":"m 795 359 l 521 359 l 521 86 l 431 86 l 431 359 l 157 359 l 157 450 l 431 450 l 431 724 l 521 724 l 521 450 l 795 450 l 795 359 z "},",":{"ha":301,"x_min":26,"x_max":214,"o":"m 214 155 l 106 -179 l 26 -179 l 106 155 l 214 155 z "},"-":{"ha":555,"x_min":98,"x_max":468,"o":"m 468 343 l 98 343 l 98 431 l 468 431 l 468 343 z "},".":{"ha":301,"x_min":76,"x_max":228,"o":"m 151 -15 q 98 7 120 -15 q 76 61 76 30 q 98 115 76 92 q 151 138 120 138 q 205 115 183 138 q 228 61 228 92 q 205 7 228 30 q 151 -15 183 -15 z "},"/":{"ha":541,"x_min":-19,"x_max":551,"o":"m 551 972 l 85 -161 l -19 -161 l 446 972 l 551 972 z "},":":{"ha":301,"x_min":76,"x_max":228,"o":"m 151 559 q 98 581 120 559 q 76 635 76 604 q 98 688 76 666 q 151 709 120 709 q 205 688 183 709 q 228 635 228 666 q 205 581 228 604 q 151 559 183 559 m 151 -15 q 98 7 120 -15 q 76 61 76 30 q 98 115 76 92 q 151 138 120 138 q 205 115 183 138 q 228 61 228 92 q 205 7 228 30 q 151 -15 183 -15 z "},";":{"ha":301,"x_min":26,"x_max":229,"o":"m 153 559 q 99 581 121 559 q 77 635 77 604 q 99 688 77 666 q 153 709 121 709 q 207 688 184 709 q 229 635 229 666 q 207 581 229 604 q 153 559 184 559 m 214 155 l 106 -179 l 26 -179 l 106 155 l 214 155 z "},"<":{"ha":950,"x_min":184,"x_max":768,"o":"m 768 86 l 184 379 l 184 419 l 768 746 l 768 644 l 332 403 l 332 400 l 768 187 l 768 86 z "},"=":{"ha":950,"x_min":157,"x_max":795,"o":"m 795 505 l 157 505 l 157 594 l 795 594 l 795 505 m 795 216 l 157 216 l 157 305 l 795 305 l 795 216 z "},">":{"ha":950,"x_min":184,"x_max":768,"o":"m 768 379 l 184 86 l 184 187 l 621 399 l 621 403 l 184 644 l 184 746 l 768 419 l 768 379 z "},"?":{"ha":623,"x_min":89,"x_max":554,"o":"m 227 270 q 216 316 221 288 q 212 372 212 344 q 229 450 212 415 q 272 515 246 485 q 328 574 298 546 q 385 631 359 602 q 428 691 410 660 q 445 761 445 723 q 432 819 445 793 q 398 861 420 844 q 348 886 376 878 q 288 895 319 895 q 89 804 173 895 l 89 924 q 304 989 193 989 q 401 975 355 989 q 480 935 446 962 q 534 868 515 908 q 554 775 554 828 q 536 686 554 725 q 492 613 519 646 q 434 552 465 581 q 376 495 403 524 q 332 437 349 467 q 314 370 314 406 q 321 313 314 338 q 336 270 329 288 l 227 270 m 288 -12 q 235 9 258 -12 q 213 62 213 31 q 235 115 213 94 q 288 138 258 138 q 341 115 319 138 q 363 62 363 94 q 341 9 363 31 q 288 -12 318 -12 z "},"@":{"ha":1326,"x_min":117,"x_max":1213,"o":"m 789 285 l 786 285 q 591 123 736 123 q 442 192 498 123 q 385 376 385 260 q 464 631 385 530 q 669 732 542 732 q 756 707 718 732 q 806 644 795 682 l 808 644 q 815 722 810 663 l 900 722 q 868 342 868 349 q 949 201 868 201 q 1070 281 1022 201 q 1119 486 1119 360 q 1001 791 1119 673 q 674 909 883 909 q 341 768 473 909 q 210 415 210 627 q 335 79 210 207 q 672 -49 460 -49 q 958 7 840 -49 l 958 -77 q 665 -127 841 -127 q 268 21 418 -127 q 117 411 117 170 q 275 823 117 659 q 680 986 433 986 q 1061 849 910 986 q 1213 492 1213 712 q 1133 227 1213 330 q 939 123 1053 123 q 789 285 790 123 m 668 654 q 532 574 584 654 q 480 375 480 494 q 515 249 480 295 q 608 203 550 203 q 742 287 692 203 q 791 509 791 370 q 668 654 791 654 z "},"A":{"ha":896,"x_min":15,"x_max":880,"o":"m 880 0 l 754 0 l 651 273 l 239 273 l 142 0 l 15 0 l 388 972 l 506 972 l 880 0 m 614 375 l 461 789 q 446 854 454 810 l 444 854 q 428 789 437 813 l 277 375 l 614 375 z "},"B":{"ha":796,"x_min":127,"x_max":726,"o":"m 127 0 l 127 972 l 404 972 q 604 911 530 972 q 678 750 678 849 q 633 606 678 667 q 510 519 589 545 l 510 517 q 667 443 608 505 q 726 279 726 380 q 637 77 726 155 q 411 0 547 0 l 127 0 m 241 869 l 241 555 l 358 555 q 505 601 452 555 q 559 728 559 646 q 372 869 559 869 l 241 869 m 241 453 l 241 103 l 396 103 q 552 151 496 103 q 607 281 607 198 q 372 453 607 453 l 241 453 z "},"C":{"ha":860,"x_min":64,"x_max":789,"o":"m 789 41 q 521 -16 682 -16 q 189 117 313 -16 q 64 468 64 251 q 204 845 64 701 q 560 989 345 989 q 789 949 699 989 l 789 827 q 559 886 685 886 q 287 774 391 886 q 183 475 183 662 q 280 192 183 297 q 536 86 378 86 q 789 151 682 86 l 789 41 z "},"D":{"ha":974,"x_min":127,"x_max":910,"o":"m 127 0 l 127 972 l 396 972 q 910 498 910 972 q 767 137 910 273 q 385 0 625 0 l 127 0 m 241 869 l 241 103 l 387 103 q 684 205 578 103 q 791 496 791 308 q 393 869 791 869 l 241 869 z "},"E":{"ha":703,"x_min":127,"x_max":643,"o":"m 643 0 l 127 0 l 127 972 l 621 972 l 621 869 l 241 869 l 241 546 l 593 546 l 593 444 l 241 444 l 241 103 l 643 103 l 643 0 z "},"F":{"ha":678,"x_min":127,"x_max":621,"o":"m 621 869 l 241 869 l 241 533 l 593 533 l 593 431 l 241 431 l 241 0 l 127 0 l 127 972 l 621 972 l 621 869 z "},"G":{"ha":953,"x_min":64,"x_max":854,"o":"m 854 66 q 529 -16 708 -16 q 192 118 321 -16 q 64 473 64 252 q 207 844 64 699 q 568 989 349 989 q 835 937 727 989 l 835 811 q 555 886 717 886 q 288 773 392 886 q 183 481 183 661 q 280 192 183 297 q 543 86 377 86 q 741 132 657 86 l 741 404 l 528 404 l 528 507 l 854 507 l 854 66 z "},"H":{"ha":986,"x_min":127,"x_max":859,"o":"m 859 0 l 745 0 l 745 444 l 241 444 l 241 0 l 127 0 l 127 972 l 241 972 l 241 546 l 745 546 l 745 972 l 859 972 l 859 0 z "},"I":{"ha":370,"x_min":127,"x_max":241,"o":"m 241 0 l 127 0 l 127 972 l 241 972 l 241 0 z "},"J":{"ha":496,"x_min":14,"x_max":376,"o":"m 376 349 q 303 80 376 176 q 107 -16 230 -16 q 14 0 50 -16 l 14 113 q 109 86 50 86 q 262 347 262 86 l 262 972 l 376 972 l 376 349 z "},"K":{"ha":806,"x_min":127,"x_max":804,"o":"m 804 0 l 646 0 l 270 445 q 244 479 249 470 l 241 479 l 241 0 l 127 0 l 127 972 l 241 972 l 241 515 l 244 515 q 270 549 254 530 l 633 972 l 775 972 l 358 506 l 804 0 z "},"L":{"ha":654,"x_min":127,"x_max":632,"o":"m 632 0 l 127 0 l 127 972 l 241 972 l 241 103 l 632 103 l 632 0 z "},"M":{"ha":1247,"x_min":127,"x_max":1119,"o":"m 1119 0 l 1006 0 l 1006 652 q 1015 842 1006 730 l 1013 842 q 983 747 996 776 l 651 0 l 595 0 l 264 742 q 235 842 250 774 l 232 842 q 237 651 237 783 l 237 0 l 127 0 l 127 972 l 278 972 l 576 294 q 621 178 611 216 l 625 178 q 672 297 654 258 l 977 972 l 1119 972 l 1119 0 z "},"N":{"ha":1039,"x_min":127,"x_max":911,"o":"m 911 0 l 772 0 l 271 775 q 240 836 252 804 l 236 836 q 241 703 241 805 l 241 0 l 127 0 l 127 972 l 275 972 l 762 210 q 802 144 793 162 l 804 144 q 798 288 798 186 l 798 972 l 911 972 l 911 0 z "},"O":{"ha":1047,"x_min":64,"x_max":983,"o":"m 519 -16 q 188 120 313 -16 q 64 475 64 256 q 191 849 64 709 q 536 989 317 989 q 860 853 737 989 q 983 498 983 718 q 857 122 983 260 q 519 -16 731 -16 m 528 886 q 279 775 374 886 q 183 485 183 665 q 276 196 183 305 q 519 86 370 86 q 772 191 680 86 q 864 483 864 295 q 774 781 864 675 q 528 886 685 886 z "},"P":{"ha":778,"x_min":127,"x_max":722,"o":"m 241 368 l 241 0 l 127 0 l 127 972 l 395 972 q 636 897 551 972 q 722 682 722 821 q 627 456 722 544 q 370 368 532 368 l 241 368 m 241 869 l 241 471 l 361 471 q 541 525 479 471 q 603 677 603 578 q 375 869 603 869 l 241 869 z "},"Q":{"ha":1047,"x_min":64,"x_max":1067,"o":"m 519 -16 q 188 120 313 -16 q 64 475 64 256 q 191 849 64 710 q 536 989 318 989 q 860 853 736 989 q 983 498 983 718 q 857 122 983 260 q 793 65 827 89 l 1067 -131 l 860 -131 l 677 6 q 519 -16 605 -16 m 528 886 q 279 775 374 886 q 183 485 183 665 q 276 195 183 306 q 519 86 370 86 q 772 191 680 86 q 864 483 864 295 q 774 781 864 676 q 528 886 685 886 z "},"R":{"ha":831,"x_min":127,"x_max":825,"o":"m 825 0 l 689 0 l 526 273 q 483 337 504 311 q 440 381 462 364 q 392 406 418 398 q 335 414 367 414 l 241 414 l 241 0 l 127 0 l 127 972 l 418 972 q 535 957 481 972 q 629 908 589 941 q 691 827 669 876 q 713 713 713 779 q 698 620 713 663 q 655 545 683 578 q 587 488 627 511 q 498 452 547 465 l 498 449 q 540 424 522 438 q 574 391 558 410 q 607 348 591 372 q 642 292 623 324 l 825 0 m 241 869 l 241 517 l 396 517 q 475 530 439 517 q 538 567 511 543 q 579 626 564 591 q 594 704 594 661 q 544 826 594 782 q 397 869 493 869 l 241 869 z "},"S":{"ha":738,"x_min":82,"x_max":671,"o":"m 82 39 l 82 174 q 137 137 105 153 q 205 110 170 121 q 277 92 241 98 q 343 86 313 86 q 500 125 448 86 q 552 237 552 164 q 535 306 552 277 q 487 359 517 335 q 415 405 456 383 q 325 452 373 427 q 230 504 274 477 q 153 562 186 530 q 102 634 121 594 q 83 729 83 675 q 113 845 83 795 q 189 926 142 894 q 297 973 237 958 q 421 989 358 989 q 631 954 565 989 l 631 826 q 410 886 545 886 q 335 878 372 886 q 269 852 298 870 q 221 807 239 835 q 203 739 203 779 q 217 675 203 702 q 258 625 231 648 q 324 582 285 603 q 414 536 363 561 q 513 481 466 510 q 595 418 559 453 q 651 342 630 384 q 671 245 671 300 q 643 124 671 174 q 567 43 615 74 q 457 -2 519 12 q 326 -16 395 -16 q 269 -13 302 -16 q 199 -2 235 -9 q 133 16 164 5 q 82 39 101 26 z "},"T":{"ha":728,"x_min":28,"x_max":703,"o":"m 703 869 l 422 869 l 422 0 l 308 0 l 308 869 l 28 869 l 28 972 l 703 972 l 703 869 z "},"U":{"ha":954,"x_min":115,"x_max":839,"o":"m 839 393 q 469 -16 839 -16 q 115 378 115 -16 l 115 972 l 229 972 l 229 385 q 481 86 229 86 q 725 375 725 86 l 725 972 l 839 972 l 839 393 z "},"V":{"ha":863,"x_min":12,"x_max":850,"o":"m 850 972 l 490 0 l 365 0 l 12 972 l 139 972 l 408 201 q 428 115 421 164 l 431 115 q 453 203 436 156 l 728 972 l 850 972 z "},"W":{"ha":1297,"x_min":18,"x_max":1280,"o":"m 1280 972 l 1006 0 l 872 0 l 672 711 q 656 810 659 756 l 654 810 q 636 712 650 760 l 435 0 l 302 0 l 18 972 l 143 972 l 350 227 q 366 129 363 180 l 370 129 q 391 227 373 165 l 606 972 l 715 972 l 921 221 q 937 130 932 182 l 940 130 q 958 224 943 165 l 1157 972 l 1280 972 z "},"X":{"ha":819,"x_min":18,"x_max":799,"o":"m 799 0 l 660 0 l 436 372 q 414 420 426 389 l 411 420 q 388 372 404 405 l 157 0 l 18 0 l 343 489 l 43 972 l 183 972 l 382 631 q 416 563 401 597 l 419 563 q 457 633 441 608 l 664 972 l 795 972 l 489 490 l 799 0 z "},"Y":{"ha":768,"x_min":12,"x_max":760,"o":"m 760 972 l 439 359 l 439 0 l 325 0 l 325 357 l 12 972 l 142 972 l 359 533 q 383 473 363 525 l 385 473 q 411 533 392 496 l 639 972 l 760 972 z "},"Z":{"ha":792,"x_min":22,"x_max":762,"o":"m 762 945 l 193 103 l 749 103 l 749 0 l 22 0 l 22 32 l 587 869 l 68 869 l 68 972 l 762 972 l 762 945 z "},"[":{"ha":419,"x_min":136,"x_max":385,"o":"m 385 -221 l 136 -221 l 136 972 l 385 972 l 385 892 l 235 892 l 235 -140 l 385 -140 l 385 -221 z "},"\\":{"ha":526,"x_min":-18,"x_max":541,"o":"m 541 -163 l 439 -163 l -18 972 l 87 972 l 541 -163 z "},"]":{"ha":419,"x_min":36,"x_max":285,"o":"m 285 -221 l 36 -221 l 36 -140 l 186 -140 l 186 892 l 36 892 l 36 972 l 285 972 l 285 -221 z "},"^":{"ha":950,"x_min":156,"x_max":796,"o":"m 796 423 l 694 423 l 469 843 l 465 843 l 256 423 l 156 423 l 442 989 l 486 989 l 796 423 z "},"_":{"ha":576,"x_min":0,"x_max":576,"o":"m 576 -201 l 0 -201 l 0 -121 l 576 -121 l 576 -201 z "},"`":{"ha":372,"x_min":56,"x_max":319,"o":"m 319 826 l 233 826 l 56 1048 l 170 1048 l 319 826 z "},"a":{"ha":707,"x_min":61,"x_max":610,"o":"m 610 0 l 498 0 l 498 109 l 496 109 q 282 -16 423 -16 q 120 39 178 -16 q 61 184 61 94 q 290 411 61 379 l 498 440 q 355 617 498 617 q 129 532 230 617 l 129 646 q 365 711 231 711 q 610 452 610 711 l 610 0 m 498 351 l 331 328 q 214 290 254 317 q 175 193 175 262 q 211 110 175 142 q 308 77 248 77 q 445 135 391 77 q 498 282 498 193 l 498 351 z "},"b":{"ha":817,"x_min":113,"x_max":751,"o":"m 227 100 l 224 100 l 224 0 l 113 0 l 113 1028 l 224 1028 l 224 572 l 227 572 q 467 711 309 711 q 676 617 600 711 q 751 368 751 524 q 667 89 751 193 q 435 -16 582 -16 q 227 100 297 -16 m 224 380 l 224 283 q 280 137 224 197 q 422 77 336 77 q 580 155 523 77 q 637 370 637 232 q 584 551 637 486 q 439 617 530 617 q 283 550 342 617 q 224 380 224 482 z "},"c":{"ha":642,"x_min":65,"x_max":587,"o":"m 586 32 q 396 -16 506 -16 q 156 80 248 -16 q 65 331 65 177 q 163 607 65 503 q 426 711 262 711 q 587 677 517 711 l 587 563 q 422 617 510 617 q 247 541 315 617 q 179 340 179 465 q 243 148 179 218 q 415 77 307 77 q 586 138 506 77 l 586 32 z "},"d":{"ha":818,"x_min":65,"x_max":705,"o":"m 705 0 l 594 0 l 594 118 l 591 118 q 353 -16 514 -16 q 143 77 222 -16 q 65 331 65 170 q 152 607 65 503 q 383 711 239 711 q 591 598 526 711 l 594 598 l 594 1028 l 705 1028 l 705 0 m 594 314 l 594 416 q 538 559 594 500 q 397 617 483 617 q 237 543 296 617 q 179 336 179 468 q 235 147 179 216 q 385 77 291 77 q 536 144 478 77 q 594 314 594 212 z "},"e":{"ha":726,"x_min":65,"x_max":671,"o":"m 671 319 l 180 319 q 243 140 183 203 q 407 77 302 77 q 623 155 524 77 l 623 50 q 380 -16 531 -16 q 149 78 233 -16 q 65 345 65 173 q 157 609 65 507 q 385 711 249 711 q 596 623 522 711 q 671 378 671 534 l 671 319 m 557 414 q 510 564 556 510 q 383 617 465 617 q 250 561 304 617 q 182 414 195 505 l 557 414 z "},"f":{"ha":435,"x_min":36,"x_max":456,"o":"m 456 930 q 382 949 423 949 q 265 802 265 949 l 265 694 l 428 694 l 428 600 l 265 600 l 265 0 l 155 0 l 155 600 l 36 600 l 36 694 l 155 694 l 155 807 q 218 980 155 916 q 375 1043 281 1043 q 456 1031 426 1043 l 456 930 z "},"g":{"ha":818,"x_min":65,"x_max":705,"o":"m 705 56 q 339 -327 705 -327 q 114 -278 210 -327 l 114 -167 q 338 -232 231 -232 q 594 41 594 -232 l 594 117 l 591 117 q 353 -16 512 -16 q 144 76 223 -16 q 65 325 65 169 q 150 606 65 502 q 383 711 235 711 q 591 598 524 711 l 594 598 l 594 694 l 705 694 l 705 56 m 594 314 l 594 416 q 538 558 594 499 q 399 617 482 617 q 237 542 296 617 q 179 332 179 467 q 235 147 179 216 q 383 77 291 77 q 535 144 477 77 q 594 314 594 210 z "},"h":{"ha":786,"x_min":113,"x_max":689,"o":"m 689 0 l 578 0 l 578 400 q 416 617 578 617 q 279 554 335 617 q 224 393 224 492 l 224 0 l 113 0 l 113 1028 l 224 1028 l 224 579 l 227 579 q 454 711 307 711 q 689 428 689 711 l 689 0 z "},"i":{"ha":336,"x_min":98,"x_max":243,"o":"m 170 871 q 119 891 140 871 q 98 943 98 911 q 119 995 98 974 q 170 1015 140 1015 q 221 995 200 1015 q 243 943 243 974 q 221 892 243 913 q 170 871 200 871 m 224 0 l 113 0 l 113 694 l 224 694 l 224 0 z "},"j":{"ha":336,"x_min":-134,"x_max":243,"o":"m 224 29 q 155 -234 224 -142 q -42 -327 86 -327 q -134 -305 -90 -327 l -134 -201 q -39 -232 -84 -232 q 113 11 113 -232 l 113 694 l 224 694 l 224 29 m 170 871 q 119 891 140 871 q 98 943 98 911 q 119 995 98 974 q 170 1015 140 1015 q 221 995 200 1015 q 243 943 243 974 q 221 892 243 913 q 170 871 200 871 z "},"k":{"ha":690,"x_min":113,"x_max":689,"o":"m 689 0 l 533 0 l 227 334 l 224 334 l 224 0 l 113 0 l 113 1028 l 224 1028 l 224 376 l 227 376 l 518 694 l 664 694 l 342 359 l 689 0 z "},"l":{"ha":336,"x_min":113,"x_max":224,"o":"m 224 0 l 113 0 l 113 1028 l 224 1028 l 224 0 z "},"m":{"ha":1196,"x_min":113,"x_max":1099,"o":"m 1099 0 l 987 0 l 987 399 q 952 566 987 514 q 832 617 916 617 q 711 552 761 617 q 661 396 661 487 l 661 0 l 550 0 l 550 412 q 392 617 550 617 q 271 556 319 617 q 224 396 224 494 l 224 0 l 113 0 l 113 694 l 224 694 l 224 585 l 227 585 q 442 711 300 711 q 566 671 513 711 q 639 567 619 631 q 869 711 716 711 q 1099 428 1099 711 l 1099 0 z "},"n":{"ha":786,"x_min":113,"x_max":689,"o":"m 689 0 l 578 0 l 578 396 q 416 617 578 617 q 278 554 333 617 q 224 396 224 492 l 224 0 l 113 0 l 113 694 l 224 694 l 224 579 l 227 579 q 454 711 305 711 q 629 637 568 711 q 689 425 689 564 l 689 0 z "},"o":{"ha":814,"x_min":65,"x_max":749,"o":"m 403 -16 q 157 81 249 -16 q 65 339 65 178 q 161 612 65 514 q 419 711 256 711 q 662 615 574 711 q 749 350 749 519 q 655 84 749 184 q 403 -16 561 -16 m 411 617 q 241 544 304 617 q 179 343 179 471 q 242 149 179 220 q 411 77 305 77 q 577 147 519 77 q 635 346 635 217 q 577 547 635 476 q 411 617 519 617 z "},"p":{"ha":817,"x_min":113,"x_max":751,"o":"m 227 100 l 224 100 l 224 -319 l 113 -319 l 113 694 l 224 694 l 224 572 l 227 572 q 467 711 309 711 q 676 617 601 711 q 751 368 751 524 q 667 89 751 193 q 435 -16 582 -16 q 227 100 300 -16 m 224 380 l 224 283 q 280 137 224 197 q 422 77 336 77 q 580 155 523 77 q 637 370 637 232 q 584 551 637 486 q 439 617 530 617 q 283 550 342 617 q 224 380 224 482 z "},"q":{"ha":818,"x_min":65,"x_max":705,"o":"m 705 -319 l 594 -319 l 594 119 l 591 119 q 354 -16 519 -16 q 144 77 223 -16 q 65 331 65 170 q 152 607 65 504 q 385 711 239 711 q 591 598 528 711 l 594 598 l 594 694 l 705 694 l 705 -319 m 594 313 l 594 414 q 538 558 594 499 q 396 617 482 617 q 237 543 296 617 q 179 334 179 469 q 235 145 179 214 q 380 77 292 77 q 536 144 478 77 q 594 313 594 211 z "},"r":{"ha":483,"x_min":113,"x_max":475,"o":"m 475 582 q 391 604 446 604 q 272 537 319 604 q 224 354 224 470 l 224 0 l 113 0 l 113 694 l 224 694 l 224 551 l 227 551 q 299 666 250 625 q 408 707 348 707 q 475 697 452 707 l 475 582 z "},"s":{"ha":589,"x_min":71,"x_max":531,"o":"m 71 25 l 71 144 q 271 77 161 77 q 417 175 417 77 q 405 222 417 203 q 371 256 392 241 q 320 283 349 271 q 258 308 292 295 q 177 345 212 326 q 119 387 142 363 q 84 440 96 410 q 72 510 72 470 q 94 596 72 559 q 154 660 117 634 q 239 698 191 685 q 338 711 287 711 q 499 680 428 711 l 499 567 q 323 617 422 617 q 267 610 292 617 q 223 590 241 603 q 196 559 205 577 q 186 519 186 541 q 196 474 186 492 q 224 441 205 456 q 271 416 243 427 q 332 391 298 404 q 415 354 378 373 q 477 312 452 336 q 517 258 503 289 q 531 186 531 228 q 508 96 531 134 q 448 33 486 58 q 360 -4 410 8 q 256 -16 311 -16 q 71 25 149 -16 z "},"t":{"ha":471,"x_min":29,"x_max":435,"o":"m 435 7 q 331 -15 395 -15 q 149 189 149 -15 l 149 600 l 29 600 l 29 694 l 149 694 l 149 864 l 260 900 l 260 694 l 435 694 l 435 600 l 260 600 l 260 208 q 283 109 260 138 q 362 79 307 79 q 435 102 404 79 l 435 7 z "},"u":{"ha":786,"x_min":98,"x_max":674,"o":"m 674 0 l 563 0 l 563 110 l 560 110 q 346 -16 491 -16 q 98 279 98 -16 l 98 694 l 208 694 l 208 297 q 376 77 208 77 q 510 137 458 77 q 563 294 563 197 l 563 694 l 674 694 l 674 0 z "},"v":{"ha":665,"x_min":9,"x_max":659,"o":"m 659 694 l 382 0 l 273 0 l 9 694 l 132 694 l 308 190 q 332 93 328 134 l 335 93 q 357 187 342 145 l 541 694 l 659 694 z "},"w":{"ha":1004,"x_min":16,"x_max":987,"o":"m 987 694 l 779 0 l 664 0 l 521 497 q 510 562 513 526 l 507 562 q 493 498 505 537 l 338 0 l 227 0 l 16 694 l 133 694 l 277 172 q 286 110 283 149 l 292 110 q 304 174 294 140 l 464 694 l 566 694 l 709 171 q 720 109 716 146 l 725 109 q 736 171 726 135 l 878 694 l 987 694 z "},"x":{"ha":637,"x_min":18,"x_max":620,"o":"m 620 694 l 387 343 l 616 0 l 486 0 l 350 225 q 319 278 337 246 l 317 278 q 285 225 313 272 l 146 0 l 18 0 l 254 340 l 28 694 l 157 694 l 292 457 q 321 403 307 431 l 323 403 l 497 694 l 620 694 z "},"y":{"ha":672,"x_min":9,"x_max":665,"o":"m 665 694 l 346 -111 q 106 -327 260 -327 q 33 -318 62 -327 l 33 -218 q 99 -231 69 -231 q 225 -130 183 -231 l 281 1 l 9 694 l 133 694 l 321 160 q 335 107 324 150 l 339 107 q 353 159 342 123 l 550 694 l 665 694 z "},"z":{"ha":628,"x_min":22,"x_max":597,"o":"m 597 663 l 186 95 l 593 95 l 593 0 l 22 0 l 22 35 l 433 600 l 61 600 l 61 694 l 597 694 l 597 663 z "},"{":{"ha":419,"x_min":62,"x_max":376,"o":"m 376 -221 q 168 -11 168 -218 l 168 193 q 62 336 168 330 l 62 415 q 168 562 168 422 l 168 760 q 376 972 168 970 l 376 886 q 269 751 269 883 l 269 553 q 167 378 269 410 l 167 375 q 269 201 269 345 l 269 5 q 293 -102 269 -70 q 376 -136 317 -134 l 376 -221 z "},"|":{"ha":332,"x_min":117,"x_max":217,"o":"m 217 -327 l 117 -327 l 117 1062 l 217 1062 l 217 -327 z "},"}":{"ha":419,"x_min":45,"x_max":358,"o":"m 358 336 q 252 193 252 330 l 252 -11 q 45 -221 252 -218 l 45 -136 q 129 -102 104 -134 q 153 5 153 -69 l 153 201 q 254 375 153 345 l 254 378 q 153 553 153 410 l 153 751 q 45 886 153 883 l 45 972 q 252 760 252 970 l 252 562 q 358 415 252 422 l 358 336 z "},"~":{"ha":950,"x_min":142,"x_max":810,"o":"m 810 509 q 755 353 805 408 q 620 298 705 298 q 440 372 546 298 q 332 418 374 418 q 233 298 237 418 l 142 298 q 196 452 145 395 q 332 509 246 509 q 492 449 404 509 q 625 388 581 388 q 692 421 667 388 q 718 509 717 454 l 810 509 z "},"Ä":{"ha":896,"x_min":15,"x_max":880,"o":"m 880 0 l 754 0 l 651 273 l 239 273 l 142 0 l 15 0 l 388 972 l 506 972 l 880 0 m 614 375 l 461 789 q 446 854 454 810 l 444 854 q 428 789 437 813 l 277 375 l 614 375 m 570 1061 q 523 1080 543 1061 q 503 1128 503 1099 q 522 1176 503 1157 q 568 1195 541 1195 q 616 1176 597 1195 q 636 1128 636 1156 q 617 1081 636 1101 q 570 1061 598 1061 m 309 1061 q 261 1081 281 1061 q 241 1128 241 1101 q 260 1176 241 1157 q 307 1195 279 1195 q 355 1176 335 1195 q 376 1128 376 1156 q 356 1081 376 1101 q 309 1061 336 1061 z "},"Å":{"ha":896,"x_min":15,"x_max":880,"o":"m 880 0 l 754 0 l 651 273 l 239 273 l 142 0 l 15 0 l 374 935 q 305 1046 305 970 q 346 1143 305 1106 q 449 1181 387 1181 q 547 1144 509 1181 q 585 1050 585 1107 q 519 937 585 974 l 880 0 m 445 1125 q 389 1104 411 1125 q 368 1050 368 1082 q 445 972 368 972 q 500 995 477 972 q 522 1050 522 1017 q 500 1104 522 1083 q 445 1125 477 1125 m 614 375 l 461 789 q 446 854 454 810 l 444 854 q 428 789 437 813 l 277 375 l 614 375 z "},"Ç":{"ha":860,"x_min":64,"x_max":789,"o":"m 789 41 q 521 -16 682 -16 q 189 117 313 -16 q 64 468 64 251 q 204 845 64 701 q 560 989 345 989 q 789 949 699 989 l 789 827 q 559 886 685 886 q 287 774 391 886 q 183 475 183 662 q 280 192 183 297 q 536 86 378 86 q 789 151 682 86 l 789 41 m 651 -174 q 465 -293 651 -293 q 420 -292 439 -293 l 420 -231 q 468 -235 450 -235 q 564 -174 564 -235 q 476 -121 564 -121 q 448 -123 469 -121 l 448 0 l 522 0 l 522 -71 q 616 -98 581 -71 q 651 -174 651 -125 z "},"É":{"ha":703,"x_min":127,"x_max":643,"o":"m 643 0 l 127 0 l 127 972 l 621 972 l 621 869 l 241 869 l 241 546 l 593 546 l 593 444 l 241 444 l 241 103 l 643 103 l 643 0 m 545 1284 l 367 1061 l 281 1061 l 432 1284 l 545 1284 z "},"Ñ":{"ha":1039,"x_min":127,"x_max":911,"o":"m 911 0 l 772 0 l 271 775 q 240 836 252 804 l 236 836 q 241 703 241 805 l 241 0 l 127 0 l 127 972 l 275 972 l 762 210 q 802 144 793 162 l 804 144 q 798 288 798 186 l 798 972 l 911 972 l 911 0 m 755 1223 q 722 1106 755 1152 q 634 1061 690 1061 q 524 1097 586 1061 q 444 1126 472 1126 q 384 1049 384 1126 l 320 1049 q 353 1165 320 1122 q 444 1209 385 1209 q 545 1174 488 1209 q 631 1144 595 1144 q 688 1223 688 1144 l 755 1223 z "},"Ö":{"ha":1047,"x_min":64,"x_max":983,"o":"m 519 -16 q 188 120 313 -16 q 64 475 64 256 q 191 849 64 709 q 536 989 317 989 q 860 853 737 989 q 983 498 983 718 q 857 122 983 260 q 519 -16 731 -16 m 528 886 q 279 775 374 886 q 183 485 183 665 q 276 196 183 305 q 519 86 370 86 q 772 191 680 86 q 864 483 864 295 q 774 781 864 675 q 528 886 685 886 m 656 1060 q 610 1079 629 1060 q 590 1127 590 1098 q 609 1175 590 1156 q 655 1194 628 1194 q 703 1174 684 1194 q 723 1127 723 1155 q 704 1080 723 1099 q 656 1060 685 1060 m 396 1060 q 348 1080 368 1060 q 328 1127 328 1100 q 347 1175 328 1156 q 394 1194 366 1194 q 442 1174 422 1194 q 463 1127 463 1155 q 443 1080 463 1099 q 396 1060 423 1060 z "},"Ü":{"ha":954,"x_min":115,"x_max":839,"o":"m 839 393 q 469 -16 839 -16 q 115 378 115 -16 l 115 972 l 229 972 l 229 385 q 481 86 229 86 q 725 375 725 86 l 725 972 l 839 972 l 839 393 m 607 1063 q 560 1082 580 1063 q 541 1130 541 1101 q 559 1177 541 1158 q 606 1196 578 1196 q 654 1177 634 1196 q 673 1130 673 1158 q 654 1082 673 1102 q 607 1063 635 1063 m 347 1063 q 298 1083 318 1063 q 278 1130 278 1103 q 297 1177 278 1158 q 345 1196 317 1196 q 393 1177 372 1196 q 413 1130 413 1158 q 393 1082 413 1102 q 347 1063 374 1063 z "},"á":{"ha":707,"x_min":61,"x_max":610,"o":"m 610 0 l 498 0 l 498 109 l 496 109 q 282 -16 423 -16 q 120 39 178 -16 q 61 184 61 94 q 290 411 61 379 l 498 440 q 355 617 498 617 q 129 532 230 617 l 129 646 q 365 711 231 711 q 610 452 610 711 l 610 0 m 498 351 l 331 328 q 214 290 254 317 q 175 193 175 262 q 211 110 175 142 q 308 77 248 77 q 445 135 391 77 q 498 282 498 193 l 498 351 m 513 1048 l 336 826 l 250 826 l 401 1048 l 513 1048 z "},"à":{"ha":707,"x_min":61,"x_max":610,"o":"m 610 0 l 498 0 l 498 109 l 496 109 q 282 -16 423 -16 q 120 39 178 -16 q 61 184 61 94 q 290 411 61 379 l 498 440 q 355 617 498 617 q 129 532 230 617 l 129 646 q 365 711 231 711 q 610 452 610 711 l 610 0 m 498 351 l 331 328 q 214 290 254 317 q 175 193 175 262 q 211 110 175 142 q 308 77 248 77 q 445 135 391 77 q 498 282 498 193 l 498 351 m 457 826 l 371 826 l 193 1048 l 307 1048 l 457 826 z "},"â":{"ha":707,"x_min":61,"x_max":610,"o":"m 610 0 l 498 0 l 498 109 l 496 109 q 282 -16 423 -16 q 120 39 178 -16 q 61 184 61 94 q 290 411 61 379 l 498 440 q 355 617 498 617 q 129 532 230 617 l 129 646 q 365 711 231 711 q 610 452 610 711 l 610 0 m 498 351 l 331 328 q 214 290 254 317 q 175 193 175 262 q 211 110 175 142 q 308 77 248 77 q 445 135 391 77 q 498 282 498 193 l 498 351 m 547 826 l 464 826 l 353 982 l 241 826 l 164 826 l 310 1051 l 400 1051 l 547 826 z "},"ä":{"ha":707,"x_min":61,"x_max":610,"o":"m 610 0 l 498 0 l 498 109 l 496 109 q 282 -16 423 -16 q 120 39 178 -16 q 61 184 61 94 q 290 411 61 379 l 498 440 q 355 617 498 617 q 129 532 230 617 l 129 646 q 365 711 231 711 q 610 452 610 711 l 610 0 m 498 351 l 331 328 q 214 290 254 317 q 175 193 175 262 q 211 110 175 142 q 308 77 248 77 q 445 135 391 77 q 498 282 498 193 l 498 351 m 480 826 q 433 845 453 826 q 414 893 414 864 q 433 941 414 922 q 479 960 452 960 q 527 940 507 960 q 547 893 547 921 q 528 846 547 865 q 480 826 509 826 m 220 826 q 171 846 191 826 q 151 893 151 866 q 171 941 151 922 q 218 960 190 960 q 266 940 245 960 q 286 893 286 921 q 267 846 286 865 q 220 826 247 826 z "},"ã":{"ha":707,"x_min":61,"x_max":610,"o":"m 610 0 l 498 0 l 498 109 l 496 109 q 282 -16 423 -16 q 120 39 178 -16 q 61 184 61 94 q 290 411 61 379 l 498 440 q 355 617 498 617 q 129 532 230 617 l 129 646 q 365 711 231 711 q 610 452 610 711 l 610 0 m 498 351 l 331 328 q 214 290 254 317 q 175 193 175 262 q 211 110 175 142 q 308 77 248 77 q 445 135 391 77 q 498 282 498 193 l 498 351 m 572 989 q 540 872 572 918 q 452 827 507 827 q 342 863 404 827 q 261 892 290 892 q 201 815 201 892 l 138 815 q 170 931 138 888 q 261 975 203 975 q 362 940 305 975 q 449 910 412 910 q 506 989 506 910 l 572 989 z "},"å":{"ha":707,"x_min":61,"x_max":610,"o":"m 610 0 l 498 0 l 498 109 l 496 109 q 282 -16 423 -16 q 120 39 178 -16 q 61 184 61 94 q 290 411 61 379 l 498 440 q 355 617 498 617 q 129 532 230 617 l 129 646 q 365 711 231 711 q 610 452 610 711 l 610 0 m 498 351 l 331 328 q 214 290 254 317 q 175 193 175 262 q 211 110 175 142 q 308 77 248 77 q 445 135 391 77 q 498 282 498 193 l 498 351 m 351 798 q 253 833 292 798 q 214 926 214 869 q 254 1024 214 987 q 355 1061 294 1061 q 454 1024 416 1061 q 493 930 493 987 q 452 836 493 873 q 351 798 410 798 m 351 1006 q 296 984 318 1006 q 275 929 275 962 q 351 853 275 853 q 407 875 385 853 q 429 929 429 897 q 407 984 429 962 q 351 1006 385 1006 z "},"ç":{"ha":642,"x_min":65,"x_max":587,"o":"m 586 32 q 396 -16 506 -16 q 156 80 248 -16 q 65 331 65 177 q 163 607 65 503 q 426 711 262 711 q 587 677 517 711 l 587 563 q 422 617 510 617 q 247 541 315 617 q 179 340 179 465 q 243 148 179 218 q 415 77 307 77 q 586 138 506 77 l 586 32 m 528 -174 q 341 -293 528 -293 q 297 -292 315 -293 l 297 -231 q 345 -235 326 -235 q 440 -174 440 -235 q 353 -121 440 -121 q 325 -123 346 -121 l 325 0 l 398 0 l 398 -71 q 493 -98 458 -71 q 528 -174 528 -125 z "},"é":{"ha":726,"x_min":65,"x_max":671,"o":"m 671 319 l 180 319 q 243 140 183 203 q 407 77 302 77 q 623 155 524 77 l 623 50 q 380 -16 531 -16 q 149 78 233 -16 q 65 345 65 173 q 157 609 65 507 q 385 711 249 711 q 596 623 522 711 q 671 378 671 534 l 671 319 m 557 414 q 510 564 556 510 q 383 617 465 617 q 250 561 304 617 q 182 414 195 505 l 557 414 m 539 1048 l 361 826 l 275 826 l 427 1048 l 539 1048 z "},"è":{"ha":726,"x_min":65,"x_max":671,"o":"m 671 319 l 180 319 q 243 140 183 203 q 407 77 302 77 q 623 155 524 77 l 623 50 q 380 -16 531 -16 q 149 78 233 -16 q 65 345 65 173 q 157 609 65 507 q 385 711 249 711 q 596 623 522 711 q 671 378 671 534 l 671 319 m 557 414 q 510 564 556 510 q 383 617 465 617 q 250 561 304 617 q 182 414 195 505 l 557 414 m 492 826 l 406 826 l 228 1048 l 342 1048 l 492 826 z "},"ê":{"ha":726,"x_min":65,"x_max":671,"o":"m 671 319 l 180 319 q 243 140 183 203 q 407 77 302 77 q 623 155 524 77 l 623 50 q 380 -16 531 -16 q 149 78 233 -16 q 65 345 65 173 q 157 609 65 507 q 385 711 249 711 q 596 623 522 711 q 671 378 671 534 l 671 319 m 557 414 q 510 564 556 510 q 383 617 465 617 q 250 561 304 617 q 182 414 195 505 l 557 414 m 570 826 l 487 826 l 376 982 l 264 826 l 187 826 l 333 1051 l 423 1051 l 570 826 z "},"ë":{"ha":726,"x_min":65,"x_max":671,"o":"m 671 319 l 180 319 q 243 140 183 203 q 407 77 302 77 q 623 155 524 77 l 623 50 q 380 -16 531 -16 q 149 78 233 -16 q 65 345 65 173 q 157 609 65 507 q 385 711 249 711 q 596 623 522 711 q 671 378 671 534 l 671 319 m 557 414 q 510 564 556 510 q 383 617 465 617 q 250 561 304 617 q 182 414 195 505 l 557 414 m 506 826 q 459 845 479 826 q 439 893 439 864 q 458 941 439 922 q 505 960 477 960 q 553 940 533 960 q 572 893 572 921 q 553 846 572 865 q 506 826 534 826 m 245 826 q 197 846 217 826 q 177 893 177 866 q 196 941 177 922 q 243 960 216 960 q 292 940 271 960 q 312 893 312 921 q 292 846 312 865 q 245 826 273 826 z "},"í":{"ha":336,"x_min":60,"x_max":323,"o":"m 224 0 l 113 0 l 113 694 l 224 694 l 224 0 m 323 1048 l 146 826 l 60 826 l 211 1048 l 323 1048 z "},"ì":{"ha":336,"x_min":-14,"x_max":250,"o":"m 224 0 l 113 0 l 113 694 l 224 694 l 224 0 m 250 826 l 164 826 l -14 1048 l 100 1048 l 250 826 z "},"î":{"ha":336,"x_min":-31,"x_max":352,"o":"m 224 0 l 113 0 l 113 694 l 224 694 l 224 0 m 352 826 l 269 826 l 158 982 l 46 826 l -31 826 l 115 1051 l 205 1051 l 352 826 z "},"ï":{"ha":336,"x_min":-37,"x_max":358,"o":"m 224 0 l 113 0 l 113 694 l 224 694 l 224 0 m 292 826 q 245 845 264 826 q 225 893 225 864 q 244 941 225 922 q 290 960 263 960 q 338 940 319 960 q 358 893 358 921 q 339 846 358 865 q 292 826 320 826 m 31 826 q -17 846 3 826 q -37 893 -37 866 q -18 941 -37 922 q 29 960 1 960 q 77 940 57 960 q 98 893 98 921 q 78 846 98 865 q 31 826 58 826 z "},"ñ":{"ha":786,"x_min":113,"x_max":689,"o":"m 689 0 l 578 0 l 578 396 q 416 617 578 617 q 278 554 333 617 q 224 396 224 492 l 224 0 l 113 0 l 113 694 l 224 694 l 224 579 l 227 579 q 454 711 305 711 q 629 637 568 711 q 689 425 689 564 l 689 0 m 616 989 q 583 872 616 918 q 495 827 551 827 q 385 863 447 827 q 304 892 333 892 q 245 815 245 892 l 181 815 q 214 931 181 888 q 304 975 246 975 q 406 940 349 975 q 492 910 456 910 q 549 989 549 910 l 616 989 z "},"ó":{"ha":814,"x_min":65,"x_max":749,"o":"m 403 -16 q 157 81 249 -16 q 65 339 65 178 q 161 612 65 514 q 419 711 256 711 q 662 615 574 711 q 749 350 749 519 q 655 84 749 184 q 403 -16 561 -16 m 411 617 q 241 544 304 617 q 179 343 179 471 q 242 149 179 220 q 411 77 305 77 q 577 147 519 77 q 635 346 635 217 q 577 547 635 476 q 411 617 519 617 m 574 1048 l 396 826 l 310 826 l 461 1048 l 574 1048 z "},"ò":{"ha":814,"x_min":65,"x_max":749,"o":"m 403 -16 q 157 81 249 -16 q 65 339 65 178 q 161 612 65 514 q 419 711 256 711 q 662 615 574 711 q 749 350 749 519 q 655 84 749 184 q 403 -16 561 -16 m 411 617 q 241 544 304 617 q 179 343 179 471 q 242 149 179 220 q 411 77 305 77 q 577 147 519 77 q 635 346 635 217 q 577 547 635 476 q 411 617 519 617 m 507 826 l 420 826 l 243 1048 l 357 1048 l 507 826 z "},"ô":{"ha":814,"x_min":65,"x_max":749,"o":"m 403 -16 q 157 81 249 -16 q 65 339 65 178 q 161 612 65 514 q 419 711 256 711 q 662 615 574 711 q 749 350 749 519 q 655 84 749 184 q 403 -16 561 -16 m 411 617 q 241 544 304 617 q 179 343 179 471 q 242 149 179 220 q 411 77 305 77 q 577 147 519 77 q 635 346 635 217 q 577 547 635 476 q 411 617 519 617 m 600 826 l 517 826 l 406 982 l 294 826 l 218 826 l 363 1051 l 454 1051 l 600 826 z "},"ö":{"ha":814,"x_min":65,"x_max":749,"o":"m 403 -16 q 157 81 249 -16 q 65 339 65 178 q 161 612 65 514 q 419 711 256 711 q 662 615 574 711 q 749 350 749 519 q 655 84 749 184 q 403 -16 561 -16 m 411 617 q 241 544 304 617 q 179 343 179 471 q 242 149 179 220 q 411 77 305 77 q 577 147 519 77 q 635 346 635 217 q 577 547 635 476 q 411 617 519 617 m 538 826 q 491 845 511 826 q 471 893 471 864 q 490 941 471 922 q 536 960 509 960 q 585 940 565 960 q 604 893 604 921 q 585 846 604 865 q 538 826 566 826 m 277 826 q 229 846 249 826 q 209 893 209 866 q 228 941 209 922 q 275 960 248 960 q 323 940 303 960 q 344 893 344 921 q 324 846 344 865 q 277 826 304 826 z "},"õ":{"ha":814,"x_min":65,"x_max":749,"o":"m 403 -16 q 157 81 249 -16 q 65 339 65 178 q 161 612 65 514 q 419 711 256 711 q 662 615 574 711 q 749 350 749 519 q 655 84 749 184 q 403 -16 561 -16 m 411 617 q 241 544 304 617 q 179 343 179 471 q 242 149 179 220 q 411 77 305 77 q 577 147 519 77 q 635 346 635 217 q 577 547 635 476 q 411 617 519 617 m 631 989 q 599 872 631 918 q 511 827 566 827 q 401 863 463 827 q 320 892 349 892 q 260 815 260 892 l 197 815 q 229 931 197 888 q 320 975 262 975 q 421 940 364 975 q 508 910 471 910 q 565 989 565 910 l 631 989 z "},"ú":{"ha":786,"x_min":98,"x_max":674,"o":"m 674 0 l 563 0 l 563 110 l 560 110 q 346 -16 491 -16 q 98 279 98 -16 l 98 694 l 208 694 l 208 297 q 376 77 208 77 q 510 137 458 77 q 563 294 563 197 l 563 694 l 674 694 l 674 0 m 570 1048 l 392 826 l 306 826 l 457 1048 l 570 1048 z "},"ù":{"ha":786,"x_min":98,"x_max":674,"o":"m 674 0 l 563 0 l 563 110 l 560 110 q 346 -16 491 -16 q 98 279 98 -16 l 98 694 l 208 694 l 208 297 q 376 77 208 77 q 510 137 458 77 q 563 294 563 197 l 563 694 l 674 694 l 674 0 m 478 826 l 392 826 l 214 1048 l 328 1048 l 478 826 z "},"û":{"ha":786,"x_min":98,"x_max":674,"o":"m 674 0 l 563 0 l 563 110 l 560 110 q 346 -16 491 -16 q 98 279 98 -16 l 98 694 l 208 694 l 208 297 q 376 77 208 77 q 510 137 458 77 q 563 294 563 197 l 563 694 l 674 694 l 674 0 m 579 826 l 496 826 l 385 982 l 273 826 l 197 826 l 342 1051 l 433 1051 l 579 826 z "},"ü":{"ha":786,"x_min":98,"x_max":674,"o":"m 674 0 l 563 0 l 563 110 l 560 110 q 346 -16 491 -16 q 98 279 98 -16 l 98 694 l 208 694 l 208 297 q 376 77 208 77 q 510 137 458 77 q 563 294 563 197 l 563 694 l 674 694 l 674 0 m 522 826 q 475 845 495 826 q 456 893 456 864 q 475 941 456 922 q 521 960 494 960 q 569 940 549 960 q 589 893 589 921 q 570 846 589 865 q 522 826 551 826 m 262 826 q 213 846 233 826 q 193 893 193 866 q 213 941 193 922 q 260 960 232 960 q 308 940 288 960 q 328 893 328 921 q 309 846 328 865 q 262 826 289 826 z "},"†":{"ha":521,"x_min":33,"x_max":494,"o":"m 494 606 l 316 626 l 289 155 l 237 155 l 210 626 l 33 606 l 33 707 l 237 694 l 210 972 l 316 972 l 289 694 l 494 707 l 494 606 z "},"°":{"ha":524,"x_min":73,"x_max":449,"o":"m 261 608 q 128 664 183 608 q 73 798 73 719 q 127 929 73 876 q 260 983 182 983 q 394 929 338 983 q 449 798 449 875 q 394 664 449 719 q 261 608 339 608 m 261 904 q 186 873 217 904 q 155 798 155 842 q 185 720 155 752 q 260 688 216 688 q 336 720 304 688 q 368 798 368 753 q 336 873 368 842 q 261 904 305 904 z "},"¢":{"ha":749,"x_min":125,"x_max":646,"o":"m 646 142 q 496 95 581 102 l 496 -33 l 411 -33 l 411 96 q 202 205 280 111 q 125 440 125 300 q 202 689 125 589 q 411 814 280 789 l 411 958 l 496 958 l 496 821 q 646 786 579 819 l 646 669 q 496 722 577 718 l 496 190 q 646 248 578 198 l 646 142 m 411 197 l 411 713 q 284 623 330 692 q 239 452 239 553 q 285 283 239 350 q 411 197 331 216 z "},"£":{"ha":749,"x_min":72,"x_max":682,"o":"m 682 0 l 72 0 l 72 92 q 220 304 220 138 l 220 431 l 86 431 l 86 526 l 220 526 l 220 699 q 294 907 220 826 q 485 989 368 989 q 629 961 564 989 l 629 856 q 486 895 562 895 q 331 686 331 895 l 331 526 l 532 526 l 532 431 l 331 431 l 331 325 q 200 95 331 161 l 682 95 l 682 0 z "},"§":{"ha":623,"x_min":89,"x_max":547,"o":"m 446 282 q 507 156 507 232 q 439 11 507 66 q 267 -45 372 -45 q 104 -7 178 -45 l 104 100 q 274 50 193 50 q 362 77 331 50 q 393 144 393 104 q 369 205 393 180 q 247 282 345 230 q 89 497 89 365 q 189 663 89 608 q 117 814 117 719 q 180 956 117 900 q 347 1011 243 1011 q 496 982 435 1011 l 496 875 q 345 917 427 917 q 231 819 231 917 q 258 751 231 782 q 396 668 286 721 q 547 469 547 595 q 446 282 547 354 m 270 614 q 201 506 201 579 q 240 420 201 457 q 374 340 278 383 q 433 457 433 387 q 398 540 433 506 q 270 614 362 574 z "},"•":{"ha":564,"x_min":111,"x_max":453,"o":"m 283 277 q 162 326 213 277 q 111 446 111 376 q 162 567 111 516 q 283 618 213 618 q 404 568 354 618 q 453 446 453 517 q 404 326 453 376 q 283 277 354 277 z "},"¶":{"ha":636,"x_min":57,"x_max":566,"o":"m 566 903 l 479 903 l 479 0 l 407 0 l 407 903 l 300 903 l 300 0 l 227 0 l 227 612 q 105 664 153 612 q 57 793 57 715 q 107 923 57 873 q 231 972 158 972 l 566 972 l 566 903 z "},"ß":{"ha":755,"x_min":113,"x_max":708,"o":"m 313 1 l 313 110 q 428 77 363 77 q 548 127 502 77 q 594 261 594 177 q 526 426 594 363 q 338 503 458 490 l 338 591 q 469 661 418 605 q 521 795 521 718 q 484 908 521 868 q 380 949 446 949 q 224 739 224 949 l 224 0 l 113 0 l 113 755 q 187 964 113 886 q 388 1043 262 1043 q 568 979 500 1043 q 635 808 635 914 q 584 654 635 722 q 452 559 533 585 l 452 555 q 708 267 708 505 q 633 65 708 146 q 433 -16 557 -16 q 313 1 365 -16 z "},"­":{"ha":555,"x_min":98,"x_max":468,"o":"m 468 343 l 98 343 l 98 431 l 468 431 l 468 343 z "},"®":{"ha":1236,"x_min":110,"x_max":1126,"o":"m 618 -22 q 259 126 408 -22 q 110 486 110 275 q 259 846 110 697 q 618 995 408 995 q 978 846 829 995 q 1126 486 1126 697 q 978 126 1126 275 q 618 -22 829 -22 m 618 935 q 301 804 433 935 q 170 486 170 672 q 301 169 170 300 q 618 38 433 38 q 936 169 804 38 q 1067 486 1067 300 q 936 804 1067 672 q 618 935 804 935 m 865 168 l 755 168 l 685 323 q 570 440 631 440 l 510 440 l 510 168 l 420 168 l 420 815 l 602 815 q 776 768 715 815 q 838 639 838 720 q 794 526 838 572 q 674 463 751 479 l 674 460 q 781 340 728 448 l 865 168 m 510 738 l 510 517 l 607 517 q 741 628 741 517 q 705 713 741 688 q 591 738 669 738 l 510 738 z "},"©":{"ha":1236,"x_min":110,"x_max":1126,"o":"m 618 -22 q 259 126 408 -22 q 110 486 110 275 q 259 846 110 697 q 618 995 408 995 q 978 846 829 995 q 1126 486 1126 697 q 978 126 1126 275 q 618 -22 829 -22 m 618 935 q 301 804 433 935 q 170 486 170 672 q 301 169 170 300 q 618 38 433 38 q 936 169 804 38 q 1067 486 1067 300 q 936 804 1067 672 q 618 935 804 935 m 823 180 q 640 134 745 134 q 403 230 498 134 q 307 469 307 326 q 405 736 307 637 q 660 836 503 836 q 820 800 749 836 l 820 699 q 648 747 755 747 q 473 675 542 747 q 404 481 404 603 q 474 291 404 363 q 653 220 545 220 q 823 273 752 220 l 823 180 z "},"™":{"ha":1074,"x_min":52,"x_max":947,"o":"m 947 524 l 873 524 l 873 848 l 871 848 l 722 524 l 682 524 l 537 848 l 534 848 l 534 524 l 465 524 l 465 972 l 551 972 l 704 636 l 707 636 l 861 972 l 947 972 l 947 524 m 408 906 l 267 906 l 267 524 l 191 524 l 191 906 l 52 906 l 52 972 l 408 972 l 408 906 z "},"´":{"ha":392,"x_min":92,"x_max":355,"o":"m 355 1048 l 178 826 l 92 826 l 243 1048 l 355 1048 z "},"¨":{"ha":575,"x_min":85,"x_max":480,"o":"m 414 826 q 367 845 387 826 q 347 893 347 864 q 366 941 347 922 q 412 960 385 960 q 460 940 441 960 q 480 893 480 921 q 461 846 480 865 q 414 826 442 826 m 153 826 q 105 846 125 826 q 85 893 85 866 q 104 941 85 922 q 151 960 123 960 q 199 940 179 960 q 220 893 220 921 q 200 846 220 865 q 153 826 180 826 z "},"Æ":{"ha":1195,"x_min":7,"x_max":1131,"o":"m 1131 0 l 616 0 l 616 273 l 270 273 l 139 0 l 7 0 l 481 972 l 1108 972 l 1108 869 l 729 869 l 729 546 l 1081 546 l 1081 444 l 729 444 l 729 103 l 1131 103 l 1131 0 m 616 375 l 616 869 l 551 869 l 317 375 l 616 375 z "},"Ø":{"ha":1047,"x_min":64,"x_max":983,"o":"m 220 89 l 117 -35 l 64 9 l 171 139 q 64 475 64 271 q 190 848 64 707 q 536 989 317 989 q 808 901 694 989 l 900 1011 l 953 968 l 859 856 q 983 498 983 720 q 857 122 983 260 q 519 -16 731 -16 q 220 89 339 -16 m 739 817 q 528 886 654 886 q 278 774 374 886 q 183 485 183 663 q 250 232 183 334 l 739 817 m 785 766 l 293 179 q 519 86 382 86 q 772 191 680 86 q 864 483 864 296 q 785 766 864 659 z "},"±":{"ha":950,"x_min":157,"x_max":795,"o":"m 795 442 l 521 442 l 521 168 l 432 168 l 432 442 l 157 442 l 157 532 l 432 532 l 432 806 l 521 806 l 521 532 l 795 532 l 795 442 m 795 0 l 157 0 l 157 90 l 795 90 l 795 0 z "},"¥":{"ha":749,"x_min":46,"x_max":707,"o":"m 707 972 l 465 528 l 659 528 l 659 433 l 432 433 l 432 293 l 659 293 l 659 199 l 432 199 l 432 0 l 321 0 l 321 199 l 87 199 l 87 293 l 321 293 l 321 433 l 87 433 l 87 528 l 285 528 l 46 972 l 176 972 l 346 624 q 378 549 365 585 l 380 549 q 414 628 389 577 l 585 972 l 707 972 z "},"µ":{"ha":802,"x_min":113,"x_max":711,"o":"m 711 0 l 595 0 q 580 114 580 49 l 576 114 q 387 -16 519 -16 q 226 68 274 -16 l 223 68 l 223 -269 l 113 -269 l 113 694 l 223 694 l 223 270 q 270 133 223 184 q 392 82 317 82 q 525 140 474 82 q 576 297 576 199 l 576 694 l 689 694 l 689 180 q 711 0 689 52 z "},"ª":{"ha":545,"x_min":56,"x_max":467,"o":"m 467 486 l 379 486 l 379 554 l 376 554 q 220 473 323 473 q 101 514 146 473 q 56 617 56 554 q 224 777 56 754 l 379 798 q 277 911 379 911 q 104 853 184 911 l 104 940 q 285 987 180 987 q 418 939 370 987 q 467 802 467 890 l 467 486 m 379 729 l 257 712 q 143 621 143 696 q 169 565 143 587 q 239 543 195 543 q 337 585 294 543 q 379 684 379 626 l 379 729 z "},"º":{"ha":598,"x_min":53,"x_max":545,"o":"m 296 472 q 118 540 182 472 q 53 725 53 608 q 122 917 53 848 q 307 986 192 986 q 481 919 417 986 q 545 735 545 851 q 477 543 545 614 q 296 472 410 472 m 301 911 q 187 863 229 911 q 144 728 144 814 q 185 596 144 644 q 300 549 225 549 q 413 597 371 549 q 454 729 454 646 q 413 863 454 814 q 301 911 372 911 z "},"æ":{"ha":1156,"x_min":61,"x_max":1100,"o":"m 1100 319 l 608 319 q 670 140 610 203 q 833 77 730 77 q 1051 155 954 77 l 1051 50 q 808 -16 962 -16 q 549 139 625 -16 l 546 139 q 283 -16 448 -16 q 120 38 180 -16 q 61 184 61 93 q 321 404 61 388 l 498 415 q 353 617 498 617 q 129 534 234 617 l 129 646 q 365 711 229 711 q 568 575 522 711 l 571 575 q 812 711 650 711 q 1025 622 949 711 q 1100 376 1100 534 l 1100 319 m 986 414 q 940 564 985 511 q 814 617 895 617 q 679 562 735 617 q 610 414 623 506 l 986 414 m 498 278 l 498 321 l 361 313 q 220 279 267 307 q 174 187 174 252 q 210 107 174 138 q 307 77 245 77 q 443 135 387 77 q 498 278 498 192 z "},"ø":{"ha":814,"x_min":33,"x_max":796,"o":"m 796 711 l 682 589 q 749 354 749 495 q 654 83 749 183 q 403 -16 560 -16 q 187 53 273 -16 l 89 -56 l 33 -3 l 134 109 q 65 339 65 201 q 161 612 65 514 q 420 711 258 711 q 629 644 545 711 l 739 764 l 796 711 m 557 567 q 411 617 503 617 q 241 544 303 617 q 179 343 179 471 q 213 191 179 254 l 557 567 m 604 503 l 260 129 q 410 77 319 77 q 578 148 520 77 q 636 347 636 218 q 604 503 636 438 z "},"¿":{"ha":623,"x_min":97,"x_max":562,"o":"m 424 427 q 435 381 430 410 q 439 326 439 353 q 422 247 439 282 q 379 182 405 212 q 323 123 353 151 q 267 66 292 95 q 223 6 241 37 q 206 -64 206 -26 q 219 -121 206 -96 q 253 -163 231 -146 q 303 -189 275 -180 q 363 -197 332 -197 q 562 -107 478 -197 l 562 -227 q 347 -292 458 -292 q 250 -278 296 -292 q 171 -238 205 -264 q 117 -171 137 -211 q 97 -78 97 -131 q 115 12 97 -28 q 159 84 132 51 q 217 145 186 117 q 275 202 248 174 q 319 260 302 230 q 337 328 337 291 q 330 384 337 359 q 315 427 322 410 l 424 427 m 363 709 q 416 688 393 709 q 438 635 438 667 q 416 582 438 604 q 363 559 393 559 q 310 582 332 559 q 288 635 288 604 q 310 688 288 667 q 363 709 333 709 z "}," ":{"ha":380,"x_min":0,"x_max":0,"o":""},"¡":{"ha":395,"x_min":122,"x_max":273,"o":"m 197 560 q 144 582 166 560 q 122 635 122 604 q 144 688 122 666 q 197 709 166 709 q 250 688 228 709 q 273 635 273 666 q 250 582 273 604 q 197 560 228 560 m 257 -275 l 140 -275 l 153 423 l 244 423 l 257 -275 z "},"¬":{"ha":950,"x_min":157,"x_max":795,"o":"m 795 172 l 705 172 l 705 464 l 157 464 l 157 554 l 795 554 l 795 172 z "},"ƒ":{"ha":749,"x_min":64,"x_max":646,"o":"m 646 859 q 572 878 613 878 q 457 769 473 878 l 436 628 l 549 628 l 549 534 l 422 534 l 361 95 q 125 -189 321 -189 q 64 -178 104 -189 l 64 -81 q 122 -95 88 -95 q 251 103 224 -95 l 313 534 l 243 534 l 243 628 l 327 628 l 346 777 q 417 919 357 865 q 567 972 476 972 q 646 960 610 972 l 646 859 z "},"«":{"ha":703,"x_min":62,"x_max":643,"o":"m 642 136 l 528 136 l 325 363 l 528 597 l 643 597 l 435 363 l 642 136 m 378 136 l 265 136 l 62 363 l 265 597 l 378 597 l 172 363 l 378 136 z "},"»":{"ha":703,"x_min":61,"x_max":643,"o":"m 643 365 l 439 136 l 327 136 l 532 365 l 327 597 l 439 597 l 643 365 m 379 365 l 176 136 l 61 136 l 270 365 l 61 597 l 176 597 l 379 365 z "},"…":{"ha":1018,"x_min":95,"x_max":924,"o":"m 849 -12 q 797 9 818 -12 q 775 62 775 31 q 797 116 775 94 q 849 139 818 139 q 902 116 880 139 q 924 62 924 94 q 902 9 924 31 q 849 -12 880 -12 m 509 -12 q 455 9 477 -12 q 433 62 433 31 q 455 116 433 94 q 509 139 477 139 q 561 116 539 139 q 583 62 583 94 q 561 9 583 31 q 509 -12 539 -12 m 168 -12 q 116 9 137 -12 q 95 62 95 31 q 116 116 95 94 q 168 139 137 139 q 221 116 199 139 q 243 62 243 94 q 221 9 243 31 q 168 -12 199 -12 z "},"À":{"ha":896,"x_min":15,"x_max":880,"o":"m 880 0 l 754 0 l 651 273 l 239 273 l 142 0 l 15 0 l 388 972 l 506 972 l 880 0 m 614 375 l 461 789 q 446 854 454 810 l 444 854 q 428 789 437 813 l 277 375 l 614 375 m 514 1062 l 428 1062 l 250 1284 l 364 1284 l 514 1062 z "},"Ã":{"ha":896,"x_min":15,"x_max":880,"o":"m 880 0 l 754 0 l 651 273 l 239 273 l 142 0 l 15 0 l 388 972 l 506 972 l 880 0 m 614 375 l 461 789 q 446 854 454 810 l 444 854 q 428 789 437 813 l 277 375 l 614 375 m 663 1223 q 630 1106 663 1152 q 542 1061 597 1061 q 432 1097 494 1061 q 351 1126 380 1126 q 292 1049 292 1126 l 228 1049 q 260 1165 228 1122 q 351 1209 293 1209 q 452 1174 395 1209 q 539 1144 503 1144 q 596 1223 596 1144 l 663 1223 z "},"Õ":{"ha":1047,"x_min":64,"x_max":983,"o":"m 519 -16 q 188 120 313 -16 q 64 475 64 256 q 191 849 64 709 q 536 989 317 989 q 860 853 737 989 q 983 498 983 718 q 857 122 983 260 q 519 -16 731 -16 m 528 886 q 279 775 374 886 q 183 485 183 665 q 276 196 183 305 q 519 86 370 86 q 772 191 680 86 q 864 483 864 295 q 774 781 864 675 q 528 886 685 886 m 748 1222 q 715 1106 748 1151 q 627 1061 683 1061 q 517 1096 579 1061 q 437 1125 465 1125 q 377 1048 377 1125 l 313 1048 q 346 1165 313 1121 q 437 1208 378 1208 q 538 1173 481 1208 q 625 1143 588 1143 q 682 1222 682 1143 l 748 1222 z "},"Œ":{"ha":1293,"x_min":64,"x_max":1227,"o":"m 1227 0 l 739 0 q 646 -9 728 0 q 522 -16 579 -16 q 187 120 311 -16 q 64 475 64 256 q 192 849 64 709 q 541 989 321 989 q 662 982 602 989 q 739 972 738 972 l 1206 972 l 1206 869 l 826 869 l 826 546 l 1177 546 l 1177 444 l 826 444 l 826 103 l 1227 103 l 1227 0 m 712 109 l 712 867 q 530 886 604 886 q 279 773 375 886 q 183 485 183 661 q 278 198 183 310 q 526 86 372 86 q 712 109 605 86 z "},"œ":{"ha":1289,"x_min":65,"x_max":1238,"o":"m 1238 319 l 746 319 q 808 140 748 203 q 972 77 868 77 q 1189 155 1091 77 l 1189 50 q 947 -16 1097 -16 q 688 144 764 -16 l 685 144 q 403 -16 596 -16 q 156 81 248 -16 q 65 338 65 178 q 161 612 65 513 q 420 711 258 711 q 693 551 620 711 l 696 551 q 957 711 777 711 q 1164 622 1090 711 q 1238 379 1238 532 l 1238 319 m 1124 414 q 1077 564 1122 510 q 953 617 1031 617 q 815 559 871 617 q 747 414 758 501 l 1124 414 m 411 617 q 241 544 304 617 q 179 340 179 470 q 241 148 179 218 q 410 77 304 77 q 576 147 517 77 q 635 345 635 216 q 576 547 635 476 q 411 617 517 617 z "},"–":{"ha":694,"x_min":0,"x_max":694,"o":"m 694 343 l 0 343 l 0 431 l 694 431 l 694 343 z "},"—":{"ha":1389,"x_min":0,"x_max":1389,"o":"m 1389 343 l 0 343 l 0 431 l 1389 431 l 1389 343 z "},"“":{"ha":524,"x_min":72,"x_max":453,"o":"m 453 989 l 378 686 l 278 686 l 374 989 l 453 989 m 247 989 l 174 686 l 72 686 l 167 989 l 247 989 z "},"”":{"ha":524,"x_min":75,"x_max":456,"o":"m 456 989 l 361 686 l 281 686 l 354 989 l 456 989 m 250 989 l 155 686 l 75 686 l 150 989 l 250 989 z "},"‘":{"ha":318,"x_min":72,"x_max":247,"o":"m 247 989 l 174 686 l 72 686 l 167 989 l 247 989 z "},"’":{"ha":318,"x_min":75,"x_max":250,"o":"m 250 989 l 155 686 l 75 686 l 150 989 l 250 989 z "},"÷":{"ha":950,"x_min":157,"x_max":795,"o":"m 480 589 q 430 609 450 589 q 410 660 410 630 q 429 712 410 690 q 480 734 449 734 q 550 661 550 734 q 529 609 550 629 q 480 589 509 589 m 795 359 l 157 359 l 157 450 l 795 450 l 795 359 m 477 76 q 427 96 448 76 q 406 146 406 117 q 426 199 406 176 q 477 221 446 221 q 546 147 546 221 q 526 96 546 117 q 477 76 507 76 z "},"ÿ":{"ha":672,"x_min":9,"x_max":665,"o":"m 665 694 l 346 -111 q 106 -327 260 -327 q 33 -318 62 -327 l 33 -218 q 99 -231 69 -231 q 225 -130 183 -231 l 281 1 l 9 694 l 133 694 l 321 160 q 335 107 324 150 l 339 107 q 353 159 342 123 l 550 694 l 665 694 m 467 826 q 420 845 440 826 q 401 893 401 864 q 420 941 401 922 q 466 960 439 960 q 514 940 494 960 q 534 893 534 921 q 515 846 534 865 q 467 826 496 826 m 207 826 q 158 846 178 826 q 138 893 138 866 q 158 941 138 922 q 205 960 177 960 q 253 940 233 960 q 273 893 273 921 q 254 846 273 865 q 207 826 234 826 z "},"Ÿ":{"ha":768,"x_min":12,"x_max":760,"o":"m 760 972 l 439 359 l 439 0 l 325 0 l 325 357 l 12 972 l 142 972 l 359 533 q 383 473 363 525 l 385 473 q 411 533 392 496 l 639 972 l 760 972 m 515 1061 q 468 1080 488 1061 q 448 1128 448 1099 q 467 1176 448 1157 q 513 1195 486 1195 q 562 1176 542 1195 q 581 1128 581 1156 q 562 1081 581 1101 q 515 1061 543 1061 m 254 1061 q 206 1081 226 1061 q 186 1128 186 1101 q 205 1176 186 1157 q 252 1195 224 1195 q 300 1176 280 1195 q 321 1128 321 1156 q 301 1081 321 1101 q 254 1061 281 1061 z "},"€":{"ha":749,"x_min":69,"x_max":688,"o":"m 688 34 q 496 -16 597 -16 q 151 327 207 -16 l 69 327 l 69 422 l 142 422 q 140 474 140 443 q 144 547 140 507 l 69 547 l 69 642 l 158 642 q 289 897 193 805 q 522 989 385 989 q 688 951 614 989 l 688 841 q 514 894 610 894 q 363 826 429 894 q 271 642 297 758 l 608 642 l 608 547 l 256 547 q 255 422 250 480 l 608 422 l 608 327 l 266 327 q 503 79 315 79 q 688 138 592 79 l 688 34 z "},"‹":{"ha":439,"x_min":62,"x_max":379,"o":"m 378 136 l 265 136 l 62 363 l 265 597 l 379 597 l 172 363 l 378 136 z "},"›":{"ha":439,"x_min":62,"x_max":379,"o":"m 379 365 l 175 136 l 62 136 l 269 365 l 62 597 l 175 597 l 379 365 z "},"‡":{"ha":521,"x_min":33,"x_max":494,"o":"m 494 352 l 289 366 l 316 155 l 210 155 l 237 366 l 33 352 l 33 454 l 210 433 l 250 564 l 210 694 l 33 673 l 33 775 l 237 762 l 210 972 l 316 972 l 289 762 l 494 775 l 494 673 l 316 694 l 277 564 l 316 433 l 494 454 l 494 352 z "},"·":{"ha":301,"x_min":76,"x_max":228,"o":"m 151 346 q 98 368 120 346 q 76 422 76 391 q 98 476 76 454 q 151 498 120 498 q 205 476 183 498 q 228 422 228 454 q 205 368 228 391 q 151 346 183 346 z "},"‚":{"ha":318,"x_min":60,"x_max":235,"o":"m 235 147 l 139 -155 l 60 -155 l 134 147 l 235 147 z "},"„":{"ha":524,"x_min":60,"x_max":440,"o":"m 440 147 l 346 -155 l 265 -155 l 339 147 l 440 147 m 235 147 l 139 -155 l 60 -155 l 134 147 l 235 147 z "},"‰":{"ha":1681,"x_min":54,"x_max":1626,"o":"m 274 485 q 114 551 174 485 q 54 728 54 617 q 117 918 54 848 q 288 987 180 987 q 449 923 391 987 q 506 742 506 859 q 442 555 506 625 q 274 485 378 485 m 283 913 q 182 865 219 913 q 144 734 144 817 q 181 606 144 652 q 281 560 218 560 q 380 608 345 560 q 416 739 416 655 q 381 867 416 821 q 283 913 345 913 m 926 972 l 301 -7 l 204 -7 l 829 972 l 926 972 m 1394 -15 q 1234 52 1294 -15 q 1175 228 1175 118 q 1239 418 1175 348 q 1408 489 1303 489 q 1569 424 1512 489 q 1626 241 1626 359 q 1563 55 1626 125 q 1394 -15 1499 -15 m 1404 412 q 1302 365 1339 412 q 1265 233 1265 317 q 1302 106 1265 152 q 1401 61 1338 61 q 1501 109 1466 61 q 1537 240 1537 157 q 1501 367 1537 322 q 1404 412 1466 412 m 853 -15 q 693 52 753 -15 q 633 228 633 118 q 697 419 633 349 q 867 489 761 489 q 1027 424 970 489 q 1085 241 1085 359 q 1021 55 1085 125 q 853 -15 957 -15 m 863 412 q 761 365 798 412 q 724 233 724 317 q 760 107 724 153 q 860 61 797 61 q 960 109 924 61 q 996 240 996 157 q 960 368 996 323 q 863 412 924 412 z "},"Â":{"ha":896,"x_min":15,"x_max":880,"o":"m 880 0 l 754 0 l 651 273 l 239 273 l 142 0 l 15 0 l 388 972 l 506 972 l 880 0 m 614 375 l 461 789 q 446 854 454 810 l 444 854 q 428 789 437 813 l 277 375 l 614 375 m 629 1061 l 546 1061 l 435 1217 l 323 1061 l 246 1061 l 392 1286 l 482 1286 l 629 1061 z "},"Ê":{"ha":703,"x_min":127,"x_max":643,"o":"m 643 0 l 127 0 l 127 972 l 621 972 l 621 869 l 241 869 l 241 546 l 593 546 l 593 444 l 241 444 l 241 103 l 643 103 l 643 0 m 561 1063 l 478 1063 l 367 1219 l 255 1063 l 178 1063 l 324 1288 l 414 1288 l 561 1063 z "},"Á":{"ha":896,"x_min":15,"x_max":880,"o":"m 880 0 l 754 0 l 651 273 l 239 273 l 142 0 l 15 0 l 388 972 l 506 972 l 880 0 m 614 375 l 461 789 q 446 854 454 810 l 444 854 q 428 789 437 813 l 277 375 l 614 375 m 588 1284 l 410 1062 l 324 1062 l 475 1284 l 588 1284 z "},"Ë":{"ha":703,"x_min":127,"x_max":643,"o":"m 643 0 l 127 0 l 127 972 l 621 972 l 621 869 l 241 869 l 241 546 l 593 546 l 593 444 l 241 444 l 241 103 l 643 103 l 643 0 m 508 1062 q 461 1081 481 1062 q 441 1129 441 1100 q 460 1177 441 1158 q 507 1196 479 1196 q 555 1176 535 1196 q 574 1129 574 1157 q 555 1082 574 1101 q 508 1062 536 1062 m 248 1062 q 199 1082 219 1062 q 179 1129 179 1102 q 198 1177 179 1158 q 245 1196 218 1196 q 294 1176 273 1196 q 314 1129 314 1157 q 294 1082 314 1101 q 248 1062 275 1062 z "},"È":{"ha":703,"x_min":127,"x_max":643,"o":"m 643 0 l 127 0 l 127 972 l 621 972 l 621 869 l 241 869 l 241 546 l 593 546 l 593 444 l 241 444 l 241 103 l 643 103 l 643 0 m 477 1062 l 391 1062 l 213 1284 l 327 1284 l 477 1062 z "},"Í":{"ha":370,"x_min":81,"x_max":345,"o":"m 241 0 l 127 0 l 127 972 l 241 972 l 241 0 m 345 1284 l 168 1062 l 81 1062 l 233 1284 l 345 1284 z "},"Î":{"ha":370,"x_min":-3,"x_max":380,"o":"m 241 0 l 127 0 l 127 972 l 241 972 l 241 0 m 380 1063 l 297 1063 l 186 1219 l 74 1063 l -3 1063 l 143 1288 l 233 1288 l 380 1063 z "},"Ï":{"ha":370,"x_min":-10,"x_max":385,"o":"m 241 0 l 127 0 l 127 972 l 241 972 l 241 0 m 319 1062 q 272 1081 292 1062 q 252 1129 252 1100 q 271 1177 252 1158 q 317 1196 290 1196 q 366 1176 346 1196 q 385 1129 385 1157 q 366 1082 385 1101 q 319 1062 347 1062 m 58 1062 q 10 1082 30 1062 q -10 1129 -10 1102 q 9 1177 -10 1158 q 56 1196 28 1196 q 104 1176 84 1196 q 125 1129 125 1157 q 105 1082 125 1101 q 58 1062 85 1062 z "},"Ì":{"ha":370,"x_min":18,"x_max":282,"o":"m 241 0 l 127 0 l 127 972 l 241 972 l 241 0 m 282 1062 l 196 1062 l 18 1284 l 132 1284 l 282 1062 z "},"Ó":{"ha":1047,"x_min":64,"x_max":983,"o":"m 519 -16 q 188 120 313 -16 q 64 475 64 256 q 191 849 64 709 q 536 989 317 989 q 860 853 737 989 q 983 498 983 718 q 857 122 983 260 q 519 -16 731 -16 m 528 886 q 279 775 374 886 q 183 485 183 665 q 276 196 183 305 q 519 86 370 86 q 772 191 680 86 q 864 483 864 295 q 774 781 864 675 q 528 886 685 886 m 697 1284 l 519 1062 l 433 1062 l 585 1284 l 697 1284 z "},"Ô":{"ha":1047,"x_min":64,"x_max":983,"o":"m 519 -16 q 188 120 313 -16 q 64 475 64 256 q 191 849 64 709 q 536 989 317 989 q 860 853 737 989 q 983 498 983 718 q 857 122 983 260 q 519 -16 731 -16 m 528 886 q 279 775 374 886 q 183 485 183 665 q 276 196 183 305 q 519 86 370 86 q 772 191 680 86 q 864 483 864 295 q 774 781 864 675 q 528 886 685 886 m 721 1062 l 638 1062 l 527 1218 l 415 1062 l 338 1062 l 484 1287 l 574 1287 l 721 1062 z "},"Ò":{"ha":1047,"x_min":64,"x_max":983,"o":"m 519 -16 q 188 120 313 -16 q 64 475 64 256 q 191 849 64 709 q 536 989 317 989 q 860 853 737 989 q 983 498 983 718 q 857 122 983 260 q 519 -16 731 -16 m 528 886 q 279 775 374 886 q 183 485 183 665 q 276 196 183 305 q 519 86 370 86 q 772 191 680 86 q 864 483 864 295 q 774 781 864 675 q 528 886 685 886 m 597 1062 l 511 1062 l 333 1284 l 447 1284 l 597 1062 z "},"Ú":{"ha":954,"x_min":115,"x_max":839,"o":"m 839 393 q 469 -16 839 -16 q 115 378 115 -16 l 115 972 l 229 972 l 229 385 q 481 86 229 86 q 725 375 725 86 l 725 972 l 839 972 l 839 393 m 651 1284 l 473 1061 l 387 1061 l 538 1284 l 651 1284 z "},"Û":{"ha":954,"x_min":115,"x_max":839,"o":"m 839 393 q 469 -16 839 -16 q 115 378 115 -16 l 115 972 l 229 972 l 229 385 q 481 86 229 86 q 725 375 725 86 l 725 972 l 839 972 l 839 393 m 669 1063 l 587 1063 l 475 1219 l 363 1063 l 287 1063 l 433 1288 l 523 1288 l 669 1063 z "},"Ù":{"ha":954,"x_min":115,"x_max":839,"o":"m 839 393 q 469 -16 839 -16 q 115 378 115 -16 l 115 972 l 229 972 l 229 385 q 481 86 229 86 q 725 375 725 86 l 725 972 l 839 972 l 839 393 m 563 1062 l 477 1062 l 299 1284 l 413 1284 l 563 1062 z "},"ı":{"ha":336,"x_min":113,"x_max":224,"o":"m 224 0 l 113 0 l 113 694 l 224 694 l 224 0 z "},"ˆ":{"ha":515,"x_min":62,"x_max":445,"o":"m 445 826 l 362 826 l 251 982 l 139 826 l 62 826 l 208 1051 l 298 1051 l 445 826 z "},"˜":{"ha":468,"x_min":24,"x_max":458,"o":"m 458 989 q 426 872 458 918 q 338 827 393 827 q 228 863 290 827 q 147 892 176 892 q 87 815 87 892 l 24 815 q 56 931 24 888 q 147 975 89 975 q 248 940 191 975 q 335 910 298 910 q 392 989 392 910 l 458 989 z "},"˚":{"ha":389,"x_min":56,"x_max":335,"o":"m 193 798 q 95 833 134 798 q 56 926 56 869 q 96 1024 56 987 q 197 1061 136 1061 q 296 1024 258 1061 q 335 930 335 987 q 294 836 335 873 q 193 798 252 798 m 193 1006 q 138 984 160 1006 q 117 929 117 962 q 193 853 117 853 q 249 875 227 853 q 271 929 271 897 q 249 984 271 962 q 193 1006 227 1006 z "},"¸":{"ha":285,"x_min":35,"x_max":265,"o":"m 265 -174 q 79 -293 265 -293 q 35 -292 53 -293 l 35 -231 q 82 -235 64 -235 q 178 -174 178 -235 q 90 -121 178 -121 q 62 -123 83 -121 l 62 0 l 136 0 l 136 -71 q 230 -98 195 -71 q 265 -174 265 -125 z "},"ˇ":{"ha":515,"x_min":69,"x_max":450,"o":"m 450 1050 l 305 826 l 216 826 l 69 1050 l 147 1050 l 258 895 l 370 1050 l 450 1050 z "},"Š":{"ha":738,"x_min":82,"x_max":671,"o":"m 82 39 l 82 174 q 137 137 105 153 q 205 110 170 121 q 277 92 241 98 q 343 86 313 86 q 500 125 448 86 q 552 237 552 164 q 535 306 552 277 q 487 359 517 335 q 415 405 456 383 q 325 452 373 427 q 230 504 274 477 q 153 562 186 530 q 102 634 121 594 q 83 729 83 675 q 113 845 83 795 q 189 926 142 894 q 297 973 237 958 q 421 989 358 989 q 631 954 565 989 l 631 826 q 410 886 545 886 q 335 878 372 886 q 269 852 298 870 q 221 807 239 835 q 203 739 203 779 q 217 675 203 702 q 258 625 231 648 q 324 582 285 603 q 414 536 363 561 q 513 481 466 510 q 595 418 559 453 q 651 342 630 384 q 671 245 671 300 q 643 124 671 174 q 567 43 615 74 q 457 -2 519 12 q 326 -16 395 -16 q 269 -13 302 -16 q 199 -2 235 -9 q 133 16 164 5 q 82 39 101 26 m 560 1287 l 415 1063 l 326 1063 l 179 1287 l 257 1287 l 368 1132 l 479 1287 l 560 1287 z "},"š":{"ha":589,"x_min":71,"x_max":531,"o":"m 71 25 l 71 144 q 271 77 161 77 q 417 175 417 77 q 405 222 417 203 q 371 256 392 241 q 320 283 349 271 q 258 308 292 295 q 177 345 212 326 q 119 387 142 363 q 84 440 96 410 q 72 510 72 470 q 94 596 72 559 q 154 660 117 634 q 239 698 191 685 q 338 711 287 711 q 499 680 428 711 l 499 567 q 323 617 422 617 q 267 610 292 617 q 223 590 241 603 q 196 559 205 577 q 186 519 186 541 q 196 474 186 492 q 224 441 205 456 q 271 416 243 427 q 332 391 298 404 q 415 354 378 373 q 477 312 452 336 q 517 258 503 289 q 531 186 531 228 q 508 96 531 134 q 448 33 486 58 q 360 -4 410 8 q 256 -16 311 -16 q 71 25 149 -16 m 463 1050 l 317 826 l 228 826 l 81 1050 l 159 1050 l 271 895 l 382 1050 l 463 1050 z "},"Ž":{"ha":792,"x_min":22,"x_max":762,"o":"m 762 945 l 193 103 l 749 103 l 749 0 l 22 0 l 22 32 l 587 869 l 68 869 l 68 972 l 762 972 l 762 945 m 610 1285 l 465 1061 l 376 1061 l 229 1285 l 307 1285 l 418 1130 l 530 1285 l 610 1285 z "},"ž":{"ha":628,"x_min":22,"x_max":597,"o":"m 597 663 l 186 95 l 593 95 l 593 0 l 22 0 l 22 35 l 433 600 l 61 600 l 61 694 l 597 694 l 597 663 m 530 1050 l 385 826 l 296 826 l 149 1050 l 227 1050 l 338 895 l 450 1050 l 530 1050 z "},"¦":{"ha":332,"x_min":117,"x_max":217,"o":"m 217 485 l 117 485 l 117 1062 l 217 1062 l 217 485 m 217 -327 l 117 -327 l 117 251 l 217 251 l 217 -327 z "},"Ð":{"ha":974,"x_min":19,"x_max":910,"o":"m 127 0 l 127 435 l 19 435 l 19 540 l 127 540 l 127 972 l 396 972 q 910 498 910 972 q 767 136 910 272 q 385 0 625 0 l 127 0 m 241 869 l 241 540 l 469 540 l 469 435 l 241 435 l 241 103 l 387 103 q 684 205 578 103 q 791 496 791 308 q 393 869 791 869 l 241 869 z "},"ð":{"ha":777,"x_min":65,"x_max":711,"o":"m 533 656 l 536 659 q 401 839 475 768 l 199 736 l 164 803 l 347 892 q 168 1028 267 963 l 318 1028 q 435 936 369 993 l 631 1034 l 668 970 l 489 882 q 711 357 711 673 q 623 90 711 194 q 385 -15 536 -15 q 150 80 235 -15 q 65 339 65 175 q 153 607 65 504 q 391 709 241 709 q 533 656 474 709 m 395 617 q 237 544 294 617 q 179 343 179 470 q 235 149 179 220 q 392 77 292 77 q 542 151 486 77 q 597 346 597 224 q 395 617 597 617 z "},"Ý":{"ha":768,"x_min":12,"x_max":760,"o":"m 760 972 l 439 359 l 439 0 l 325 0 l 325 357 l 12 972 l 142 972 l 359 533 q 383 473 363 525 l 385 473 q 411 533 392 496 l 639 972 l 760 972 m 564 1284 l 386 1062 l 300 1062 l 451 1284 l 564 1284 z "},"ý":{"ha":672,"x_min":9,"x_max":665,"o":"m 665 694 l 346 -111 q 106 -327 260 -327 q 33 -318 62 -327 l 33 -218 q 99 -231 69 -231 q 225 -130 183 -231 l 281 1 l 9 694 l 133 694 l 321 160 q 335 107 324 150 l 339 107 q 353 159 342 123 l 550 694 l 665 694 m 517 1048 l 339 826 l 253 826 l 404 1048 l 517 1048 z "},"Þ":{"ha":778,"x_min":127,"x_max":722,"o":"m 241 216 l 241 0 l 127 0 l 127 972 l 241 972 l 241 819 l 395 819 q 637 744 552 819 q 722 529 722 668 q 626 303 722 391 q 368 216 530 216 l 241 216 m 241 717 l 241 318 l 361 318 q 541 371 478 318 q 603 522 603 424 q 375 717 603 717 l 241 717 z "},"þ":{"ha":817,"x_min":113,"x_max":751,"o":"m 227 100 l 224 100 l 224 -319 l 113 -319 l 113 1028 l 224 1028 l 224 572 l 227 572 q 467 711 309 711 q 676 617 601 711 q 751 368 751 524 q 667 89 751 193 q 435 -16 582 -16 q 227 100 300 -16 m 224 380 l 224 283 q 280 137 224 197 q 422 77 336 77 q 580 155 523 77 q 637 370 637 232 q 584 551 637 486 q 439 617 530 617 q 283 550 342 617 q 224 380 224 482 z "},"×":{"ha":950,"x_min":182,"x_max":769,"o":"m 769 175 l 705 111 l 475 342 l 245 111 l 182 175 l 412 404 l 182 635 l 245 699 l 475 468 l 705 699 l 769 635 l 538 404 l 769 175 z "},"½":{"ha":1293,"x_min":85,"x_max":1185,"o":"m 304 396 l 218 396 l 218 878 q 195 860 210 870 q 163 841 181 850 q 124 823 144 831 q 85 810 104 814 l 85 892 q 131 908 106 898 q 178 931 155 918 q 222 957 201 943 q 258 985 243 971 l 304 985 l 304 396 m 945 972 l 363 0 l 265 0 l 848 972 l 945 972 m 1080 422 q 1075 453 1080 438 q 1058 480 1069 469 q 1029 500 1046 492 q 988 507 1011 507 q 910 489 947 507 q 841 439 873 470 l 841 538 q 911 579 871 567 q 997 591 950 591 q 1066 581 1034 591 q 1122 550 1099 570 q 1160 501 1146 530 q 1174 433 1174 471 q 1167 371 1174 399 q 1143 318 1160 343 q 1101 269 1127 292 q 1036 221 1074 245 q 981 185 1005 201 q 940 154 956 170 q 914 121 923 138 q 905 83 905 104 l 1185 83 l 1185 1 l 810 1 l 810 56 q 823 124 810 94 q 857 179 836 154 q 908 226 879 204 q 972 269 938 248 q 1025 307 1004 289 q 1059 343 1046 326 q 1076 381 1071 361 q 1080 422 1080 400 z "},"¼":{"ha":1259,"x_min":85,"x_max":1157,"o":"m 304 396 l 218 396 l 218 878 q 195 860 210 870 q 163 841 181 850 q 124 823 144 831 q 85 810 104 814 l 85 892 q 131 908 106 898 q 178 931 155 918 q 222 957 201 943 q 258 985 243 971 l 304 985 l 304 396 m 945 972 l 363 0 l 265 0 l 848 972 l 945 972 m 1082 576 l 1082 203 l 1157 203 l 1157 129 l 1082 129 l 1082 0 l 993 0 l 993 129 l 726 129 l 726 199 q 804 290 766 242 q 875 386 842 337 q 937 483 909 434 q 987 576 966 531 l 1082 576 m 993 203 l 993 456 q 943 373 966 410 q 900 307 920 337 q 859 252 879 277 q 818 203 839 227 l 993 203 z "},"¾":{"ha":1322,"x_min":87,"x_max":1201,"o":"m 87 418 l 87 514 q 235 463 157 463 q 320 488 289 463 q 351 557 351 513 q 203 652 351 652 l 146 652 l 146 732 l 200 732 q 334 823 334 732 q 236 904 334 904 q 110 857 172 904 l 110 951 q 254 986 169 986 q 376 946 331 986 q 422 840 422 905 q 323 701 422 738 l 323 699 q 444 562 444 670 q 386 432 444 482 q 232 382 328 382 q 87 418 139 382 m 993 972 l 411 0 l 313 0 l 896 972 l 993 972 m 1126 576 l 1126 203 l 1201 203 l 1201 129 l 1126 129 l 1126 0 l 1037 0 l 1037 129 l 770 129 l 770 199 q 848 290 810 242 q 919 386 886 337 q 981 483 953 434 q 1031 576 1010 531 l 1126 576 m 1037 203 l 1037 456 q 987 373 1010 410 q 944 307 964 337 q 903 252 923 277 q 862 203 883 227 l 1037 203 z "},"¯":{"ha":576,"x_min":0,"x_max":576,"o":"m 576 947 l 0 947 l 0 1028 l 576 1028 l 576 947 z "},"¤":{"ha":772,"x_min":68,"x_max":704,"o":"m 704 240 l 642 175 l 549 269 q 387 217 477 217 q 224 269 294 217 l 130 175 l 68 240 l 161 331 q 110 492 110 408 q 161 652 110 579 l 68 745 l 130 810 l 224 717 q 387 769 298 769 q 547 717 474 769 l 642 810 l 704 745 l 611 652 q 664 492 664 576 q 611 331 664 410 l 704 240 m 387 680 q 254 625 308 680 q 200 493 200 570 q 255 361 200 416 q 387 307 309 307 q 518 361 463 307 q 574 493 574 416 q 517 625 574 570 q 387 680 461 680 z "},"²":{"ha":509,"x_min":71,"x_max":446,"o":"m 341 1021 q 335 1052 341 1037 q 318 1079 330 1067 q 290 1099 307 1091 q 249 1106 272 1106 q 171 1087 208 1106 q 102 1038 134 1069 l 102 1137 q 172 1178 132 1166 q 258 1190 211 1190 q 327 1179 294 1190 q 383 1149 359 1169 q 421 1100 407 1129 q 435 1032 435 1070 q 428 970 435 998 q 404 917 420 942 q 361 868 388 891 q 297 820 335 844 q 241 784 266 800 q 200 752 217 768 q 175 720 184 736 q 166 682 166 703 l 446 682 l 446 600 l 71 600 l 71 655 q 83 723 71 692 q 118 778 96 753 q 169 825 140 803 q 233 867 199 846 q 286 906 265 888 q 319 942 307 924 q 336 980 332 960 q 341 1021 341 999 z "},"³":{"ha":509,"x_min":87,"x_max":444,"o":"m 87 621 l 87 718 q 235 666 157 666 q 320 691 289 666 q 351 760 351 717 q 203 856 351 856 l 146 856 l 146 936 l 200 936 q 334 1027 334 936 q 236 1107 334 1107 q 110 1061 172 1107 l 110 1155 q 254 1190 169 1190 q 376 1149 331 1190 q 422 1044 422 1109 q 323 905 422 941 l 323 902 q 444 765 444 873 q 386 635 444 686 q 232 585 328 585 q 87 621 139 585 z "},"¹":{"ha":488,"x_min":85,"x_max":304,"o":"m 304 600 l 218 600 l 218 1081 q 195 1064 210 1074 q 163 1044 181 1054 q 124 1026 144 1035 q 85 1013 104 1018 l 85 1095 q 131 1112 106 1101 q 178 1134 155 1122 q 222 1161 201 1147 q 258 1188 243 1175 l 304 1188 l 304 600 z "},"⮽":{"ha":1238,"x_min":117,"x_max":1121,"o":"m 184 67 l 1055 67 l 1055 937 l 184 937 l 184 67 m 117 0 l 117 1004 l 1121 1004 l 1121 0 l 117 0 m 619 549 l 880 810 l 927 762 l 667 502 l 927 241 l 880 195 l 619 454 l 359 195 l 312 241 l 572 502 l 312 762 l 359 810 l 619 549 z "},"⮾":{"ha":1238,"x_min":117,"x_max":1121,"o":"m 619 0 q 264 147 411 0 q 117 502 117 294 q 264 857 117 710 q 619 1004 411 1004 q 974 857 827 1004 q 1121 502 1121 710 q 974 147 1121 294 q 619 0 827 0 m 619 67 q 927 194 800 67 q 1055 502 1055 321 q 927 810 1055 682 q 619 937 800 937 q 312 810 439 937 q 184 502 184 682 q 312 194 184 321 q 619 67 439 67 m 619 454 l 406 241 l 359 289 l 572 502 l 359 715 l 406 762 l 619 549 l 832 762 l 880 715 l 667 502 l 880 289 l 832 241 l 619 454 z "},"⮿":{"ha":1238,"x_min":117,"x_max":1121,"o":"m 619 0 q 264 147 411 0 q 117 502 117 294 q 264 857 117 710 q 619 1004 411 1004 q 974 857 827 1004 q 1121 502 1121 710 q 974 147 1121 294 q 619 0 827 0 m 619 100 q 903 218 786 100 q 1021 502 1021 335 q 903 786 1021 669 q 619 903 786 903 q 335 786 452 903 q 218 502 218 669 q 335 218 218 335 q 619 100 453 100 m 619 431 l 441 254 l 371 324 l 548 502 l 371 680 l 441 750 l 619 573 l 797 750 l 868 680 l 690 502 l 868 324 l 797 254 l 619 431 z "},"⯊":{"ha":1238,"x_min":117,"x_max":1121,"o":"m 1121 502 l 117 502 q 165 720 124 631 q 293 884 207 810 q 619 1004 434 1004 q 945 884 804 1004 q 1073 721 1031 810 q 1121 502 1114 632 z "},"⯋":{"ha":1238,"x_min":117,"x_max":1121,"o":"m 117 502 l 1121 502 q 1073 283 1114 373 q 945 120 1031 194 q 619 0 804 0 q 294 120 434 0 q 166 283 207 194 q 117 502 125 372 z "},"⯀":{"ha":1238,"x_min":264,"x_max":974,"o":"m 264 147 l 264 857 l 974 857 l 974 147 l 264 147 z "},"⯁":{"ha":1238,"x_min":117,"x_max":1121,"o":"m 117 502 l 619 1004 l 1121 502 l 619 0 l 117 502 z "},"⯂":{"ha":1238,"x_min":142,"x_max":1097,"o":"m 324 908 l 914 908 l 1097 347 l 619 0 l 142 347 l 324 908 z "},"⯃":{"ha":1238,"x_min":155,"x_max":1082,"o":"m 155 310 l 155 694 l 427 966 l 811 966 l 1082 694 l 1082 310 l 811 38 l 427 38 l 155 310 z "},"⯄":{"ha":1238,"x_min":117,"x_max":1121,"o":"m 117 502 l 264 857 l 619 1004 l 974 857 l 1121 502 l 974 147 l 619 0 l 264 147 l 117 502 z "},"⸿":{"ha":1135,"x_min":117,"x_max":1018,"o":"m 1002 543 q 724 385 872 435 l 724 -184 l 673 -218 l 673 372 q 573 356 628 361 l 573 -184 l 523 -218 l 523 356 q 233 451 349 365 q 117 658 117 536 q 228 880 117 783 q 523 1015 339 978 l 523 1138 l 573 1171 l 573 1026 q 636 1029 604 1029 q 673 1026 656 1029 l 673 1138 l 724 1171 l 724 1023 q 1018 936 893 1003 l 974 770 l 924 770 l 926 787 q 926 806 926 797 q 886 899 926 869 q 724 954 846 928 l 724 472 q 979 576 858 485 l 1002 543 m 523 966 q 349 899 414 955 q 284 760 284 843 q 347 611 284 680 q 523 499 410 543 l 523 966 m 673 960 q 589 968 637 968 l 573 968 l 573 485 q 673 471 629 473 l 673 960 m 523 438 q 315 545 397 463 q 233 730 233 628 q 295 888 233 805 q 183 680 183 798 q 279 497 183 574 q 523 406 374 420 l 523 438 m 573 406 l 589 406 q 673 415 633 406 l 673 427 q 644 426 656 426 q 573 432 619 426 l 573 406 z "},"⯌":{"ha":1238,"x_min":117,"x_max":1121,"o":"m 627 0 l 611 0 q 463 346 611 198 q 117 494 315 494 l 117 510 q 463 658 315 510 q 611 1004 611 806 l 627 1004 q 775 658 627 806 q 1121 510 923 510 l 1121 494 q 775 346 923 494 q 627 0 627 198 z "},"⯍":{"ha":1238,"x_min":258,"x_max":980,"o":"m 270 149 l 258 161 q 399 511 399 313 q 258 859 399 706 l 270 871 q 619 730 422 730 q 968 871 816 730 l 980 859 q 839 510 839 706 q 980 161 839 313 l 968 149 q 619 290 814 290 q 270 149 423 290 z "},"⭠":{"ha":1238,"x_min":117,"x_max":1121,"o":"m 117 502 l 368 753 l 368 552 l 1121 552 l 1121 452 l 368 452 l 368 251 l 117 502 z "},"⭢":{"ha":1238,"x_min":117,"x_max":1121,"o":"m 1121 502 l 870 753 l 870 552 l 117 552 l 117 452 l 870 452 l 870 251 l 1121 502 z "},"⭡":{"ha":770,"x_min":134,"x_max":635,"o":"m 385 1004 l 635 753 l 435 753 l 435 0 l 334 0 l 334 753 l 134 753 l 385 1004 z "},"⭣":{"ha":770,"x_min":134,"x_max":635,"o":"m 385 0 l 134 251 l 334 251 l 334 1004 l 435 1004 l 435 251 l 635 251 l 385 0 z "},"⭦":{"ha":979,"x_min":117,"x_max":863,"o":"m 117 903 l 472 903 l 330 762 l 863 229 l 791 158 l 259 690 l 117 549 l 117 903 z "},"⭧":{"ha":979,"x_min":117,"x_max":863,"o":"m 863 903 l 508 903 l 650 762 l 117 229 l 189 158 l 721 690 l 863 549 l 863 903 z "},"⭩":{"ha":979,"x_min":117,"x_max":863,"o":"m 117 100 l 117 455 l 259 313 l 791 846 l 863 774 l 330 242 l 472 100 l 117 100 z "},"⭨":{"ha":979,"x_min":117,"x_max":863,"o":"m 863 100 l 863 455 l 721 313 l 189 846 l 117 774 l 650 242 l 508 100 l 863 100 z "},"⭰":{"ha":1238,"x_min":117,"x_max":1121,"o":"m 117 251 l 117 753 l 218 753 l 218 251 l 117 251 m 301 502 l 552 753 l 552 552 l 1121 552 l 1121 452 l 552 452 l 552 251 l 301 502 z "},"⭲":{"ha":1238,"x_min":117,"x_max":1121,"o":"m 1121 251 l 1121 753 l 1021 753 l 1021 251 l 1121 251 m 937 502 l 686 753 l 686 552 l 117 552 l 117 452 l 686 452 l 686 251 l 937 502 z "},"⭱":{"ha":770,"x_min":134,"x_max":635,"o":"m 134 1004 l 635 1004 l 635 903 l 134 903 l 134 1004 m 385 820 l 635 569 l 435 569 l 435 0 l 334 0 l 334 569 l 134 569 l 385 820 z "},"⭳":{"ha":770,"x_min":134,"x_max":635,"o":"m 635 0 l 134 0 l 134 100 l 635 100 l 635 0 m 385 184 l 134 435 l 334 435 l 334 1004 l 435 1004 l 435 435 l 635 435 l 385 184 z "},"⭶":{"ha":1137,"x_min":117,"x_max":1021,"o":"m 117 903 l 117 1004 l 652 1004 l 652 903 l 117 903 m 218 803 l 572 803 l 431 661 l 1021 71 l 949 0 l 359 590 l 218 448 l 218 803 z "},"⭸":{"ha":1137,"x_min":117,"x_max":1021,"o":"m 1021 100 l 1021 0 l 486 0 l 486 100 l 1021 100 m 920 201 l 566 201 l 707 343 l 117 932 l 189 1004 l 779 414 l 920 555 l 920 201 z "},"⭻":{"ha":770,"x_min":134,"x_max":635,"o":"m 385 1004 l 635 753 l 435 753 l 435 502 l 635 502 l 635 435 l 435 435 l 435 334 l 635 334 l 635 268 l 435 268 l 435 0 l 334 0 l 334 268 l 134 268 l 134 334 l 334 334 l 334 435 l 134 435 l 134 502 l 334 502 l 334 753 l 134 753 l 385 1004 z "},"⭽":{"ha":770,"x_min":134,"x_max":635,"o":"m 385 0 l 134 251 l 334 251 l 334 502 l 134 502 l 134 569 l 334 569 l 334 669 l 134 669 l 134 736 l 334 736 l 334 1004 l 435 1004 l 435 736 l 635 736 l 635 669 l 435 669 l 435 569 l 635 569 l 635 502 l 435 502 l 435 251 l 635 251 l 385 0 z "},"⭤":{"ha":770,"x_min":117,"x_max":1121,"o":"m 368 452 l 368 251 l 117 502 l 368 753 l 368 552 l 870 552 l 870 753 l 1121 502 l 870 251 l 870 452 l 368 452 z "},"⭥":{"ha":770,"x_min":134,"x_max":635,"o":"m 334 753 l 134 753 l 385 1004 l 635 753 l 435 753 l 435 251 l 635 251 l 385 0 l 134 251 l 334 251 l 334 753 z "},"⭪":{"ha":770,"x_min":117,"x_max":1121,"o":"m 117 502 l 368 753 l 368 552 l 519 552 l 519 452 l 368 452 l 368 251 l 117 502 m 586 552 l 720 552 l 720 452 l 586 452 l 586 552 m 787 552 l 920 552 l 920 452 l 787 452 l 787 552 m 987 552 l 1121 552 l 1121 452 l 987 452 l 987 552 z "},"⭬":{"ha":770,"x_min":117,"x_max":1121,"o":"m 1121 502 l 870 753 l 870 552 l 720 552 l 720 452 l 870 452 l 870 251 l 1121 502 m 652 552 l 519 552 l 519 452 l 652 452 l 652 552 m 452 552 l 318 552 l 318 452 l 452 452 l 452 552 m 251 552 l 117 552 l 117 452 l 251 452 l 251 552 z "},"⭫":{"ha":770,"x_min":134,"x_max":635,"o":"m 385 1004 l 635 753 l 435 753 l 435 602 l 334 602 l 334 753 l 134 753 l 385 1004 m 435 535 l 435 401 l 334 401 l 334 535 l 435 535 m 435 334 l 435 201 l 334 201 l 334 334 l 435 334 m 435 134 l 435 0 l 334 0 l 334 134 l 435 134 z "},"⭭":{"ha":770,"x_min":134,"x_max":635,"o":"m 385 0 l 134 251 l 334 251 l 334 401 l 435 401 l 435 251 l 635 251 l 385 0 m 334 469 l 334 602 l 435 602 l 435 469 l 334 469 m 334 669 l 334 803 l 435 803 l 435 669 l 334 669 m 334 870 l 334 1004 l 435 1004 l 435 870 l 334 870 z "},"⭍":{"ha":770,"x_min":117,"x_max":1058,"o":"m 385 0 l 385 345 l 522 208 l 816 502 l 117 502 l 619 1004 l 690 932 l 359 602 l 1058 602 l 593 137 l 729 0 l 385 0 z "},"⮠":{"ha":770,"x_min":117,"x_max":1121,"o":"m 117 502 l 368 753 l 368 552 l 1021 552 l 1021 1004 l 1121 1004 l 1121 452 l 368 452 l 368 251 l 117 502 z "},"⮡":{"ha":770,"x_min":117,"x_max":1121,"o":"m 1121 502 l 870 251 l 870 452 l 117 452 l 117 1004 l 218 1004 l 218 552 l 870 552 l 870 753 l 1121 502 z "},"⮢":{"ha":1238,"x_min":117,"x_max":1121,"o":"m 117 502 l 368 753 l 368 552 l 1121 552 l 1121 0 l 1021 0 l 1021 452 l 368 452 l 368 251 l 117 502 z "},"⮣":{"ha":1238,"x_min":117,"x_max":1121,"o":"m 1121 502 l 870 251 l 870 452 l 218 452 l 218 0 l 117 0 l 117 552 l 870 552 l 870 753 l 1121 502 z "},"⮤":{"ha":987,"x_min":134,"x_max":886,"o":"m 385 1004 l 635 753 l 435 753 l 435 100 l 886 100 l 886 0 l 334 0 l 334 753 l 134 753 l 385 1004 z "},"⮥":{"ha":987,"x_min":100,"x_max":853,"o":"m 602 1004 l 853 753 l 652 753 l 652 0 l 100 0 l 100 100 l 552 100 l 552 753 l 351 753 l 602 1004 z "},"⮦":{"ha":987,"x_min":134,"x_max":886,"o":"m 385 0 l 134 251 l 334 251 l 334 1004 l 886 1004 l 886 903 l 435 903 l 435 251 l 635 251 l 385 0 z "},"⮧":{"ha":987,"x_min":100,"x_max":853,"o":"m 602 0 l 351 251 l 552 251 l 552 903 l 100 903 l 100 1004 l 652 1004 l 652 251 l 853 251 l 602 0 z "},"⮐":{"ha":1363,"x_min":117,"x_max":1246,"o":"m 117 502 l 368 753 l 368 552 l 909 552 l 1084 903 l 845 903 l 845 1004 l 1246 1004 l 970 452 l 368 452 l 368 251 l 117 502 z "}," ":{"ha":694,"x_min":0,"x_max":0,"o":""}," ":{"ha":1389,"x_min":0,"x_max":0,"o":""}," ":{"ha":694,"x_min":0,"x_max":0,"o":""}," ":{"ha":1389,"x_min":0,"x_max":0,"o":""}," ":{"ha":466,"x_min":0,"x_max":0,"o":""}," ":{"ha":347,"x_min":0,"x_max":0,"o":""}," ":{"ha":231,"x_min":0,"x_max":0,"o":""}," ":{"ha":749,"x_min":0,"x_max":0,"o":""}," ":{"ha":301,"x_min":0,"x_max":0,"o":""}," ":{"ha":278,"x_min":0,"x_max":0,"o":""}," ":{"ha":174,"x_min":0,"x_max":0,"o":""},"​":{"ha":0,"x_min":0,"x_max":0,"o":""},"‌":{"ha":0,"x_min":-24,"x_max":24,"o":"m 24 1187 l 24 -277 l -24 -277 l -24 1187 l 24 1187 z "},"‍":{"ha":0,"x_min":-149,"x_max":149,"o":"m 24 -277 l -24 -277 l -24 984 l -115 892 l -149 925 l -33 1040 l -149 1154 l -115 1187 l 0 1071 l 115 1187 l 149 1154 l 33 1040 l 149 925 l 115 892 l 24 984 l 24 -277 z "},"‎":{"ha":0,"x_min":-24,"x_max":292,"o":"m 292 1041 l 145 896 l 112 929 l 205 1017 l 24 1017 l 24 -277 l -24 -277 l -24 1065 l 205 1065 l 112 1154 l 145 1187 l 292 1041 z "},"‏":{"ha":0,"x_min":-292,"x_max":24,"o":"m 24 -277 l -24 -277 l -24 1017 l -205 1017 l -112 929 l -145 896 l -292 1041 l -145 1187 l -112 1154 l -205 1065 l 24 1065 l 24 -277 z "},"‐":{"ha":555,"x_min":98,"x_max":468,"o":"m 468 343 l 98 343 l 98 431 l 468 431 l 468 343 z "},"‑":{"ha":555,"x_min":98,"x_max":468,"o":"m 468 343 l 98 343 l 98 431 l 468 431 l 468 343 z "},"‒":{"ha":950,"x_min":157,"x_max":795,"o":"m 795 359 l 157 359 l 157 450 l 795 450 l 795 359 z "},"―":{"ha":1389,"x_min":0,"x_max":1389,"o":"m 1389 343 l 0 343 l 0 431 l 1389 431 l 1389 343 z "},"‖":{"ha":550,"x_min":117,"x_max":433,"o":"m 217 -327 l 117 -327 l 117 1062 l 217 1062 l 217 -327 m 433 -327 l 333 -327 l 333 1062 l 433 1062 l 433 -327 z "},"‗":{"ha":576,"x_min":0,"x_max":576,"o":"m 0 -188 l 0 -107 l 576 -107 l 576 -188 l 0 -188 m 0 -349 l 0 -268 l 576 -268 l 576 -349 l 0 -349 z "},"‛":{"ha":318,"x_min":75,"x_max":250,"o":"m 250 686 l 171 686 l 75 989 l 175 989 l 250 686 z "},"‟":{"ha":524,"x_min":68,"x_max":449,"o":"m 170 989 l 243 686 l 163 686 l 68 989 l 170 989 m 374 989 l 449 686 l 369 686 l 274 989 l 374 989 z "},"‣":{"ha":564,"x_min":111,"x_max":453,"o":"m 111 277 l 111 618 l 453 446 l 111 277 z "},"․":{"ha":338,"x_min":95,"x_max":243,"o":"m 168 -12 q 116 9 137 -12 q 95 62 95 31 q 116 116 95 94 q 168 139 137 139 q 221 116 199 139 q 243 62 243 94 q 221 9 243 31 q 168 -12 199 -12 z "},"‥":{"ha":678,"x_min":95,"x_max":583,"o":"m 509 -12 q 455 9 477 -12 q 433 62 433 31 q 455 116 433 94 q 509 139 477 139 q 561 116 539 139 q 583 62 583 94 q 561 9 583 31 q 509 -12 539 -12 m 168 -12 q 116 9 137 -12 q 95 62 95 31 q 116 116 95 94 q 168 139 137 139 q 221 116 199 139 q 243 62 243 94 q 221 9 243 31 q 168 -12 199 -12 z "},"‧":{"ha":301,"x_min":76,"x_max":228,"o":"m 151 346 q 98 368 120 346 q 76 422 76 391 q 98 476 76 454 q 151 498 120 498 q 205 476 183 498 q 228 422 228 454 q 205 368 228 391 q 151 346 183 346 z "}," ":{"ha":1748,"x_min":68,"x_max":1680,"o":"m 68 1029 l 68 1286 l 325 1286 l 325 1193 l 161 1193 l 161 1029 l 68 1029 m 1423 1193 l 1423 1286 l 1680 1286 l 1680 1029 l 1586 1029 l 1586 1193 l 1423 1193 m 68 -326 l 68 -68 l 161 -68 l 161 -232 l 325 -232 l 325 -326 l 68 -326 m 1423 -326 l 1423 -232 l 1586 -232 l 1586 -68 l 1680 -68 l 1680 -326 l 1423 -326 m 1090 -326 l 1090 -232 l 1320 -232 l 1320 -326 l 1090 -326 m 427 -326 l 427 -232 l 656 -232 l 656 -326 l 427 -326 m 427 1193 l 427 1286 l 656 1286 l 656 1193 l 427 1193 m 1680 33 l 1586 33 l 1586 263 l 1680 263 l 1680 33 m 1680 697 l 1586 697 l 1586 927 l 1680 927 l 1680 697 m 759 -326 l 759 -232 l 989 -232 l 989 -326 l 759 -326 m 161 33 l 68 33 l 68 263 l 161 263 l 161 33 m 759 1193 l 759 1286 l 989 1286 l 989 1193 l 759 1193 m 1090 1193 l 1090 1286 l 1320 1286 l 1320 1193 l 1090 1193 m 161 366 l 68 366 l 68 595 l 161 595 l 161 366 m 161 697 l 68 697 l 68 927 l 161 927 l 161 697 m 1680 366 l 1586 366 l 1586 595 l 1680 595 l 1680 366 m 732 550 l 732 1036 l 813 1036 l 813 620 l 1004 620 l 1004 550 l 732 550 m 732 -51 l 732 435 l 996 435 l 996 366 l 813 366 l 813 229 l 983 229 l 983 160 l 813 160 l 813 19 l 1007 19 l 1007 -51 l 732 -51 m 640 79 q 631 27 640 52 q 601 -17 622 3 q 547 -47 581 -36 q 467 -59 514 -59 q 434 -57 451 -59 q 401 -50 417 -54 q 372 -41 385 -46 q 351 -30 359 -35 l 351 58 q 378 38 363 47 q 410 23 393 29 q 443 14 427 17 q 475 10 460 10 q 514 16 498 10 q 538 30 529 21 q 550 49 547 38 q 553 71 553 60 q 548 97 553 85 q 531 120 543 109 q 501 143 519 132 q 457 168 483 155 q 405 201 426 184 q 372 234 385 217 q 354 270 359 252 q 349 309 349 288 q 360 363 349 338 q 394 406 372 388 q 446 434 416 424 q 513 444 476 444 q 546 443 530 444 q 576 438 562 441 q 602 432 591 435 q 619 426 613 429 l 619 341 q 571 367 600 357 q 514 376 543 376 q 455 358 476 376 q 435 315 435 341 q 439 288 435 300 q 453 267 444 277 q 479 246 463 256 q 519 223 496 235 q 609 159 578 192 q 640 79 640 126 m 1432 285 q 1420 222 1432 252 q 1384 171 1408 193 q 1326 137 1360 149 q 1246 124 1291 124 l 1189 124 l 1189 -51 l 1108 -51 l 1108 435 l 1259 435 q 1389 395 1346 435 q 1432 285 1432 354 m 1348 282 q 1322 345 1348 321 q 1244 368 1297 368 l 1189 368 l 1189 193 l 1241 193 q 1319 215 1291 193 q 1348 282 1348 237 z "}," ":{"ha":1748,"x_min":68,"x_max":1680,"o":"m 68 1029 l 68 1286 l 325 1286 l 325 1193 l 161 1193 l 161 1029 l 68 1029 m 1423 1193 l 1423 1286 l 1680 1286 l 1680 1029 l 1586 1029 l 1586 1193 l 1423 1193 m 68 -326 l 68 -68 l 161 -68 l 161 -232 l 325 -232 l 325 -326 l 68 -326 m 1423 -326 l 1423 -232 l 1586 -232 l 1586 -68 l 1680 -68 l 1680 -326 l 1423 -326 m 1090 -326 l 1090 -232 l 1320 -232 l 1320 -326 l 1090 -326 m 427 -326 l 427 -232 l 656 -232 l 656 -326 l 427 -326 m 427 1193 l 427 1286 l 656 1286 l 656 1193 l 427 1193 m 1680 33 l 1586 33 l 1586 263 l 1680 263 l 1680 33 m 1680 697 l 1586 697 l 1586 927 l 1680 927 l 1680 697 m 759 -326 l 759 -232 l 989 -232 l 989 -326 l 759 -326 m 161 33 l 68 33 l 68 263 l 161 263 l 161 33 m 759 1193 l 759 1286 l 989 1286 l 989 1193 l 759 1193 m 1090 1193 l 1090 1286 l 1320 1286 l 1320 1193 l 1090 1193 m 161 366 l 68 366 l 68 595 l 161 595 l 161 366 m 161 697 l 68 697 l 68 927 l 161 927 l 161 697 m 1680 366 l 1586 366 l 1586 595 l 1680 595 l 1680 366 m 732 -51 l 732 435 l 996 435 l 996 366 l 813 366 l 813 229 l 983 229 l 983 160 l 813 160 l 813 19 l 1007 19 l 1007 -51 l 732 -51 m 640 79 q 631 27 640 52 q 601 -17 622 3 q 547 -47 581 -36 q 467 -59 514 -59 q 434 -57 451 -59 q 401 -50 417 -54 q 372 -41 385 -46 q 351 -30 359 -35 l 351 58 q 378 38 363 47 q 410 23 393 29 q 443 14 427 17 q 475 10 460 10 q 514 16 498 10 q 538 30 529 21 q 550 49 547 38 q 553 71 553 60 q 548 97 553 85 q 531 120 543 109 q 501 143 519 132 q 457 168 483 155 q 405 201 426 184 q 372 234 385 217 q 354 270 359 252 q 349 309 349 288 q 360 363 349 338 q 394 406 372 388 q 446 434 416 424 q 513 444 476 444 q 546 443 530 444 q 576 438 562 441 q 602 432 591 435 q 619 426 613 429 l 619 341 q 571 367 600 357 q 514 376 543 376 q 455 358 476 376 q 435 315 435 341 q 439 288 435 300 q 453 267 444 277 q 479 246 463 256 q 519 223 496 235 q 609 159 578 192 q 640 79 640 126 m 1432 285 q 1420 222 1432 252 q 1384 171 1408 193 q 1326 137 1360 149 q 1246 124 1291 124 l 1189 124 l 1189 -51 l 1108 -51 l 1108 435 l 1259 435 q 1389 395 1346 435 q 1432 285 1432 354 m 1348 282 q 1322 345 1348 321 q 1244 368 1297 368 l 1189 368 l 1189 193 l 1241 193 q 1319 215 1291 193 q 1348 282 1348 237 m 1059 886 q 1046 823 1059 852 q 1010 772 1034 794 q 952 738 987 750 q 873 725 918 725 l 815 725 l 815 550 l 734 550 l 734 1036 l 885 1036 q 1016 996 972 1036 q 1059 886 1059 955 m 974 883 q 948 945 974 922 q 871 968 923 968 l 815 968 l 815 793 l 867 793 q 946 816 918 793 q 974 883 974 838 z "},"‪":{"ha":1748,"x_min":68,"x_max":1680,"o":"m 68 1029 l 68 1286 l 325 1286 l 325 1193 l 161 1193 l 161 1029 l 68 1029 m 1423 1193 l 1423 1286 l 1680 1286 l 1680 1029 l 1586 1029 l 1586 1193 l 1423 1193 m 68 -326 l 68 -68 l 161 -68 l 161 -232 l 325 -232 l 325 -326 l 68 -326 m 1423 -326 l 1423 -232 l 1586 -232 l 1586 -68 l 1680 -68 l 1680 -326 l 1423 -326 m 1090 -326 l 1090 -232 l 1320 -232 l 1320 -326 l 1090 -326 m 427 -326 l 427 -232 l 656 -232 l 656 -326 l 427 -326 m 427 1193 l 427 1286 l 656 1286 l 656 1193 l 427 1193 m 1680 33 l 1586 33 l 1586 263 l 1680 263 l 1680 33 m 1680 697 l 1586 697 l 1586 927 l 1680 927 l 1680 697 m 759 -326 l 759 -232 l 989 -232 l 989 -326 l 759 -326 m 161 33 l 68 33 l 68 263 l 161 263 l 161 33 m 759 1193 l 759 1286 l 989 1286 l 989 1193 l 759 1193 m 1090 1193 l 1090 1286 l 1320 1286 l 1320 1193 l 1090 1193 m 161 366 l 68 366 l 68 595 l 161 595 l 161 366 m 161 697 l 68 697 l 68 927 l 161 927 l 161 697 m 1680 366 l 1586 366 l 1586 595 l 1680 595 l 1680 366 m 353 243 l 353 729 l 433 729 l 433 313 l 624 313 l 624 243 l 353 243 m 1125 243 l 1125 729 l 1388 729 l 1388 660 l 1206 660 l 1206 523 l 1375 523 l 1375 454 l 1206 454 l 1206 313 l 1400 313 l 1400 243 l 1125 243 m 949 243 l 890 383 q 859 427 876 414 q 823 440 842 440 l 785 440 l 785 243 l 705 243 l 705 729 l 862 729 q 932 720 902 729 q 982 693 962 710 q 1012 651 1002 675 q 1022 598 1022 627 q 993 510 1022 545 q 916 464 964 475 l 916 463 q 947 439 932 457 q 970 402 961 420 l 1044 243 l 949 243 m 937 590 q 916 642 937 623 q 850 662 894 662 l 785 662 l 785 508 l 848 508 q 885 514 869 508 q 913 532 902 521 q 931 558 925 543 q 937 590 937 573 z "},"‫":{"ha":1748,"x_min":68,"x_max":1680,"o":"m 68 1029 l 68 1286 l 325 1286 l 325 1193 l 161 1193 l 161 1029 l 68 1029 m 1423 1193 l 1423 1286 l 1680 1286 l 1680 1029 l 1586 1029 l 1586 1193 l 1423 1193 m 68 -326 l 68 -68 l 161 -68 l 161 -232 l 325 -232 l 325 -326 l 68 -326 m 1423 -326 l 1423 -232 l 1586 -232 l 1586 -68 l 1680 -68 l 1680 -326 l 1423 -326 m 1090 -326 l 1090 -232 l 1320 -232 l 1320 -326 l 1090 -326 m 427 -326 l 427 -232 l 656 -232 l 656 -326 l 427 -326 m 427 1193 l 427 1286 l 656 1286 l 656 1193 l 427 1193 m 1680 33 l 1586 33 l 1586 263 l 1680 263 l 1680 33 m 1680 697 l 1586 697 l 1586 927 l 1680 927 l 1680 697 m 759 -326 l 759 -232 l 989 -232 l 989 -326 l 759 -326 m 161 33 l 68 33 l 68 263 l 161 263 l 161 33 m 759 1193 l 759 1286 l 989 1286 l 989 1193 l 759 1193 m 1090 1193 l 1090 1286 l 1320 1286 l 1320 1193 l 1090 1193 m 161 366 l 68 366 l 68 595 l 161 595 l 161 366 m 161 697 l 68 697 l 68 927 l 161 927 l 161 697 m 1680 366 l 1586 366 l 1586 595 l 1680 595 l 1680 366 m 770 243 l 770 729 l 851 729 l 851 313 l 1042 313 l 1042 243 l 770 243 m 1125 243 l 1125 729 l 1388 729 l 1388 660 l 1206 660 l 1206 523 l 1375 523 l 1375 454 l 1206 454 l 1206 313 l 1400 313 l 1400 243 l 1125 243 m 597 243 l 538 383 q 507 427 524 414 q 471 440 490 440 l 433 440 l 433 243 l 353 243 l 353 729 l 510 729 q 580 720 550 729 q 630 693 610 710 q 660 651 650 675 q 670 598 670 627 q 641 510 670 545 q 564 464 612 475 l 564 463 q 595 439 581 457 q 618 402 609 420 l 692 243 l 597 243 m 585 590 q 564 642 585 623 q 498 662 542 662 l 433 662 l 433 508 l 496 508 q 533 514 517 508 q 562 532 550 521 q 579 558 573 543 q 585 590 585 573 z "},"‬":{"ha":1748,"x_min":68,"x_max":1680,"o":"m 68 1029 l 68 1286 l 325 1286 l 325 1193 l 161 1193 l 161 1029 l 68 1029 m 1423 1193 l 1423 1286 l 1680 1286 l 1680 1029 l 1586 1029 l 1586 1193 l 1423 1193 m 68 -326 l 68 -68 l 161 -68 l 161 -232 l 325 -232 l 325 -326 l 68 -326 m 1423 -326 l 1423 -232 l 1586 -232 l 1586 -68 l 1680 -68 l 1680 -326 l 1423 -326 m 1090 -326 l 1090 -232 l 1320 -232 l 1320 -326 l 1090 -326 m 427 -326 l 427 -232 l 656 -232 l 656 -326 l 427 -326 m 427 1193 l 427 1286 l 656 1286 l 656 1193 l 427 1193 m 1680 33 l 1586 33 l 1586 263 l 1680 263 l 1680 33 m 1680 697 l 1586 697 l 1586 927 l 1680 927 l 1680 697 m 759 -326 l 759 -232 l 989 -232 l 989 -326 l 759 -326 m 161 33 l 68 33 l 68 263 l 161 263 l 161 33 m 759 1193 l 759 1286 l 989 1286 l 989 1193 l 759 1193 m 1090 1193 l 1090 1286 l 1320 1286 l 1320 1193 l 1090 1193 m 161 366 l 68 366 l 68 595 l 161 595 l 161 366 m 161 697 l 68 697 l 68 927 l 161 927 l 161 697 m 1680 366 l 1586 366 l 1586 595 l 1680 595 l 1680 366 m 629 578 q 616 516 629 545 q 581 465 604 487 q 522 430 557 443 q 443 418 488 418 l 385 418 l 385 243 l 304 243 l 304 729 l 455 729 q 586 688 543 729 q 629 578 629 648 m 544 576 q 518 638 544 615 q 441 661 493 661 l 385 661 l 385 486 l 437 486 q 516 509 488 486 q 544 576 544 531 m 1116 492 q 1097 390 1116 436 q 1044 311 1078 344 q 960 261 1009 279 q 851 243 911 243 l 705 243 l 705 729 l 855 729 q 1051 669 986 729 q 1116 492 1116 609 m 1030 491 q 985 616 1030 572 q 852 660 939 660 l 785 660 l 785 313 l 850 313 q 927 325 894 313 q 984 361 961 338 q 1019 417 1007 385 q 1030 491 1030 450 m 1269 660 l 1269 516 l 1438 516 l 1438 446 l 1269 446 l 1269 243 l 1188 243 l 1188 729 l 1451 729 l 1451 660 l 1269 660 z "},"‭":{"ha":1748,"x_min":68,"x_max":1680,"o":"m 68 1029 l 68 1286 l 325 1286 l 325 1193 l 161 1193 l 161 1029 l 68 1029 m 1423 1193 l 1423 1286 l 1680 1286 l 1680 1029 l 1586 1029 l 1586 1193 l 1423 1193 m 68 -326 l 68 -68 l 161 -68 l 161 -232 l 325 -232 l 325 -326 l 68 -326 m 1423 -326 l 1423 -232 l 1586 -232 l 1586 -68 l 1680 -68 l 1680 -326 l 1423 -326 m 1090 -326 l 1090 -232 l 1320 -232 l 1320 -326 l 1090 -326 m 427 -326 l 427 -232 l 656 -232 l 656 -326 l 427 -326 m 427 1193 l 427 1286 l 656 1286 l 656 1193 l 427 1193 m 1680 33 l 1586 33 l 1586 263 l 1680 263 l 1680 33 m 1680 697 l 1586 697 l 1586 927 l 1680 927 l 1680 697 m 759 -326 l 759 -232 l 989 -232 l 989 -326 l 759 -326 m 161 33 l 68 33 l 68 263 l 161 263 l 161 33 m 759 1193 l 759 1286 l 989 1286 l 989 1193 l 759 1193 m 1090 1193 l 1090 1286 l 1320 1286 l 1320 1193 l 1090 1193 m 161 366 l 68 366 l 68 595 l 161 595 l 161 366 m 161 697 l 68 697 l 68 927 l 161 927 l 161 697 m 1680 366 l 1586 366 l 1586 595 l 1680 595 l 1680 366 m 305 243 l 305 729 l 386 729 l 386 313 l 576 313 l 576 243 l 305 243 m 895 243 l 836 383 q 805 427 822 414 q 768 440 788 440 l 731 440 l 731 243 l 650 243 l 650 729 l 808 729 q 878 720 848 729 q 928 693 908 710 q 958 651 948 675 q 968 598 968 627 q 939 510 968 545 q 861 464 910 475 l 861 463 q 892 439 878 457 q 916 402 907 420 l 990 243 l 895 243 m 883 590 q 861 642 883 623 q 795 662 840 662 l 731 662 l 731 508 l 794 508 q 831 514 814 508 q 859 532 848 521 q 877 558 871 543 q 883 590 883 573 m 1489 492 q 1472 385 1489 433 q 1424 304 1455 338 q 1350 253 1393 271 q 1253 235 1306 235 q 1158 253 1200 235 q 1085 303 1116 271 q 1039 381 1055 336 q 1022 480 1022 426 q 1038 583 1022 536 q 1084 665 1054 631 q 1159 719 1115 699 q 1261 738 1204 738 q 1353 720 1312 738 q 1425 670 1395 703 q 1472 593 1455 638 q 1489 492 1489 547 m 1403 484 q 1393 563 1403 529 q 1363 621 1382 597 q 1317 655 1344 644 q 1257 667 1291 667 q 1195 653 1223 667 q 1148 616 1167 640 q 1118 559 1128 592 q 1107 487 1107 526 q 1119 411 1107 444 q 1149 354 1130 378 q 1196 319 1169 331 q 1254 307 1223 307 q 1315 318 1287 307 q 1362 351 1342 329 q 1392 407 1381 374 q 1403 484 1403 440 z "},"‮":{"ha":1748,"x_min":68,"x_max":1680,"o":"m 68 1029 l 68 1286 l 325 1286 l 325 1193 l 161 1193 l 161 1029 l 68 1029 m 1423 1193 l 1423 1286 l 1680 1286 l 1680 1029 l 1586 1029 l 1586 1193 l 1423 1193 m 68 -326 l 68 -68 l 161 -68 l 161 -232 l 325 -232 l 325 -326 l 68 -326 m 1423 -326 l 1423 -232 l 1586 -232 l 1586 -68 l 1680 -68 l 1680 -326 l 1423 -326 m 1090 -326 l 1090 -232 l 1320 -232 l 1320 -326 l 1090 -326 m 427 -326 l 427 -232 l 656 -232 l 656 -326 l 427 -326 m 427 1193 l 427 1286 l 656 1286 l 656 1193 l 427 1193 m 1680 33 l 1586 33 l 1586 263 l 1680 263 l 1680 33 m 1680 697 l 1586 697 l 1586 927 l 1680 927 l 1680 697 m 759 -326 l 759 -232 l 989 -232 l 989 -326 l 759 -326 m 161 33 l 68 33 l 68 263 l 161 263 l 161 33 m 759 1193 l 759 1286 l 989 1286 l 989 1193 l 759 1193 m 1090 1193 l 1090 1286 l 1320 1286 l 1320 1193 l 1090 1193 m 161 366 l 68 366 l 68 595 l 161 595 l 161 366 m 161 697 l 68 697 l 68 927 l 161 927 l 161 697 m 1680 366 l 1586 366 l 1586 595 l 1680 595 l 1680 366 m 716 243 l 716 729 l 797 729 l 797 313 l 987 313 l 987 243 l 716 243 m 550 243 l 491 383 q 460 427 477 414 q 424 440 444 440 l 387 440 l 387 243 l 306 243 l 306 729 l 463 729 q 533 720 503 729 q 584 693 564 710 q 613 651 604 675 q 623 598 623 627 q 594 510 623 545 q 517 464 566 475 l 517 463 q 548 439 534 457 q 572 402 563 421 l 646 243 l 550 243 m 538 590 q 517 642 538 623 q 451 662 495 662 l 387 662 l 387 508 l 450 508 q 487 514 470 508 q 515 532 503 521 q 532 558 526 543 q 538 590 538 573 m 1468 492 q 1451 385 1468 433 q 1403 304 1434 338 q 1329 253 1373 271 q 1232 235 1286 235 q 1138 253 1180 235 q 1065 303 1095 271 q 1018 381 1035 336 q 1002 480 1002 426 q 1018 583 1002 536 q 1064 665 1034 631 q 1139 719 1095 699 q 1240 738 1183 738 q 1333 720 1291 738 q 1405 670 1375 703 q 1452 593 1435 638 q 1468 492 1468 547 m 1383 484 q 1372 563 1383 529 q 1343 621 1362 597 q 1297 655 1324 644 q 1237 667 1270 667 q 1175 653 1202 667 q 1127 616 1147 640 q 1098 559 1108 592 q 1087 487 1087 526 q 1098 411 1087 444 q 1129 354 1109 378 q 1176 319 1149 331 q 1234 307 1202 307 q 1294 318 1267 307 q 1341 351 1322 329 q 1372 407 1361 374 q 1383 484 1383 440 z "}," ":{"ha":380,"x_min":0,"x_max":0,"o":""},"‱":{"ha":2222,"x_min":54,"x_max":2167,"o":"m 274 485 q 114 551 174 485 q 54 728 54 617 q 117 918 54 848 q 288 987 180 987 q 449 923 391 987 q 506 742 506 859 q 442 555 506 625 q 274 485 378 485 m 283 913 q 182 865 219 913 q 144 734 144 817 q 181 606 144 652 q 281 560 218 560 q 380 608 345 560 q 416 739 416 655 q 381 867 416 821 q 283 913 345 913 m 926 972 l 301 -7 l 204 -7 l 829 972 l 926 972 m 1394 -15 q 1234 52 1294 -15 q 1175 228 1175 118 q 1239 418 1175 348 q 1408 489 1303 489 q 1569 424 1512 489 q 1626 241 1626 359 q 1563 55 1626 125 q 1394 -15 1499 -15 m 1404 412 q 1302 365 1339 412 q 1265 233 1265 317 q 1302 106 1265 152 q 1401 61 1338 61 q 1501 109 1466 61 q 1537 240 1537 157 q 1501 367 1537 322 q 1404 412 1466 412 m 853 -15 q 693 52 753 -15 q 633 228 633 118 q 697 419 633 349 q 867 489 761 489 q 1027 424 970 489 q 1085 241 1085 359 q 1021 55 1085 125 q 853 -15 957 -15 m 863 412 q 761 365 798 412 q 724 233 724 317 q 760 107 724 153 q 860 61 797 61 q 960 109 924 61 q 996 240 996 157 q 960 368 996 323 q 863 412 924 412 m 1935 -15 q 1775 52 1835 -15 q 1716 228 1716 118 q 1780 418 1716 348 q 1949 489 1844 489 q 2110 424 2053 489 q 2167 241 2167 359 q 2104 55 2167 125 q 1935 -15 2040 -15 m 1945 412 q 1843 365 1880 412 q 1807 233 1807 317 q 1843 106 1807 152 q 1942 61 1879 61 q 2043 109 2007 61 q 2079 240 2079 157 q 2043 367 2079 322 q 1945 412 2007 412 z "},"′":{"ha":318,"x_min":88,"x_max":237,"o":"m 237 972 l 167 669 l 88 669 l 146 972 l 237 972 z "},"″":{"ha":524,"x_min":96,"x_max":437,"o":"m 437 972 l 365 669 l 286 669 l 345 972 l 437 972 m 245 972 l 174 669 l 96 669 l 153 972 l 245 972 z "},"‴":{"ha":715,"x_min":96,"x_max":628,"o":"m 245 972 l 174 669 l 96 669 l 153 972 l 245 972 m 628 972 l 556 669 l 477 669 l 536 972 l 628 972 m 436 972 l 365 669 l 287 669 l 345 972 l 436 972 z "},"‵":{"ha":318,"x_min":81,"x_max":230,"o":"m 172 972 l 230 669 l 151 669 l 81 972 l 172 972 z "},"‶":{"ha":524,"x_min":87,"x_max":428,"o":"m 179 972 l 237 669 l 159 669 l 87 972 l 179 972 m 370 972 l 428 669 l 350 669 l 279 972 l 370 972 z "},"‷":{"ha":715,"x_min":87,"x_max":619,"o":"m 562 972 l 619 669 l 541 669 l 470 972 l 562 972 m 179 972 l 237 669 l 159 669 l 87 972 l 179 972 m 370 972 l 428 669 l 350 669 l 279 972 l 370 972 z "},"‸":{"ha":439,"x_min":29,"x_max":410,"o":"m 330 0 l 218 155 l 107 0 l 29 0 l 176 224 l 265 224 l 410 0 l 330 0 z "},"※":{"ha":1389,"x_min":268,"x_max":1122,"o":"m 1121 784 l 759 422 l 1122 60 l 1054 0 l 694 358 l 335 0 l 270 63 l 630 422 l 268 783 l 333 847 l 694 487 l 1056 848 l 1121 784 m 344 349 q 315 354 328 349 q 292 370 302 360 q 276 394 282 380 q 271 423 271 408 q 276 453 271 439 q 292 477 282 467 q 315 494 302 488 q 344 500 328 500 q 372 494 359 500 q 396 477 386 488 q 412 452 406 466 q 418 423 418 438 q 413 394 418 408 q 397 370 407 380 q 373 354 387 360 q 344 349 359 349 m 1044 349 q 1015 354 1028 349 q 992 370 1002 360 q 976 394 982 380 q 970 423 970 408 q 976 453 970 439 q 992 477 982 467 q 1015 494 1002 488 q 1044 500 1028 500 q 1072 494 1059 500 q 1096 477 1086 488 q 1112 452 1106 466 q 1118 423 1118 438 q 1113 394 1118 408 q 1097 370 1107 380 q 1073 354 1086 360 q 1044 349 1059 349 m 770 73 q 764 44 770 58 q 748 21 758 31 q 724 6 738 12 q 695 0 711 0 q 666 6 680 0 q 641 21 652 12 q 625 44 631 31 q 618 73 618 58 q 625 102 618 88 q 642 125 631 115 q 666 142 652 136 q 695 148 680 148 q 724 142 711 148 q 748 126 738 136 q 764 102 758 116 q 770 73 770 89 m 770 773 q 764 744 770 758 q 748 721 758 731 q 724 706 738 711 q 695 700 711 700 q 666 706 680 700 q 641 721 652 711 q 625 744 631 731 q 618 773 618 758 q 625 802 618 788 q 642 825 631 815 q 666 842 652 836 q 695 848 680 848 q 724 842 711 848 q 748 826 738 836 q 764 802 758 816 q 770 773 770 789 z "},"‼":{"ha":667,"x_min":122,"x_max":545,"o":"m 254 972 l 241 274 l 150 274 l 138 972 l 254 972 m 197 -12 q 144 9 166 -12 q 122 62 122 31 q 144 116 122 94 q 197 138 166 138 q 250 116 228 138 q 273 62 273 94 q 250 9 273 31 q 197 -12 228 -12 m 526 972 l 513 274 l 422 274 l 410 972 l 526 972 m 469 -12 q 416 9 438 -12 q 394 62 394 31 q 416 116 394 94 q 469 138 438 138 q 522 116 500 138 q 545 62 545 94 q 522 9 545 31 q 469 -12 500 -12 z "},"‽":{"ha":623,"x_min":70,"x_max":560,"o":"m 70 804 l 70 924 q 122 952 96 940 q 177 972 149 964 q 237 985 205 981 q 304 989 268 989 q 402 975 355 989 q 484 935 448 962 q 539 868 519 908 q 560 775 560 828 q 543 686 560 725 q 499 615 526 648 q 443 555 473 583 q 386 499 412 528 q 342 439 360 471 q 323 368 324 408 l 321 274 l 230 274 l 219 884 q 140 851 178 873 q 70 804 102 830 m 451 768 q 419 849 451 817 q 333 890 388 881 l 327 554 q 377 607 354 583 q 416 655 400 631 q 442 707 433 680 q 451 768 451 734 m 288 -12 q 235 9 259 -12 q 213 62 213 31 q 235 115 213 94 q 288 138 258 138 q 341 115 319 138 q 363 62 363 94 q 341 9 363 31 q 288 -12 317 -12 z "},"‾":{"ha":576,"x_min":0,"x_max":576,"o":"m 576 947 l 0 947 l 0 1028 l 576 1028 l 576 947 z "},"‿":{"ha":1105,"x_min":14,"x_max":1092,"o":"m 553 -200 q 982 -25 854 -200 l 1092 -25 q 553 -283 930 -283 q 14 -25 176 -283 l 123 -25 q 553 -200 250 -200 z "},"⁀":{"ha":1105,"x_min":14,"x_max":1092,"o":"m 982 998 q 553 1173 854 1173 q 123 998 250 1173 l 14 998 q 553 1255 176 1255 q 1092 998 930 1255 l 982 998 z "},"⁁":{"ha":888,"x_min":143,"x_max":745,"o":"m 657 803 l 728 755 l 467 362 l 745 42 l 677 -16 l 416 285 l 218 -16 l 143 27 l 657 803 z "},"⁂":{"ha":1244,"x_min":62,"x_max":1183,"o":"m 864 804 l 678 766 l 807 602 l 732 550 l 627 730 l 519 550 l 445 602 l 574 766 l 387 804 l 417 889 l 595 822 l 579 1028 l 673 1028 l 657 822 l 836 889 l 864 804 m 1183 253 l 997 215 l 1126 50 l 1051 -1 l 945 178 l 838 -1 l 764 50 l 892 215 l 705 253 l 736 338 l 913 271 l 898 477 l 991 477 l 976 271 l 1154 338 l 1183 253 m 539 253 l 353 215 l 482 50 l 408 -1 l 302 178 l 195 -1 l 120 50 l 249 215 l 62 253 l 92 338 l 270 271 l 254 477 l 348 477 l 332 271 l 511 338 l 539 253 z "},"⁃":{"ha":555,"x_min":98,"x_max":468,"o":"m 468 302 l 98 302 l 98 471 l 468 471 l 468 302 z "},"⁄":{"ha":240,"x_min":-212,"x_max":468,"o":"m 468 972 l -114 0 l -212 0 l 371 972 l 468 972 z "},"⁅":{"ha":419,"x_min":136,"x_max":385,"o":"m 385 -221 l 136 -221 l 136 972 l 385 972 l 385 892 l 235 892 l 235 416 l 385 416 l 385 336 l 235 336 l 235 -140 l 385 -140 l 385 -221 z "},"⁆":{"ha":419,"x_min":35,"x_max":285,"o":"m 186 336 l 35 336 l 35 416 l 186 416 l 186 892 l 36 892 l 36 972 l 285 972 l 285 -221 l 36 -221 l 36 -140 l 186 -140 l 186 336 z "},"⁇":{"ha":1156,"x_min":89,"x_max":1088,"o":"m 227 270 q 216 316 221 288 q 212 372 212 344 q 229 450 212 415 q 272 515 246 485 q 328 574 298 546 q 385 631 359 602 q 428 691 410 660 q 445 761 445 723 q 432 819 445 793 q 398 861 420 844 q 348 886 376 878 q 288 895 319 895 q 89 804 173 895 l 89 924 q 304 989 193 989 q 401 975 355 989 q 480 935 446 962 q 534 868 515 908 q 554 775 554 828 q 536 686 554 725 q 492 613 519 646 q 434 552 465 581 q 376 495 403 524 q 332 437 349 467 q 314 370 314 406 q 321 313 314 338 q 336 270 329 288 l 227 270 m 288 -12 q 235 9 258 -12 q 213 62 213 31 q 235 115 213 94 q 288 138 258 138 q 341 115 319 138 q 363 62 363 94 q 341 9 363 31 q 288 -12 318 -12 m 761 270 q 750 316 755 288 q 745 372 745 344 q 763 450 745 415 q 806 515 780 485 q 862 574 831 546 q 918 631 892 602 q 961 691 944 660 q 979 761 979 723 q 966 819 979 793 q 932 861 954 844 q 882 886 910 878 q 821 895 853 895 q 623 804 707 895 l 623 924 q 838 989 726 989 q 935 975 889 989 q 1014 935 980 962 q 1068 868 1048 908 q 1088 775 1088 828 q 1070 686 1088 725 q 1026 613 1053 646 q 968 552 999 581 q 910 495 937 524 q 865 437 883 467 q 848 370 848 406 q 855 313 848 338 q 870 270 863 288 l 761 270 m 822 -12 q 769 9 792 -12 q 747 62 747 31 q 769 115 747 94 q 822 138 791 138 q 875 115 852 138 q 897 62 897 94 q 875 9 897 31 q 822 -12 852 -12 z "},"⁈":{"ha":934,"x_min":89,"x_max":812,"o":"m 227 270 q 216 316 221 288 q 212 372 212 344 q 229 450 212 415 q 272 515 246 485 q 328 574 298 546 q 385 631 359 602 q 428 691 410 660 q 445 761 445 723 q 432 819 445 793 q 398 861 420 844 q 348 886 376 878 q 288 895 319 895 q 89 804 173 895 l 89 924 q 304 989 193 989 q 401 975 355 989 q 480 935 446 962 q 534 868 515 908 q 554 775 554 828 q 536 686 554 725 q 492 613 519 646 q 434 552 465 581 q 376 495 403 524 q 332 437 349 467 q 314 370 314 406 q 321 313 314 338 q 336 270 329 288 l 227 270 m 288 -12 q 235 9 258 -12 q 213 62 213 31 q 235 115 213 94 q 288 138 258 138 q 341 115 319 138 q 363 62 363 94 q 341 9 363 31 q 288 -12 318 -12 m 793 972 l 781 274 l 689 274 l 677 972 l 793 972 m 736 -12 q 683 9 705 -12 q 661 62 661 31 q 683 116 661 94 q 736 138 705 138 q 789 116 767 138 q 812 62 812 94 q 789 9 812 31 q 736 -12 767 -12 z "},"⁉":{"ha":908,"x_min":122,"x_max":840,"o":"m 254 972 l 241 274 l 150 274 l 138 972 l 254 972 m 197 -12 q 144 9 166 -12 q 122 62 122 31 q 144 116 122 94 q 197 138 166 138 q 250 116 228 138 q 273 62 273 94 q 250 9 273 31 q 197 -12 228 -12 m 513 270 q 502 316 507 288 q 497 372 497 344 q 514 450 497 415 q 557 515 532 485 q 614 574 583 546 q 670 631 644 602 q 713 691 696 660 q 730 761 730 723 q 718 819 730 793 q 684 861 705 844 q 633 886 662 878 q 573 895 605 895 q 374 804 458 895 l 374 924 q 589 989 478 989 q 686 975 641 989 q 766 935 732 962 q 820 868 800 908 q 840 775 840 828 q 822 686 840 725 q 778 613 804 646 q 720 552 751 581 q 662 495 688 524 q 617 437 635 467 q 600 370 600 406 q 607 313 600 338 q 622 270 614 288 l 513 270 m 574 -12 q 521 9 544 -12 q 498 62 498 31 q 521 115 498 94 q 574 138 543 138 q 627 115 604 138 q 649 62 649 94 q 627 9 649 31 q 574 -12 604 -12 z "},"⁊":{"ha":698,"x_min":52,"x_max":650,"o":"m 650 688 l 490 0 l 383 0 l 547 661 q 471 646 511 653 q 391 635 431 640 q 312 628 351 631 q 237 625 273 625 q 179 627 205 625 q 131 630 153 628 q 90 637 109 633 q 52 646 71 641 l 52 784 q 138 761 90 770 q 245 751 186 751 q 315 753 277 751 q 392 759 352 755 q 473 767 432 762 q 555 778 515 772 l 650 778 l 650 688 z "},"⁋":{"ha":636,"x_min":71,"x_max":579,"o":"m 71 972 l 406 972 q 529 923 478 972 q 579 793 579 873 q 531 664 579 715 q 410 612 483 612 l 410 0 l 336 0 l 336 903 l 229 903 l 229 0 l 157 0 l 157 903 l 71 903 l 71 972 z "},"⁌":{"ha":577,"x_min":111,"x_max":466,"o":"m 311 250 q 235 263 271 250 q 171 303 199 277 q 127 365 144 328 q 111 446 111 401 q 127 528 111 491 q 171 591 144 565 q 235 631 199 617 q 311 646 271 646 l 466 646 l 466 250 l 311 250 m 391 576 l 311 576 l 311 319 l 391 319 l 391 576 z "},"⁍":{"ha":577,"x_min":111,"x_max":466,"o":"m 111 250 l 111 646 l 267 646 q 342 631 306 646 q 406 591 378 617 q 450 528 433 565 q 466 446 466 491 q 450 365 466 401 q 406 303 433 328 q 342 263 378 277 q 267 250 307 250 l 111 250 m 186 319 l 267 319 l 267 576 l 186 576 l 186 319 z "},"⁎":{"ha":579,"x_min":52,"x_max":529,"o":"m 529 462 l 343 424 l 472 259 l 397 208 l 292 387 l 184 208 l 110 259 l 239 424 l 52 462 l 82 547 l 260 479 l 244 686 l 338 686 l 322 479 l 500 547 l 529 462 z "},"⁏":{"ha":296,"x_min":72,"x_max":275,"o":"m 148 559 q 94 581 117 559 q 72 635 72 604 q 94 688 72 666 q 148 709 117 709 q 202 688 180 709 q 224 635 224 666 q 202 581 224 604 q 148 559 180 559 m 195 155 l 275 -179 l 195 -179 l 87 155 l 195 155 z "},"⁐":{"ha":1105,"x_min":14,"x_max":1092,"o":"m 553 -200 q 982 -25 854 -200 l 1092 -25 q 553 -283 930 -283 q 14 -25 176 -283 l 123 -25 q 553 -200 250 -200 m 982 998 q 553 1173 854 1173 q 123 998 250 1173 l 14 998 q 553 1255 176 1255 q 1092 998 930 1255 l 982 998 z "},"⁑":{"ha":579,"x_min":52,"x_max":529,"o":"m 529 804 l 343 766 l 472 602 l 397 550 l 292 730 l 184 550 l 110 602 l 239 766 l 52 804 l 82 889 l 260 822 l 244 1028 l 338 1028 l 322 822 l 500 889 l 529 804 m 529 253 l 343 215 l 472 50 l 397 -1 l 292 178 l 184 -1 l 110 50 l 239 215 l 52 253 l 82 338 l 260 271 l 244 477 l 338 477 l 322 271 l 500 338 l 529 253 z "},"⁒":{"ha":843,"x_min":95,"x_max":748,"o":"m 748 972 l 192 -7 l 95 -7 l 650 972 l 748 972 m 214 804 q 151 831 177 804 q 124 896 124 859 q 151 961 124 934 q 214 987 177 987 q 279 961 252 987 q 306 896 306 934 q 279 831 306 859 q 214 804 252 804 m 633 -15 q 569 12 595 -15 q 543 77 543 39 q 569 141 543 115 q 633 168 595 168 q 697 141 671 168 q 724 77 724 115 q 697 12 724 39 q 633 -15 671 -15 z "},"⁓":{"ha":1114,"x_min":142,"x_max":972,"o":"m 972 509 q 909 353 966 408 q 743 298 852 298 q 636 317 695 298 q 509 372 577 335 q 360 418 425 418 q 233 298 239 418 l 142 298 q 160 386 144 347 q 206 452 176 425 q 279 494 236 479 q 376 509 321 509 q 581 449 468 509 q 682 403 638 418 q 762 388 726 388 q 810 397 788 388 q 847 421 831 406 q 871 459 862 437 q 881 509 880 481 l 972 509 z "},"⁔":{"ha":1105,"x_min":14,"x_max":1092,"o":"m 553 -108 q 123 -283 250 -108 l 14 -283 q 553 -25 176 -25 q 1092 -283 930 -25 l 982 -283 q 553 -108 854 -108 z "},"⁕":{"ha":945,"x_min":81,"x_max":863,"o":"m 429 108 l 452 433 l 235 193 l 176 251 l 422 468 l 81 448 l 81 530 l 428 507 l 172 736 l 225 793 l 452 536 l 429 866 l 516 866 l 493 543 l 712 785 l 770 724 l 523 507 l 863 530 l 863 448 l 520 471 l 777 242 l 724 186 l 493 437 l 516 108 l 429 108 z "},"⁖":{"ha":644,"x_min":75,"x_max":569,"o":"m 492 703 q 439 725 461 703 q 417 779 417 747 q 439 833 417 810 q 492 855 461 855 q 547 833 524 855 q 569 779 569 810 q 547 725 569 747 q 492 703 524 703 m 492 146 q 439 168 461 146 q 417 222 417 191 q 439 276 417 254 q 492 298 461 298 q 547 276 524 298 q 569 222 569 254 q 547 168 569 191 q 492 146 524 146 m 150 425 q 97 447 119 425 q 75 500 75 469 q 97 555 75 532 q 150 577 119 577 q 204 555 182 577 q 227 500 227 532 q 204 447 227 469 q 150 425 182 425 z "},"⁗":{"ha":906,"x_min":96,"x_max":819,"o":"m 245 972 l 174 669 l 96 669 l 153 972 l 245 972 m 436 972 l 365 669 l 287 669 l 345 972 l 436 972 m 819 972 l 747 669 l 669 669 l 727 972 l 819 972 m 627 972 l 556 669 l 478 669 l 536 972 l 627 972 z "},"⁘":{"ha":890,"x_min":81,"x_max":809,"o":"m 446 703 q 392 725 414 703 q 370 779 370 747 q 392 833 370 810 q 446 855 414 855 q 500 833 477 855 q 522 779 522 810 q 500 725 522 747 q 446 703 477 703 m 446 146 q 392 168 414 146 q 370 222 370 191 q 392 276 370 254 q 446 298 414 298 q 500 276 477 298 q 522 222 522 254 q 500 168 522 191 q 446 146 477 146 m 157 425 q 103 447 125 425 q 81 500 81 469 q 103 555 81 532 q 157 577 125 577 q 211 555 189 577 q 233 500 233 532 q 211 447 233 469 q 157 425 189 425 m 732 425 q 679 447 701 425 q 657 500 657 469 q 679 555 657 532 q 732 577 701 577 q 787 555 764 577 q 809 500 809 532 q 787 447 809 469 q 732 425 764 425 z "},"⁙":{"ha":722,"x_min":81,"x_max":641,"o":"m 241 698 q 236 668 241 682 q 220 644 230 654 q 196 628 210 634 q 165 622 182 622 q 136 628 150 622 q 112 644 122 634 q 96 668 102 654 q 90 698 90 682 q 96 728 90 714 q 112 752 102 742 q 136 768 122 762 q 165 774 150 774 q 194 768 180 774 q 219 752 208 762 q 235 728 229 742 q 241 698 241 714 m 635 304 q 629 275 635 288 q 613 251 623 261 q 588 234 602 240 q 559 228 574 228 q 530 234 544 228 q 506 251 516 240 q 489 275 495 262 q 483 304 483 289 q 489 334 483 320 q 506 358 495 348 q 530 374 516 368 q 559 380 543 380 q 588 374 574 380 q 613 358 602 368 q 629 333 623 347 q 635 304 635 319 m 234 297 q 228 267 234 281 q 211 243 222 253 q 187 227 201 233 q 159 220 174 220 q 130 227 144 220 q 105 243 116 233 q 88 267 94 253 q 81 297 81 281 q 88 327 81 313 q 105 351 94 341 q 129 367 115 361 q 157 373 142 373 q 186 368 172 373 q 210 352 199 362 q 228 328 221 342 q 234 297 234 314 m 641 704 q 635 674 641 688 q 619 650 629 661 q 595 634 609 640 q 565 628 581 628 q 535 634 549 628 q 511 650 522 640 q 495 674 501 661 q 489 704 489 688 q 495 734 489 720 q 512 759 501 748 q 536 775 522 769 q 565 781 549 781 q 594 775 580 781 q 618 759 608 769 q 635 734 629 748 q 641 704 641 720 m 438 501 q 432 472 438 486 q 416 448 427 458 q 392 431 406 437 q 362 425 378 425 q 333 431 347 425 q 309 448 319 437 q 292 472 298 458 q 286 501 286 486 q 292 531 286 517 q 308 555 298 545 q 333 571 319 566 q 362 577 347 577 q 391 571 377 577 q 415 555 405 566 q 432 531 426 545 q 438 501 438 517 z "},"⁚":{"ha":315,"x_min":81,"x_max":233,"o":"m 157 854 q 103 877 125 854 q 81 930 81 899 q 103 985 81 962 q 157 1007 125 1007 q 211 985 189 1007 q 233 930 233 962 q 211 877 233 899 q 157 854 189 854 m 157 -6 q 103 16 125 -6 q 81 70 81 39 q 103 124 81 102 q 157 146 125 146 q 211 124 189 146 q 233 70 233 102 q 211 16 233 39 q 157 -6 189 -6 z "},"⁛":{"ha":890,"x_min":81,"x_max":809,"o":"m 446 854 q 392 877 414 854 q 370 930 370 899 q 392 985 370 962 q 446 1007 414 1007 q 500 985 477 1007 q 522 930 522 962 q 500 877 522 899 q 446 854 477 854 m 446 -7 q 392 16 414 -7 q 370 69 370 38 q 392 123 370 101 q 446 146 414 146 q 500 123 477 146 q 522 69 522 101 q 500 16 522 38 q 446 -7 477 -7 m 157 425 q 103 447 125 425 q 81 500 81 469 q 103 555 81 532 q 157 577 125 577 q 211 555 189 577 q 233 500 233 532 q 211 447 233 469 q 157 425 189 425 m 732 425 q 679 447 701 425 q 657 500 657 469 q 679 555 657 532 q 732 577 701 577 q 787 555 764 577 q 809 500 809 532 q 787 447 809 469 q 732 425 764 425 z "},"⁜":{"ha":1389,"x_min":140,"x_max":1255,"o":"m 741 980 l 741 469 l 1255 469 l 1249 377 l 740 377 l 740 -132 l 650 -132 l 650 376 l 140 376 l 140 468 l 650 468 l 650 979 l 741 980 m 373 671 q 379 700 373 686 q 395 724 385 713 q 418 740 405 734 q 448 745 432 745 q 477 740 463 745 q 500 724 490 734 q 516 700 511 713 q 522 671 522 686 q 516 642 522 655 q 500 618 511 628 q 477 602 490 608 q 448 596 463 596 q 418 602 432 596 q 395 618 405 608 q 379 642 385 628 q 373 671 373 655 m 867 669 q 872 699 867 685 q 888 722 878 712 q 912 738 899 732 q 941 744 926 744 q 970 738 957 744 q 994 722 984 732 q 1010 699 1004 712 q 1016 669 1016 685 q 1010 640 1016 654 q 994 616 1004 627 q 970 601 984 606 q 941 595 957 595 q 912 601 926 595 q 888 616 899 606 q 872 640 878 627 q 867 669 867 654 m 867 176 q 872 205 867 191 q 888 229 878 218 q 912 244 899 239 q 941 250 926 250 q 970 244 957 250 q 994 229 984 239 q 1010 205 1004 218 q 1016 176 1016 191 q 1010 146 1016 160 q 994 123 1004 133 q 970 107 984 113 q 941 101 957 101 q 912 107 926 101 q 888 123 899 113 q 872 146 878 133 q 867 176 867 160 m 373 176 q 379 205 373 191 q 395 229 385 218 q 418 244 405 239 q 448 250 432 250 q 477 244 463 250 q 500 229 490 239 q 516 205 511 218 q 522 176 522 191 q 516 146 522 160 q 500 123 511 133 q 477 107 490 113 q 448 101 463 101 q 418 107 432 101 q 395 123 405 113 q 379 146 385 133 q 373 176 373 160 z "},"⁝":{"ha":315,"x_min":81,"x_max":233,"o":"m 157 854 q 103 877 125 854 q 81 930 81 899 q 103 985 81 962 q 157 1007 125 1007 q 211 985 189 1007 q 233 930 233 962 q 211 877 233 899 q 157 854 189 854 m 157 -6 q 103 16 125 -6 q 81 70 81 39 q 103 124 81 102 q 157 146 125 146 q 211 124 189 146 q 233 70 233 102 q 211 16 233 39 q 157 -6 189 -6 m 157 425 q 103 447 125 425 q 81 500 81 469 q 103 555 81 532 q 157 577 125 577 q 211 555 189 577 q 233 500 233 532 q 211 447 233 469 q 157 425 189 425 z "},"⁞":{"ha":315,"x_min":81,"x_max":233,"o":"m 157 854 q 103 877 125 854 q 81 930 81 899 q 103 985 81 962 q 157 1007 125 1007 q 211 985 189 1007 q 233 930 233 962 q 211 877 233 899 q 157 854 189 854 m 157 -6 q 103 16 125 -6 q 81 70 81 39 q 103 124 81 102 q 157 146 125 146 q 211 124 189 146 q 233 70 233 102 q 211 16 233 39 q 157 -6 189 -6 m 157 281 q 103 303 125 281 q 81 357 81 326 q 103 411 81 389 q 157 433 125 433 q 211 411 189 433 q 233 357 233 389 q 211 303 233 326 q 157 281 189 281 m 157 568 q 103 590 125 568 q 81 644 81 612 q 103 698 81 675 q 157 720 125 720 q 211 698 189 720 q 233 644 233 675 q 211 590 233 612 q 157 568 189 568 z "}," ":{"ha":305,"x_min":0,"x_max":0,"o":""},"⁠":{"ha":0,"x_min":0,"x_max":0,"o":""},"⁡":{"ha":1748,"x_min":68,"x_max":1680,"o":"m 68 1029 l 68 1286 l 325 1286 l 325 1193 l 161 1193 l 161 1029 l 68 1029 m 1423 1193 l 1423 1286 l 1680 1286 l 1680 1029 l 1586 1029 l 1586 1193 l 1423 1193 m 68 -326 l 68 -68 l 161 -68 l 161 -232 l 325 -232 l 325 -326 l 68 -326 m 1423 -326 l 1423 -232 l 1586 -232 l 1586 -68 l 1680 -68 l 1680 -326 l 1423 -326 m 1090 -326 l 1090 -232 l 1320 -232 l 1320 -326 l 1090 -326 m 427 -326 l 427 -232 l 656 -232 l 656 -326 l 427 -326 m 427 1193 l 427 1286 l 656 1286 l 656 1193 l 427 1193 m 1680 33 l 1586 33 l 1586 263 l 1680 263 l 1680 33 m 1680 697 l 1586 697 l 1586 927 l 1680 927 l 1680 697 m 759 -326 l 759 -232 l 989 -232 l 989 -326 l 759 -326 m 161 33 l 68 33 l 68 263 l 161 263 l 161 33 m 759 1193 l 759 1286 l 989 1286 l 989 1193 l 759 1193 m 1090 1193 l 1090 1286 l 1320 1286 l 1320 1193 l 1090 1193 m 161 366 l 68 366 l 68 595 l 161 595 l 161 366 m 161 697 l 68 697 l 68 927 l 161 927 l 161 697 m 1680 366 l 1586 366 l 1586 595 l 1680 595 l 1680 366 m 830 987 q 715 878 731 987 l 694 737 l 806 737 l 806 644 l 680 644 l 618 204 q 382 -79 579 -79 q 321 -68 360 -79 l 321 28 q 380 14 346 14 q 463 63 431 14 q 509 212 494 113 l 570 644 l 500 644 l 500 737 l 585 737 l 604 886 q 627 966 609 930 q 674 1028 646 1002 q 742 1068 703 1054 q 825 1082 780 1082 q 903 1069 869 1082 l 903 968 q 830 987 871 987 m 866 345 q 893 508 866 436 q 974 644 920 581 l 1047 644 q 966 502 991 574 q 942 345 942 430 q 967 190 942 264 q 1047 47 992 115 l 974 47 q 891 188 916 112 q 866 345 866 264 m 1296 345 q 1290 426 1296 387 q 1271 502 1284 465 q 1239 574 1259 538 q 1191 644 1219 609 l 1264 644 q 1345 508 1318 581 q 1372 345 1372 436 q 1347 188 1372 264 q 1264 47 1322 112 l 1191 47 q 1271 190 1246 115 q 1296 345 1296 264 z "},"⁢":{"ha":1748,"x_min":68,"x_max":1680,"o":"m 68 1029 l 68 1286 l 325 1286 l 325 1193 l 161 1193 l 161 1029 l 68 1029 m 1423 1193 l 1423 1286 l 1680 1286 l 1680 1029 l 1586 1029 l 1586 1193 l 1423 1193 m 68 -326 l 68 -68 l 161 -68 l 161 -232 l 325 -232 l 325 -326 l 68 -326 m 1423 -326 l 1423 -232 l 1586 -232 l 1586 -68 l 1680 -68 l 1680 -326 l 1423 -326 m 1090 -326 l 1090 -232 l 1320 -232 l 1320 -326 l 1090 -326 m 427 -326 l 427 -232 l 656 -232 l 656 -326 l 427 -326 m 427 1193 l 427 1286 l 656 1286 l 656 1193 l 427 1193 m 1680 33 l 1586 33 l 1586 263 l 1680 263 l 1680 33 m 1680 697 l 1586 697 l 1586 927 l 1680 927 l 1680 697 m 759 -326 l 759 -232 l 989 -232 l 989 -326 l 759 -326 m 161 33 l 68 33 l 68 263 l 161 263 l 161 33 m 759 1193 l 759 1286 l 989 1286 l 989 1193 l 759 1193 m 1090 1193 l 1090 1286 l 1320 1286 l 1320 1193 l 1090 1193 m 161 366 l 68 366 l 68 595 l 161 595 l 161 366 m 161 697 l 68 697 l 68 927 l 161 927 l 161 697 m 1680 366 l 1586 366 l 1586 595 l 1680 595 l 1680 366 m 1105 174 l 874 404 l 642 174 l 560 256 l 792 485 l 560 717 l 641 799 l 874 568 l 1106 799 l 1185 715 l 955 485 l 1187 256 l 1105 174 z "},"⁣":{"ha":1748,"x_min":68,"x_max":1680,"o":"m 68 1029 l 68 1286 l 325 1286 l 325 1193 l 161 1193 l 161 1029 l 68 1029 m 1423 1193 l 1423 1286 l 1680 1286 l 1680 1029 l 1586 1029 l 1586 1193 l 1423 1193 m 68 -326 l 68 -68 l 161 -68 l 161 -232 l 325 -232 l 325 -326 l 68 -326 m 1423 -326 l 1423 -232 l 1586 -232 l 1586 -68 l 1680 -68 l 1680 -326 l 1423 -326 m 1090 -326 l 1090 -232 l 1320 -232 l 1320 -326 l 1090 -326 m 427 -326 l 427 -232 l 656 -232 l 656 -326 l 427 -326 m 427 1193 l 427 1286 l 656 1286 l 656 1193 l 427 1193 m 1680 33 l 1586 33 l 1586 263 l 1680 263 l 1680 33 m 1680 697 l 1586 697 l 1586 927 l 1680 927 l 1680 697 m 759 -326 l 759 -232 l 989 -232 l 989 -326 l 759 -326 m 161 33 l 68 33 l 68 263 l 161 263 l 161 33 m 759 1193 l 759 1286 l 989 1286 l 989 1193 l 759 1193 m 1090 1193 l 1090 1286 l 1320 1286 l 1320 1193 l 1090 1193 m 161 366 l 68 366 l 68 595 l 161 595 l 161 366 m 161 697 l 68 697 l 68 927 l 161 927 l 161 697 m 1680 366 l 1586 366 l 1586 595 l 1680 595 l 1680 366 m 862 64 l 748 64 l 817 405 l 964 405 l 862 64 z "},"⁪":{"ha":1748,"x_min":68,"x_max":1680,"o":"m 68 1029 l 68 1286 l 325 1286 l 325 1193 l 161 1193 l 161 1029 l 68 1029 m 1423 1193 l 1423 1286 l 1680 1286 l 1680 1029 l 1586 1029 l 1586 1193 l 1423 1193 m 68 -326 l 68 -68 l 161 -68 l 161 -232 l 325 -232 l 325 -326 l 68 -326 m 1423 -326 l 1423 -232 l 1586 -232 l 1586 -68 l 1680 -68 l 1680 -326 l 1423 -326 m 1090 -326 l 1090 -232 l 1320 -232 l 1320 -326 l 1090 -326 m 427 -326 l 427 -232 l 656 -232 l 656 -326 l 427 -326 m 427 1193 l 427 1286 l 656 1286 l 656 1193 l 427 1193 m 1680 33 l 1586 33 l 1586 263 l 1680 263 l 1680 33 m 1680 697 l 1586 697 l 1586 927 l 1680 927 l 1680 697 m 759 -326 l 759 -232 l 989 -232 l 989 -326 l 759 -326 m 161 33 l 68 33 l 68 263 l 161 263 l 161 33 m 759 1193 l 759 1286 l 989 1286 l 989 1193 l 759 1193 m 1090 1193 l 1090 1286 l 1320 1286 l 1320 1193 l 1090 1193 m 161 366 l 68 366 l 68 595 l 161 595 l 161 366 m 161 697 l 68 697 l 68 927 l 161 927 l 161 697 m 1680 366 l 1586 366 l 1586 595 l 1680 595 l 1680 366 m 804 79 q 795 27 804 52 q 765 -17 786 3 q 711 -47 745 -36 q 631 -59 678 -59 q 598 -57 615 -59 q 565 -50 581 -54 q 536 -41 549 -46 q 515 -30 523 -35 l 515 58 q 542 38 527 47 q 574 23 557 29 q 607 14 591 17 q 640 10 624 10 q 678 16 663 10 q 702 30 693 21 q 714 49 711 38 q 718 71 718 60 q 712 97 718 85 q 695 120 707 109 q 665 143 684 132 q 621 168 647 155 q 569 201 590 184 q 536 234 549 217 q 518 270 524 252 q 513 309 513 288 q 525 363 513 338 q 558 406 536 388 q 610 434 580 424 q 677 444 640 444 q 710 443 694 444 q 741 438 726 441 q 766 432 755 435 q 783 426 777 429 l 783 341 q 735 367 764 357 q 678 376 707 376 q 620 358 640 376 q 599 315 599 341 q 603 288 599 300 q 617 267 608 277 q 644 246 627 256 q 684 223 660 235 q 773 159 743 192 q 804 79 804 126 m 963 1036 l 963 967 l 916 967 l 916 619 l 963 619 l 963 550 l 787 550 l 787 619 l 835 619 l 835 967 l 787 967 l 787 1036 l 963 1036 m 1199 79 q 1190 27 1199 52 q 1160 -17 1181 3 q 1106 -47 1139 -36 q 1025 -59 1073 -59 q 993 -57 1010 -59 q 960 -50 976 -54 q 931 -41 944 -46 q 909 -30 918 -35 l 909 58 q 937 38 922 47 q 969 23 952 29 q 1002 14 985 17 q 1034 10 1019 10 q 1073 16 1057 10 q 1097 30 1088 21 q 1109 49 1105 38 q 1112 71 1112 60 q 1107 97 1112 85 q 1090 120 1101 109 q 1060 143 1078 132 q 1016 168 1042 155 q 964 201 985 184 q 931 234 943 217 q 913 270 918 252 q 907 309 907 288 q 919 363 907 338 q 953 406 931 388 q 1005 434 975 424 q 1072 444 1035 444 q 1105 443 1088 444 q 1135 438 1121 441 q 1161 432 1149 435 q 1178 426 1172 429 l 1178 341 q 1130 367 1158 357 q 1073 376 1101 376 q 1014 358 1035 376 q 994 315 994 341 q 998 288 994 300 q 1012 267 1002 277 q 1038 246 1022 256 q 1078 223 1055 235 q 1168 159 1137 192 q 1199 79 1199 126 z "},"⁫":{"ha":1748,"x_min":68,"x_max":1680,"o":"m 68 1029 l 68 1286 l 325 1286 l 325 1193 l 161 1193 l 161 1029 l 68 1029 m 1423 1193 l 1423 1286 l 1680 1286 l 1680 1029 l 1586 1029 l 1586 1193 l 1423 1193 m 68 -326 l 68 -68 l 161 -68 l 161 -232 l 325 -232 l 325 -326 l 68 -326 m 1423 -326 l 1423 -232 l 1586 -232 l 1586 -68 l 1680 -68 l 1680 -326 l 1423 -326 m 1090 -326 l 1090 -232 l 1320 -232 l 1320 -326 l 1090 -326 m 427 -326 l 427 -232 l 656 -232 l 656 -326 l 427 -326 m 427 1193 l 427 1286 l 656 1286 l 656 1193 l 427 1193 m 1680 33 l 1586 33 l 1586 263 l 1680 263 l 1680 33 m 1680 697 l 1586 697 l 1586 927 l 1680 927 l 1680 697 m 759 -326 l 759 -232 l 989 -232 l 989 -326 l 759 -326 m 161 33 l 68 33 l 68 263 l 161 263 l 161 33 m 759 1193 l 759 1286 l 989 1286 l 989 1193 l 759 1193 m 1090 1193 l 1090 1286 l 1320 1286 l 1320 1193 l 1090 1193 m 161 366 l 68 366 l 68 595 l 161 595 l 161 366 m 161 697 l 68 697 l 68 927 l 161 927 l 161 697 m 1680 366 l 1586 366 l 1586 595 l 1680 595 l 1680 366 m 804 79 q 795 27 804 52 q 765 -17 786 3 q 711 -47 745 -36 q 631 -59 678 -59 q 598 -57 615 -59 q 565 -50 581 -54 q 536 -41 549 -46 q 515 -30 523 -35 l 515 58 q 542 38 527 47 q 574 23 557 29 q 607 14 591 17 q 640 10 624 10 q 678 16 663 10 q 702 30 693 21 q 714 49 711 38 q 718 71 718 60 q 712 97 718 85 q 695 120 707 109 q 665 143 684 132 q 621 168 647 155 q 569 201 590 184 q 536 234 549 217 q 518 270 524 252 q 513 309 513 288 q 525 363 513 338 q 558 406 536 388 q 610 434 580 424 q 677 444 640 444 q 710 443 694 444 q 741 438 726 441 q 766 432 755 435 q 783 426 777 429 l 783 341 q 735 367 764 357 q 678 376 707 376 q 620 358 640 376 q 599 315 599 341 q 603 288 599 300 q 617 267 608 277 q 644 246 627 256 q 684 223 660 235 q 773 159 743 192 q 804 79 804 126 m 1199 79 q 1190 27 1199 52 q 1160 -17 1181 3 q 1106 -47 1139 -36 q 1025 -59 1073 -59 q 993 -57 1010 -59 q 960 -50 976 -54 q 931 -41 944 -46 q 909 -30 918 -35 l 909 58 q 937 38 922 47 q 969 23 952 29 q 1002 14 985 17 q 1034 10 1019 10 q 1073 16 1057 10 q 1097 30 1088 21 q 1109 49 1105 38 q 1112 71 1112 60 q 1107 97 1112 85 q 1090 120 1101 109 q 1060 143 1078 132 q 1016 168 1042 155 q 964 201 985 184 q 931 234 943 217 q 913 270 918 252 q 907 309 907 288 q 919 363 907 338 q 953 406 931 388 q 1005 434 975 424 q 1072 444 1035 444 q 1105 443 1088 444 q 1135 438 1121 441 q 1161 432 1149 435 q 1178 426 1172 429 l 1178 341 q 1130 367 1158 357 q 1073 376 1101 376 q 1014 358 1035 376 q 994 315 994 341 q 998 288 994 300 q 1012 267 1002 277 q 1038 246 1022 256 q 1078 223 1055 235 q 1168 159 1137 192 q 1199 79 1199 126 m 1017 549 l 973 672 l 779 672 l 736 549 l 648 549 l 832 1036 l 922 1036 l 1106 549 l 1017 549 m 883 928 q 879 946 880 935 q 876 963 877 958 l 874 963 q 872 946 873 957 q 867 928 870 936 l 801 741 l 950 741 l 883 928 z "},"⁬":{"ha":1748,"x_min":68,"x_max":1680,"o":"m 68 1029 l 68 1286 l 325 1286 l 325 1193 l 161 1193 l 161 1029 l 68 1029 m 1423 1193 l 1423 1286 l 1680 1286 l 1680 1029 l 1586 1029 l 1586 1193 l 1423 1193 m 68 -326 l 68 -68 l 161 -68 l 161 -232 l 325 -232 l 325 -326 l 68 -326 m 1423 -326 l 1423 -232 l 1586 -232 l 1586 -68 l 1680 -68 l 1680 -326 l 1423 -326 m 1090 -326 l 1090 -232 l 1320 -232 l 1320 -326 l 1090 -326 m 427 -326 l 427 -232 l 656 -232 l 656 -326 l 427 -326 m 427 1193 l 427 1286 l 656 1286 l 656 1193 l 427 1193 m 1680 33 l 1586 33 l 1586 263 l 1680 263 l 1680 33 m 1680 697 l 1586 697 l 1586 927 l 1680 927 l 1680 697 m 759 -326 l 759 -232 l 989 -232 l 989 -326 l 759 -326 m 161 33 l 68 33 l 68 263 l 161 263 l 161 33 m 759 1193 l 759 1286 l 989 1286 l 989 1193 l 759 1193 m 1090 1193 l 1090 1286 l 1320 1286 l 1320 1193 l 1090 1193 m 161 366 l 68 366 l 68 595 l 161 595 l 161 366 m 161 697 l 68 697 l 68 927 l 161 927 l 161 697 m 1680 366 l 1586 366 l 1586 595 l 1680 595 l 1680 366 m 963 1036 l 963 967 l 916 967 l 916 619 l 963 619 l 963 550 l 787 550 l 787 619 l 835 619 l 835 967 l 787 967 l 787 1036 l 963 1036 m 1400 79 q 1391 27 1400 52 q 1361 -17 1381 3 q 1307 -47 1340 -36 q 1226 -59 1274 -59 q 1194 -57 1211 -59 q 1161 -50 1177 -54 q 1132 -41 1145 -46 q 1110 -30 1118 -35 l 1110 58 q 1138 38 1122 47 q 1170 23 1153 29 q 1203 14 1186 17 q 1235 10 1219 10 q 1273 16 1258 10 q 1297 30 1289 21 q 1310 49 1306 38 q 1313 71 1313 60 q 1308 97 1313 85 q 1291 120 1302 109 q 1261 143 1279 132 q 1217 168 1242 155 q 1165 201 1185 184 q 1132 234 1144 217 q 1114 270 1119 252 q 1108 309 1108 288 q 1120 363 1108 338 q 1154 406 1132 388 q 1205 434 1175 424 q 1273 444 1236 444 q 1305 443 1289 444 q 1336 438 1322 441 q 1361 432 1350 435 q 1379 426 1373 429 l 1379 341 q 1331 367 1359 357 q 1274 376 1302 376 q 1215 358 1236 376 q 1194 315 1194 341 q 1199 288 1194 300 q 1213 267 1203 277 q 1239 246 1223 256 q 1279 223 1255 235 q 1369 159 1338 192 q 1400 79 1400 126 m 654 -50 l 610 73 l 415 73 l 372 -50 l 284 -50 l 469 437 l 558 437 l 743 -50 l 654 -50 m 519 329 q 515 348 517 336 q 513 364 513 359 l 511 364 q 508 348 510 358 q 504 329 507 337 l 437 142 l 587 142 l 519 329 m 871 368 l 871 224 l 1040 224 l 1040 154 l 871 154 l 871 -50 l 790 -50 l 790 437 l 1053 437 l 1053 368 l 871 368 z "},"⁭":{"ha":1748,"x_min":68,"x_max":1680,"o":"m 68 1029 l 68 1286 l 325 1286 l 325 1193 l 161 1193 l 161 1029 l 68 1029 m 1423 1193 l 1423 1286 l 1680 1286 l 1680 1029 l 1586 1029 l 1586 1193 l 1423 1193 m 68 -326 l 68 -68 l 161 -68 l 161 -232 l 325 -232 l 325 -326 l 68 -326 m 1423 -326 l 1423 -232 l 1586 -232 l 1586 -68 l 1680 -68 l 1680 -326 l 1423 -326 m 1090 -326 l 1090 -232 l 1320 -232 l 1320 -326 l 1090 -326 m 427 -326 l 427 -232 l 656 -232 l 656 -326 l 427 -326 m 427 1193 l 427 1286 l 656 1286 l 656 1193 l 427 1193 m 1680 33 l 1586 33 l 1586 263 l 1680 263 l 1680 33 m 1680 697 l 1586 697 l 1586 927 l 1680 927 l 1680 697 m 759 -326 l 759 -232 l 989 -232 l 989 -326 l 759 -326 m 161 33 l 68 33 l 68 263 l 161 263 l 161 33 m 759 1193 l 759 1286 l 989 1286 l 989 1193 l 759 1193 m 1090 1193 l 1090 1286 l 1320 1286 l 1320 1193 l 1090 1193 m 161 366 l 68 366 l 68 595 l 161 595 l 161 366 m 161 697 l 68 697 l 68 927 l 161 927 l 161 697 m 1680 366 l 1586 366 l 1586 595 l 1680 595 l 1680 366 m 1400 79 q 1391 27 1400 52 q 1361 -17 1381 3 q 1307 -47 1340 -36 q 1226 -59 1274 -59 q 1194 -57 1211 -59 q 1161 -50 1177 -54 q 1132 -41 1145 -46 q 1110 -30 1118 -35 l 1110 58 q 1138 38 1122 47 q 1170 23 1153 29 q 1203 14 1186 17 q 1235 10 1219 10 q 1273 16 1258 10 q 1297 30 1289 21 q 1310 49 1306 38 q 1313 71 1313 60 q 1308 97 1313 85 q 1291 120 1302 109 q 1261 143 1279 132 q 1217 168 1242 155 q 1165 201 1185 184 q 1132 234 1144 217 q 1114 270 1119 252 q 1108 309 1108 288 q 1120 363 1108 338 q 1154 406 1132 388 q 1205 434 1175 424 q 1273 444 1236 444 q 1305 443 1289 444 q 1336 438 1322 441 q 1361 432 1350 435 q 1379 426 1373 429 l 1379 341 q 1331 367 1359 357 q 1274 376 1302 376 q 1215 358 1236 376 q 1194 315 1194 341 q 1199 288 1194 300 q 1213 267 1203 277 q 1239 246 1223 256 q 1279 223 1255 235 q 1369 159 1338 192 q 1400 79 1400 126 m 654 -50 l 610 73 l 415 73 l 372 -50 l 284 -50 l 469 437 l 558 437 l 743 -50 l 654 -50 m 519 329 q 515 348 517 336 q 513 364 513 359 l 511 364 q 508 348 510 358 q 504 329 507 337 l 437 142 l 587 142 l 519 329 m 871 368 l 871 224 l 1040 224 l 1040 154 l 871 154 l 871 -50 l 790 -50 l 790 437 l 1053 437 l 1053 368 l 871 368 m 1018 549 l 974 672 l 779 672 l 736 549 l 648 549 l 833 1036 l 922 1036 l 1107 549 l 1018 549 m 884 928 q 879 946 881 935 q 877 963 878 958 l 875 963 q 872 946 874 957 q 868 928 871 936 l 802 741 l 951 741 l 884 928 z "},"⁮":{"ha":1748,"x_min":68,"x_max":1680,"o":"m 68 1029 l 68 1286 l 325 1286 l 325 1193 l 161 1193 l 161 1029 l 68 1029 m 1423 1193 l 1423 1286 l 1680 1286 l 1680 1029 l 1586 1029 l 1586 1193 l 1423 1193 m 68 -326 l 68 -68 l 161 -68 l 161 -232 l 325 -232 l 325 -326 l 68 -326 m 1423 -326 l 1423 -232 l 1586 -232 l 1586 -68 l 1680 -68 l 1680 -326 l 1423 -326 m 1090 -326 l 1090 -232 l 1320 -232 l 1320 -326 l 1090 -326 m 427 -326 l 427 -232 l 656 -232 l 656 -326 l 427 -326 m 427 1193 l 427 1286 l 656 1286 l 656 1193 l 427 1193 m 1680 33 l 1586 33 l 1586 263 l 1680 263 l 1680 33 m 1680 697 l 1586 697 l 1586 927 l 1680 927 l 1680 697 m 759 -326 l 759 -232 l 989 -232 l 989 -326 l 759 -326 m 161 33 l 68 33 l 68 263 l 161 263 l 161 33 m 759 1193 l 759 1286 l 989 1286 l 989 1193 l 759 1193 m 1090 1193 l 1090 1286 l 1320 1286 l 1320 1193 l 1090 1193 m 161 366 l 68 366 l 68 595 l 161 595 l 161 366 m 161 697 l 68 697 l 68 927 l 161 927 l 161 697 m 1680 366 l 1586 366 l 1586 595 l 1680 595 l 1680 366 m 1280 79 q 1271 27 1280 52 q 1241 -17 1262 3 q 1187 -47 1221 -36 q 1107 -59 1154 -59 q 1074 -57 1091 -59 q 1041 -50 1057 -54 q 1012 -41 1025 -46 q 991 -30 999 -35 l 991 58 q 1018 38 1003 47 q 1050 23 1034 29 q 1083 14 1067 17 q 1116 10 1100 10 q 1154 16 1139 10 q 1178 30 1169 21 q 1190 49 1187 38 q 1194 71 1194 60 q 1188 97 1194 85 q 1171 120 1183 109 q 1141 143 1160 132 q 1097 168 1123 155 q 1045 201 1066 184 q 1012 234 1025 217 q 994 270 1000 252 q 989 309 989 288 q 1001 363 989 338 q 1034 406 1013 388 q 1086 434 1056 424 q 1154 444 1116 444 q 1186 443 1170 444 q 1217 438 1202 441 q 1242 432 1231 435 q 1259 426 1253 429 l 1259 341 q 1211 367 1240 357 q 1154 376 1183 376 q 1096 358 1116 376 q 1075 315 1075 341 q 1079 288 1075 300 q 1094 267 1084 277 q 1120 246 1103 256 q 1160 223 1136 235 q 1250 159 1219 192 q 1280 79 1280 126 m 1291 549 l 1246 672 l 1052 672 l 1009 549 l 921 549 l 1105 1036 l 1195 1036 l 1379 549 l 1291 549 m 1156 928 q 1152 946 1154 935 q 1149 963 1150 958 l 1147 963 q 1145 946 1147 957 q 1141 928 1143 936 l 1074 741 l 1223 741 l 1156 928 m 726 549 l 503 909 q 493 926 498 916 q 486 943 488 937 l 484 943 q 485 928 484 939 q 486 905 486 917 q 487 881 487 892 q 488 865 488 870 l 488 549 l 408 549 l 408 1036 l 511 1036 l 725 684 q 736 667 730 677 q 745 650 742 656 l 747 650 q 745 664 746 653 q 744 688 745 675 q 744 712 744 701 q 743 728 743 724 l 743 1036 l 823 1036 l 823 549 l 726 549 m 892 200 q 873 98 892 144 q 820 19 854 52 q 736 -32 785 -14 q 627 -50 688 -50 l 481 -50 l 481 437 l 631 437 q 827 377 762 437 q 892 200 892 317 m 806 199 q 761 323 806 279 q 628 368 715 368 l 562 368 l 562 20 l 627 20 q 704 33 670 20 q 760 69 737 45 q 795 125 783 92 q 806 199 806 158 z "},"⁯":{"ha":1748,"x_min":68,"x_max":1680,"o":"m 68 1029 l 68 1286 l 325 1286 l 325 1193 l 161 1193 l 161 1029 l 68 1029 m 1423 1193 l 1423 1286 l 1680 1286 l 1680 1029 l 1586 1029 l 1586 1193 l 1423 1193 m 68 -326 l 68 -68 l 161 -68 l 161 -232 l 325 -232 l 325 -326 l 68 -326 m 1423 -326 l 1423 -232 l 1586 -232 l 1586 -68 l 1680 -68 l 1680 -326 l 1423 -326 m 1090 -326 l 1090 -232 l 1320 -232 l 1320 -326 l 1090 -326 m 427 -326 l 427 -232 l 656 -232 l 656 -326 l 427 -326 m 427 1193 l 427 1286 l 656 1286 l 656 1193 l 427 1193 m 1680 33 l 1586 33 l 1586 263 l 1680 263 l 1680 33 m 1680 697 l 1586 697 l 1586 927 l 1680 927 l 1680 697 m 759 -326 l 759 -232 l 989 -232 l 989 -326 l 759 -326 m 161 33 l 68 33 l 68 263 l 161 263 l 161 33 m 759 1193 l 759 1286 l 989 1286 l 989 1193 l 759 1193 m 1090 1193 l 1090 1286 l 1320 1286 l 1320 1193 l 1090 1193 m 161 366 l 68 366 l 68 595 l 161 595 l 161 366 m 161 697 l 68 697 l 68 927 l 161 927 l 161 697 m 1680 366 l 1586 366 l 1586 595 l 1680 595 l 1680 366 m 1280 79 q 1271 27 1280 52 q 1241 -17 1262 3 q 1187 -47 1221 -36 q 1107 -59 1154 -59 q 1074 -57 1091 -59 q 1041 -50 1057 -54 q 1012 -41 1025 -46 q 991 -30 999 -35 l 991 58 q 1018 38 1003 47 q 1050 23 1034 29 q 1083 14 1067 17 q 1116 10 1100 10 q 1154 16 1139 10 q 1178 30 1169 21 q 1190 49 1187 38 q 1194 71 1194 60 q 1188 97 1194 85 q 1171 120 1183 109 q 1141 143 1160 132 q 1097 168 1123 155 q 1045 201 1066 184 q 1012 234 1025 217 q 994 270 1000 252 q 989 309 989 288 q 1001 363 989 338 q 1034 406 1013 388 q 1086 434 1056 424 q 1154 444 1116 444 q 1186 443 1170 444 q 1217 438 1202 441 q 1242 432 1231 435 q 1259 426 1253 429 l 1259 341 q 1211 367 1240 357 q 1154 376 1183 376 q 1096 358 1116 376 q 1075 315 1075 341 q 1079 288 1075 300 q 1094 267 1084 277 q 1120 246 1103 256 q 1160 223 1136 235 q 1250 159 1219 192 q 1280 79 1280 126 m 726 549 l 503 909 q 493 926 498 916 q 486 943 488 937 l 484 943 q 485 928 484 939 q 486 905 486 917 q 487 881 487 892 q 488 865 488 870 l 488 549 l 408 549 l 408 1036 l 511 1036 l 725 684 q 736 667 730 677 q 745 650 742 656 l 747 650 q 745 664 746 653 q 744 688 745 675 q 744 712 744 701 q 743 728 743 724 l 743 1036 l 823 1036 l 823 549 l 726 549 m 892 200 q 873 98 892 144 q 820 19 854 52 q 736 -32 785 -14 q 627 -50 688 -50 l 481 -50 l 481 437 l 631 437 q 827 377 762 437 q 892 200 892 317 m 806 199 q 761 323 806 279 q 628 368 715 368 l 562 368 l 562 20 l 627 20 q 704 33 670 20 q 760 69 737 45 q 795 125 783 92 q 806 199 806 158 m 1380 799 q 1363 692 1380 740 q 1315 611 1346 645 q 1241 560 1284 578 q 1144 542 1198 542 q 1049 560 1092 542 q 977 610 1007 578 q 930 688 947 643 q 913 787 913 733 q 929 890 913 843 q 976 972 945 938 q 1051 1026 1006 1006 q 1152 1045 1095 1045 q 1245 1027 1203 1045 q 1317 978 1286 1010 q 1363 900 1347 945 q 1380 799 1380 854 m 1295 791 q 1284 870 1295 836 q 1255 928 1274 905 q 1209 962 1236 951 q 1149 974 1182 974 q 1086 961 1114 974 q 1039 923 1059 947 q 1009 866 1020 899 q 999 794 999 833 q 1010 718 999 751 q 1041 662 1021 685 q 1087 626 1061 638 q 1145 614 1114 614 q 1206 625 1179 614 q 1253 659 1234 636 q 1284 714 1273 681 q 1295 791 1295 747 z "},"⁰":{"ha":509,"x_min":49,"x_max":460,"o":"m 248 586 q 101 661 153 586 q 49 876 49 735 q 103 1110 49 1031 q 261 1189 157 1189 q 460 890 460 1189 q 445 760 460 817 q 404 665 431 703 q 337 606 376 626 q 248 586 297 586 m 257 1108 q 171 1052 199 1108 q 143 880 143 996 q 171 720 143 774 q 256 667 198 667 q 367 885 367 667 q 339 1053 367 998 q 257 1108 311 1108 z "},"ⁱ":{"ha":239,"x_min":61,"x_max":176,"o":"m 118 1099 q 77 1113 93 1099 q 61 1150 61 1128 q 77 1186 61 1171 q 118 1202 93 1202 q 160 1186 144 1202 q 176 1150 176 1171 q 160 1113 176 1128 q 118 1099 144 1099 m 161 486 l 75 486 l 75 974 l 161 974 l 161 486 z "},"⁴":{"ha":509,"x_min":32,"x_max":463,"o":"m 388 1176 l 388 803 l 463 803 l 463 729 l 388 729 l 388 600 l 298 600 l 298 729 l 32 729 l 32 799 q 110 890 72 842 q 181 986 147 937 q 243 1083 214 1034 q 293 1176 271 1131 l 388 1176 m 298 803 l 298 1057 q 249 974 272 1010 q 205 907 226 937 q 164 852 184 878 q 123 803 144 827 l 298 803 z "},"⁵":{"ha":509,"x_min":86,"x_max":440,"o":"m 86 614 l 86 714 q 221 665 163 665 q 313 696 279 665 q 347 775 347 726 q 208 878 347 878 l 104 872 l 135 1179 l 414 1179 l 414 1095 l 208 1095 l 191 958 q 377 917 314 968 q 440 779 440 865 q 381 639 440 693 q 220 585 322 585 q 86 614 136 585 z "},"⁶":{"ha":509,"x_min":50,"x_max":460,"o":"m 414 1165 l 414 1078 q 391 1090 404 1084 q 363 1100 378 1096 q 334 1106 349 1104 q 307 1108 319 1108 q 240 1096 269 1108 q 187 1060 211 1084 q 152 994 167 1037 q 136 885 136 950 l 139 885 q 196 940 159 918 q 286 962 233 962 q 359 949 327 962 q 414 912 391 936 q 448 854 436 888 q 460 779 460 821 q 445 702 460 737 q 402 641 429 667 q 339 601 375 615 q 261 586 302 586 q 180 602 218 586 q 113 652 142 618 q 67 738 84 686 q 50 860 50 789 q 69 1000 50 939 q 122 1103 88 1061 q 204 1167 157 1145 q 309 1189 252 1189 q 365 1183 338 1189 q 414 1165 393 1178 m 261 890 q 218 883 238 890 q 183 863 198 876 q 159 830 168 849 q 150 786 150 810 q 157 741 150 763 q 179 703 165 720 q 212 675 193 686 q 257 665 232 665 q 337 696 308 665 q 366 777 366 728 q 339 860 366 829 q 261 890 313 890 z "},"⁷":{"ha":509,"x_min":53,"x_max":446,"o":"m 446 1124 q 371 992 406 1057 q 307 862 336 926 q 256 732 277 797 q 222 601 234 667 l 127 601 q 158 729 137 666 q 208 853 180 791 q 271 977 237 916 q 341 1102 305 1039 l 53 1102 l 53 1183 l 446 1183 l 446 1124 z "},"⁸":{"ha":509,"x_min":47,"x_max":469,"o":"m 47 757 q 57 807 47 783 q 82 851 66 831 q 120 887 98 871 q 168 912 142 903 q 101 966 127 932 q 75 1041 75 1000 q 90 1102 75 1074 q 130 1149 104 1130 q 188 1179 155 1168 q 258 1190 222 1190 q 327 1180 294 1190 q 385 1149 359 1169 q 425 1102 410 1130 q 440 1040 440 1075 q 417 969 440 1002 q 349 912 394 936 q 401 884 379 901 q 439 846 424 867 q 461 801 454 825 q 469 753 469 777 q 451 684 469 715 q 404 630 433 652 q 336 596 374 608 q 256 585 297 585 q 178 595 216 585 q 112 628 140 606 q 65 682 83 649 q 47 757 47 714 m 148 771 q 176 695 148 722 q 259 666 204 667 l 260 666 q 304 673 283 666 q 339 694 324 680 q 362 727 353 708 q 370 771 370 747 q 362 809 370 791 q 340 840 355 827 q 305 861 326 853 q 259 869 284 869 q 213 861 234 869 q 178 840 193 853 q 156 809 163 827 q 148 771 148 791 m 172 1029 q 179 997 172 1012 q 198 971 186 982 q 225 954 210 960 q 259 948 241 948 q 292 954 277 948 q 320 971 308 960 q 339 997 332 982 q 346 1029 346 1012 q 339 1062 346 1048 q 320 1087 332 1077 q 293 1102 309 1097 q 259 1107 277 1107 q 197 1086 222 1107 q 172 1029 172 1065 z "},"⁹":{"ha":509,"x_min":53,"x_max":463,"o":"m 211 665 q 288 683 256 665 q 340 731 320 701 q 370 805 361 762 q 379 899 379 848 l 376 899 q 353 864 368 880 q 320 837 338 848 q 279 819 301 825 q 232 812 256 812 q 158 826 191 812 q 101 863 125 839 q 65 920 78 887 q 53 994 53 954 q 67 1073 53 1038 q 107 1135 81 1109 q 170 1175 133 1160 q 250 1189 206 1189 q 332 1172 294 1189 q 399 1120 370 1154 q 446 1036 429 1086 q 463 917 463 985 q 447 785 463 846 q 399 679 431 724 q 320 610 367 635 q 211 585 273 585 q 145 593 178 585 q 87 615 113 601 l 87 701 q 116 687 100 694 q 148 676 132 681 q 180 668 164 671 q 211 665 197 665 m 253 1109 q 210 1102 230 1109 q 176 1079 191 1094 q 154 1043 162 1064 q 146 994 146 1021 q 174 914 146 943 q 249 885 201 885 q 291 892 271 885 q 328 912 312 900 q 354 943 345 925 q 364 981 364 960 q 356 1033 364 1009 q 332 1074 347 1057 q 297 1100 317 1090 q 253 1109 277 1109 z "},"⁺":{"ha":509,"x_min":62,"x_max":446,"o":"m 446 846 l 289 846 l 289 689 l 221 689 l 221 846 l 62 846 l 62 914 l 221 914 l 221 1071 l 289 1071 l 289 914 l 446 914 l 446 846 z "},"⁻":{"ha":509,"x_min":62,"x_max":446,"o":"m 62 914 l 446 914 l 446 846 l 62 846 l 62 914 z "},"⁼":{"ha":509,"x_min":62,"x_max":446,"o":"m 62 815 l 446 815 l 446 747 l 62 747 l 62 815 m 62 1013 l 446 1013 l 446 945 l 62 945 l 62 1013 z "},"⁽":{"ha":419,"x_min":139,"x_max":351,"o":"m 350 517 l 264 517 q 139 872 139 661 q 264 1234 139 1083 l 351 1234 q 224 872 224 1078 q 350 517 224 668 z "},"⁾":{"ha":419,"x_min":68,"x_max":281,"o":"m 68 517 q 196 872 196 668 q 68 1234 196 1078 l 154 1234 q 281 872 281 1083 q 154 517 281 661 l 68 517 z "},"ⁿ":{"ha":545,"x_min":75,"x_max":479,"o":"m 161 486 l 75 486 l 75 974 l 161 974 l 161 896 l 164 896 q 307 987 210 987 q 433 938 387 987 q 479 798 479 888 l 479 486 l 390 486 l 390 791 q 289 911 390 911 q 199 870 237 911 q 161 772 161 829 l 161 486 z "},"₀":{"ha":509,"x_min":49,"x_max":460,"o":"m 248 -178 q 101 -103 153 -178 q 49 113 49 -29 q 103 347 49 268 q 261 425 157 425 q 460 126 460 425 q 445 -4 460 52 q 404 -100 431 -61 q 337 -158 376 -138 q 248 -178 297 -178 m 257 345 q 143 115 143 345 q 171 -44 143 8 q 256 -97 198 -97 q 367 119 367 -97 q 339 289 367 233 q 257 345 311 345 z "},"₁":{"ha":509,"x_min":104,"x_max":323,"o":"m 323 -163 l 237 -163 l 237 319 q 215 301 229 311 q 182 282 201 292 q 144 264 164 273 q 104 251 123 256 l 104 333 q 150 349 126 339 q 198 372 174 359 q 242 398 221 385 q 278 426 262 412 l 323 426 l 323 -163 z "},"₂":{"ha":509,"x_min":71,"x_max":446,"o":"m 341 256 q 335 287 341 272 q 318 314 330 302 q 290 334 307 326 q 249 341 272 341 q 171 322 208 341 q 102 273 134 304 l 102 372 q 172 413 132 401 q 258 425 211 425 q 327 414 294 425 q 383 384 359 404 q 421 335 407 364 q 435 267 435 305 q 428 205 435 233 q 404 152 420 177 q 361 103 388 126 q 297 55 335 79 q 241 19 266 35 q 200 -13 217 3 q 175 -45 184 -28 q 166 -83 166 -62 l 446 -83 l 446 -165 l 71 -165 l 71 -110 q 83 -42 71 -73 q 118 13 96 -12 q 169 60 140 38 q 233 102 199 81 q 286 141 265 123 q 319 177 307 159 q 336 215 332 195 q 341 256 341 234 z "},"₃":{"ha":509,"x_min":87,"x_max":443,"o":"m 87 -143 l 87 -47 q 235 -98 157 -98 q 320 -73 289 -98 q 351 -4 351 -47 q 203 92 351 92 l 146 92 l 146 172 l 200 172 q 334 262 334 172 q 236 343 334 343 q 110 296 172 343 l 110 390 q 254 425 170 425 q 376 385 330 425 q 422 279 422 345 q 323 140 422 176 l 323 138 q 443 0 443 110 q 385 -129 443 -79 q 232 -179 328 -179 q 87 -143 139 -179 z "},"₄":{"ha":509,"x_min":32,"x_max":463,"o":"m 388 414 l 388 41 l 463 41 l 463 -33 l 388 -33 l 388 -161 l 298 -161 l 298 -33 l 32 -33 l 32 37 q 110 128 72 81 q 181 224 147 176 q 243 321 214 273 q 293 414 271 370 l 388 414 m 298 41 l 298 295 q 249 212 272 248 q 205 146 226 176 q 164 91 184 116 q 123 41 144 66 l 298 41 z "},"₅":{"ha":509,"x_min":86,"x_max":440,"o":"m 86 -152 l 86 -52 q 221 -100 163 -100 q 313 -70 279 -100 q 347 9 347 -39 q 208 112 347 112 l 104 106 l 135 414 l 414 414 l 414 329 l 208 329 l 191 193 q 377 151 314 202 q 440 14 440 100 q 381 -127 440 -73 q 220 -181 322 -181 q 86 -152 136 -181 z "},"₆":{"ha":509,"x_min":50,"x_max":460,"o":"m 414 401 l 414 314 q 391 326 404 320 q 363 335 378 331 q 334 342 349 340 q 307 345 319 345 q 240 332 269 345 q 187 294 211 319 q 152 228 167 271 q 136 119 136 185 l 139 119 q 196 176 159 154 q 286 199 233 199 q 359 185 327 199 q 414 148 391 172 q 448 90 436 124 q 460 16 460 56 q 445 -62 460 -26 q 402 -123 429 -97 q 339 -163 375 -149 q 261 -178 302 -178 q 180 -161 218 -178 q 113 -111 142 -145 q 67 -26 84 -77 q 50 96 50 25 q 69 236 50 175 q 122 340 88 298 q 204 404 157 382 q 309 425 252 425 q 365 419 338 425 q 414 401 393 413 m 261 126 q 218 119 238 126 q 183 98 198 112 q 159 65 168 85 q 150 22 150 46 q 157 -22 150 -1 q 179 -61 165 -44 q 212 -88 193 -78 q 257 -98 232 -98 q 337 -68 308 -98 q 366 12 366 -38 q 339 96 366 65 q 261 126 313 126 z "},"₇":{"ha":509,"x_min":53,"x_max":446,"o":"m 446 357 q 371 225 406 291 q 307 95 336 160 q 256 -35 277 31 q 222 -165 234 -100 l 127 -165 q 158 -38 137 -100 q 208 87 180 25 q 271 211 237 149 q 341 336 305 273 l 53 336 l 53 417 l 446 417 l 446 357 z "},"₈":{"ha":509,"x_min":47,"x_max":469,"o":"m 47 -9 q 57 40 47 16 q 82 85 66 64 q 120 121 98 105 q 168 146 142 136 q 101 200 127 166 q 75 275 75 233 q 90 336 75 308 q 130 383 104 363 q 188 413 155 402 q 258 424 222 424 q 327 413 294 424 q 385 383 359 403 q 425 336 410 363 q 440 274 440 309 q 417 202 440 235 q 349 146 394 170 q 401 118 379 135 q 439 80 424 101 q 461 35 454 58 q 469 -13 469 11 q 451 -83 469 -52 q 404 -136 433 -114 q 336 -170 374 -158 q 256 -182 297 -182 q 178 -171 216 -182 q 112 -139 140 -160 q 65 -85 83 -117 q 47 -9 47 -52 m 148 5 q 176 -72 148 -44 q 259 -100 204 -99 l 260 -100 q 304 -93 283 -100 q 339 -72 324 -86 q 362 -39 353 -58 q 370 5 370 -20 q 362 43 370 25 q 340 74 355 60 q 305 95 326 87 q 259 102 284 102 q 213 95 234 102 q 178 74 193 87 q 156 43 163 60 q 148 5 148 25 m 172 262 q 179 231 172 245 q 198 205 186 216 q 225 188 210 194 q 259 182 241 182 q 292 188 277 182 q 320 205 308 194 q 339 231 332 216 q 346 262 346 245 q 339 296 346 281 q 320 321 332 311 q 293 336 309 331 q 259 341 277 341 q 197 320 222 341 q 172 262 172 299 z "},"₉":{"ha":509,"x_min":53,"x_max":463,"o":"m 211 -98 q 288 -81 256 -98 q 340 -32 320 -63 q 370 41 361 -1 q 379 135 379 84 l 376 135 q 353 100 368 116 q 320 73 338 85 q 279 55 301 62 q 232 49 256 49 q 158 62 191 49 q 101 98 125 75 q 65 156 78 122 q 53 231 53 189 q 67 310 53 274 q 107 371 81 345 q 170 411 133 397 q 250 425 206 425 q 332 408 294 425 q 399 357 370 391 q 446 272 429 323 q 463 153 463 220 q 447 21 463 81 q 399 -84 431 -40 q 320 -154 367 -129 q 211 -179 273 -179 q 145 -171 178 -179 q 87 -149 113 -163 l 87 -62 q 116 -76 100 -70 q 148 -88 132 -83 q 180 -96 164 -93 q 211 -98 197 -98 m 253 346 q 210 338 230 346 q 176 315 191 330 q 154 279 162 300 q 146 231 146 258 q 174 150 146 180 q 249 121 201 121 q 291 128 271 121 q 328 148 312 136 q 354 178 345 161 q 364 215 364 195 q 356 268 364 243 q 332 309 347 292 q 297 336 317 326 q 253 346 277 346 z "},"₊":{"ha":509,"x_min":62,"x_max":446,"o":"m 446 82 l 289 82 l 289 -77 l 221 -77 l 221 82 l 62 82 l 62 149 l 221 149 l 221 307 l 289 307 l 289 149 l 446 149 l 446 82 z "},"₋":{"ha":509,"x_min":62,"x_max":446,"o":"m 62 149 l 446 149 l 446 82 l 62 82 l 62 149 z "},"₌":{"ha":509,"x_min":62,"x_max":446,"o":"m 62 52 l 446 52 l 446 -17 l 62 -17 l 62 52 m 62 248 l 446 248 l 446 179 l 62 179 l 62 248 z "},"₍":{"ha":419,"x_min":139,"x_max":351,"o":"m 350 -248 l 264 -248 q 139 109 139 -104 q 264 468 139 319 l 351 468 q 224 109 224 314 q 350 -248 224 -96 z "},"₎":{"ha":419,"x_min":68,"x_max":281,"o":"m 68 -248 q 196 109 196 -96 q 68 468 196 314 l 154 468 q 281 109 281 319 q 154 -248 281 -104 l 68 -248 z "},"ₐ":{"ha":437,"x_min":41,"x_max":368,"o":"m 368 -184 l 282 -184 l 282 -131 l 281 -131 q 163 -197 243 -197 q 74 -167 107 -197 q 41 -86 41 -136 q 174 39 41 20 l 282 54 q 207 131 282 131 q 79 87 139 131 l 79 165 q 216 199 138 199 q 368 53 368 199 l 368 -184 m 282 -35 l 282 -3 l 200 -14 q 126 -77 126 -24 q 191 -131 126 -131 q 256 -104 231 -131 q 282 -35 282 -78 z "},"ₑ":{"ha":432,"x_min":41,"x_max":383,"o":"m 383 -29 l 127 -29 q 239 -126 135 -126 q 354 -90 301 -126 l 354 -167 q 224 -197 306 -197 q 90 -146 139 -197 q 41 -1 41 -94 q 92 142 41 86 q 218 199 142 199 q 339 149 294 199 q 383 16 383 100 l 383 -29 m 300 37 q 216 131 298 131 q 127 37 136 131 l 300 37 z "},"ₒ":{"ha":475,"x_min":41,"x_max":433,"o":"m 233 -197 q 94 -143 146 -197 q 41 -3 41 -89 q 96 143 41 87 q 241 199 151 199 q 380 144 328 199 q 433 4 433 90 q 378 -142 433 -87 q 233 -197 322 -197 m 237 125 q 158 92 187 125 q 129 0 129 58 q 159 -91 129 -58 q 237 -123 189 -123 q 317 -91 288 -123 q 346 0 346 -58 q 317 92 346 60 q 237 125 288 125 z "},"ₓ":{"ha":371,"x_min":12,"x_max":358,"o":"m 358 186 l 232 -1 l 355 -184 l 258 -184 l 186 -64 l 184 -64 l 110 -184 l 12 -184 l 142 -3 l 18 186 l 117 186 l 186 58 l 187 58 l 262 186 l 358 186 z "},"ₔ":{"ha":432,"x_min":49,"x_max":390,"o":"m 49 31 l 304 31 q 193 129 297 129 q 78 93 131 129 l 78 170 q 208 200 127 200 q 341 148 292 200 q 390 3 390 96 q 340 -142 390 -85 q 214 -199 290 -199 q 93 -148 138 -199 q 49 -14 49 -97 l 49 31 m 304 -35 l 132 -35 q 215 -131 134 -131 q 304 -35 294 -131 z "},"⃝":{"ha":0,"x_min":73,"x_max":1078,"o":"m 73 486 q 90 620 73 555 q 138 740 106 684 q 215 842 170 795 q 316 920 260 888 q 437 971 372 953 q 575 989 503 989 q 713 971 648 989 q 834 920 779 953 q 935 842 890 888 q 1012 740 980 795 q 1061 620 1044 684 q 1078 486 1078 555 q 1061 353 1078 417 q 1012 233 1044 288 q 935 131 980 177 q 834 52 890 85 q 713 2 779 20 q 575 -16 648 -16 q 437 2 503 -16 q 316 52 372 20 q 215 131 260 85 q 138 233 170 177 q 90 353 106 288 q 73 486 73 417 m 140 486 q 156 369 140 425 q 200 263 172 312 q 269 174 229 214 q 357 105 309 134 q 460 60 405 76 q 575 45 515 45 q 752 79 672 45 q 889 174 832 114 q 978 314 947 234 q 1010 486 1010 395 q 978 658 1010 578 q 888 799 946 739 q 751 893 831 859 q 575 928 671 928 q 399 893 479 928 q 261 799 319 859 q 172 658 204 739 q 140 486 140 578 z "},"℀":{"ha":1117,"x_min":102,"x_max":1066,"o":"m 470 493 l 382 493 l 396 567 l 393 567 q 325 504 361 525 q 242 484 288 484 q 185 496 211 484 q 141 532 159 508 q 112 590 122 555 q 102 671 102 625 q 119 792 102 736 q 169 890 137 848 q 243 956 200 932 q 338 980 287 980 q 461 903 425 980 l 464 903 l 479 972 l 566 972 l 470 493 m 441 793 q 434 837 441 817 q 413 872 427 857 q 381 895 400 886 q 337 903 361 903 q 273 885 300 903 q 228 838 245 867 q 201 771 210 808 q 192 694 192 734 q 198 630 192 656 q 215 586 203 603 q 244 562 227 570 q 284 555 262 555 q 354 581 325 555 q 403 643 384 606 q 432 721 422 680 q 441 793 441 762 m 1009 366 q 894 410 955 410 q 764 343 813 410 q 718 192 718 278 q 821 64 718 64 q 959 118 879 64 l 938 22 q 808 -14 869 -14 q 730 0 764 -14 q 672 40 696 14 q 637 103 649 66 q 625 186 625 140 q 701 401 625 317 q 903 489 778 489 q 1030 456 982 489 l 1009 366 m 1066 972 l 233 0 l 133 0 l 966 972 l 1066 972 z "},"℁":{"ha":1117,"x_min":93,"x_max":1057,"o":"m 461 493 l 373 493 l 387 567 l 385 567 q 316 504 353 525 q 233 484 279 484 q 176 496 202 484 q 132 532 151 508 q 103 590 113 555 q 93 671 93 625 q 111 792 93 736 q 160 890 128 848 q 235 956 191 932 q 330 980 278 980 q 452 903 416 980 l 455 903 l 470 972 l 557 972 l 461 493 m 432 793 q 425 837 432 817 q 405 872 418 857 q 372 895 391 886 q 328 903 353 903 q 264 885 291 903 q 219 838 237 867 q 192 771 201 808 q 183 694 183 734 q 189 630 183 656 q 207 586 195 603 q 236 562 218 570 q 275 555 253 555 q 346 581 316 555 q 394 643 375 606 q 423 721 414 680 q 432 793 432 762 m 1057 972 l 224 0 l 124 0 l 957 972 l 1057 972 m 1004 374 q 940 403 974 394 q 878 412 907 412 q 847 409 862 412 q 820 397 831 405 q 800 379 808 390 q 793 352 793 368 q 813 310 793 326 q 876 276 833 294 q 966 219 938 250 q 994 142 994 187 q 984 90 994 117 q 952 39 974 62 q 896 1 930 16 q 812 -14 862 -14 q 768 -10 791 -14 q 725 -1 746 -7 q 686 14 704 5 q 657 32 669 22 l 675 110 q 709 89 690 98 q 747 73 727 79 q 786 64 766 67 q 822 61 806 61 q 854 65 839 61 q 882 77 870 68 q 901 97 894 85 q 908 126 908 109 q 901 155 908 143 q 880 175 893 166 q 848 192 867 184 q 809 210 830 200 q 763 236 782 223 q 731 263 743 248 q 713 298 719 279 q 707 343 707 317 q 720 399 707 372 q 756 446 733 426 q 813 477 780 465 q 886 489 846 489 q 964 478 930 489 q 1022 454 999 467 l 1004 374 z "},"ℂ":{"ha":893,"x_min":74,"x_max":832,"o":"m 832 35 q 554 -17 726 -17 q 355 16 444 -17 q 204 112 267 50 q 108 264 142 174 q 74 465 74 353 q 112 678 74 582 q 219 844 150 774 q 383 951 288 913 q 592 989 478 989 q 832 953 734 989 l 832 871 q 778 892 806 884 q 719 907 749 901 q 657 915 688 913 q 597 918 627 918 q 455 899 523 918 q 332 843 387 881 l 332 121 q 451 71 385 88 q 597 54 517 54 q 721 70 662 54 q 832 116 781 85 l 832 35 m 157 473 q 185 302 157 377 q 264 174 212 228 l 264 785 q 185 652 214 730 q 157 473 157 575 z "},"℃":{"ha":1383,"x_min":74,"x_max":1312,"o":"m 261 608 q 189 623 223 608 q 129 663 155 637 q 89 723 104 689 q 74 798 74 758 q 89 870 74 836 q 128 929 103 903 q 187 969 153 954 q 260 983 221 983 q 334 968 299 983 q 394 928 368 954 q 434 869 419 903 q 449 798 449 836 q 434 725 449 760 q 394 665 419 690 q 334 624 368 639 q 261 608 300 608 m 261 904 q 219 896 239 904 q 185 873 199 888 q 162 839 171 859 q 154 798 154 820 q 162 755 154 775 q 184 720 170 735 q 218 696 199 705 q 260 688 237 688 q 302 696 282 688 q 336 720 321 705 q 360 755 351 735 q 368 798 368 775 q 360 839 368 820 q 337 873 351 859 q 303 896 323 888 q 261 904 283 904 m 1312 40 q 1192 -3 1259 12 q 1044 -17 1125 -17 q 856 19 941 -17 q 712 119 772 54 q 620 272 652 183 q 587 468 587 361 q 625 680 587 584 q 729 845 663 776 q 886 951 795 913 q 1083 989 977 989 q 1312 949 1222 989 l 1312 828 q 1082 886 1208 886 q 930 857 999 886 q 812 774 861 828 q 734 644 762 720 q 707 475 707 568 q 732 315 707 387 q 804 192 758 243 q 916 114 850 141 q 1060 86 981 86 q 1312 151 1205 86 l 1312 40 z "},"℄":{"ha":815,"x_min":67,"x_max":765,"o":"m 765 0 l 338 0 l 338 211 q 232 245 281 221 q 146 308 182 269 q 88 400 109 347 q 67 520 67 453 q 88 649 67 592 q 146 748 109 706 q 232 818 182 791 q 338 859 281 846 l 338 972 l 452 972 l 452 869 q 616 836 536 867 l 616 721 q 536 750 578 739 q 452 764 495 761 l 452 307 q 538 322 496 311 q 616 350 580 333 l 616 245 q 534 219 575 229 q 452 206 493 210 l 452 103 l 765 103 l 765 0 m 186 530 q 198 447 186 483 q 230 385 210 410 q 278 342 250 359 q 338 317 306 326 l 338 755 q 278 728 306 745 q 230 683 250 711 q 198 618 210 656 q 186 530 186 580 z "},"℅":{"ha":1117,"x_min":73,"x_max":1022,"o":"m 486 863 q 371 907 432 907 q 298 889 330 907 q 242 841 265 871 q 207 771 219 811 q 195 689 195 732 q 298 561 195 561 q 436 615 356 561 l 415 519 q 285 484 347 484 q 207 497 241 484 q 150 537 173 511 q 114 601 126 564 q 102 684 102 637 q 122 803 102 748 q 179 899 142 859 q 267 963 216 940 q 380 986 318 986 q 507 953 459 986 l 486 863 m 1006 972 l 172 0 l 73 0 l 905 972 l 1006 972 m 760 -14 q 675 1 712 -14 q 614 41 639 15 q 576 105 589 68 q 564 187 564 142 q 584 302 564 248 q 640 398 604 357 q 724 465 675 440 q 831 489 773 489 q 910 475 875 489 q 971 435 946 461 q 1009 373 996 410 q 1022 290 1022 336 q 1002 175 1022 230 q 947 78 983 120 q 864 12 912 37 q 760 -14 817 -14 m 828 414 q 760 394 791 414 q 704 341 728 374 q 668 268 681 309 q 654 186 654 227 q 762 61 654 61 q 830 80 799 61 q 883 131 861 99 q 918 203 905 162 q 930 288 930 243 q 828 414 930 414 z "},"℆":{"ha":1117,"x_min":54,"x_max":1046,"o":"m 468 863 q 353 907 414 907 q 223 840 271 907 q 188 770 199 808 q 176 689 176 732 q 280 561 176 561 q 418 615 338 561 l 397 519 q 267 484 328 484 q 189 497 222 484 q 131 537 155 511 q 96 601 108 564 q 83 684 83 637 q 159 899 83 814 q 362 986 237 986 q 489 953 441 986 l 468 863 m 987 972 l 154 0 l 54 0 l 887 972 l 987 972 m 945 0 l 857 0 l 872 75 l 869 75 q 797 10 835 30 q 713 -9 760 -9 q 667 -1 690 -9 q 625 25 644 7 q 596 72 607 43 q 585 142 585 101 q 587 176 585 152 q 595 231 589 201 l 648 473 l 735 473 l 680 213 q 674 181 676 199 q 673 149 673 163 q 694 86 673 111 q 760 62 715 62 q 812 73 789 62 q 853 102 836 83 q 882 148 870 121 q 900 204 894 174 l 957 473 l 1046 473 l 945 0 z "},"ℇ":{"ha":751,"x_min":80,"x_max":690,"o":"m 690 36 q 570 -3 633 10 q 437 -17 507 -17 q 287 3 353 -17 q 175 58 221 22 q 104 145 129 94 q 80 258 80 196 q 94 343 80 304 q 135 415 109 383 q 200 471 161 448 q 287 507 238 494 l 287 511 q 113 726 113 566 q 205 914 113 839 q 445 989 299 989 q 561 977 506 989 q 665 942 616 966 l 665 827 q 442 886 560 886 q 355 875 394 886 q 289 843 317 864 q 246 793 261 822 q 231 728 231 764 q 249 658 231 690 q 300 603 267 626 q 380 566 333 579 q 486 553 427 553 l 556 553 l 556 450 l 484 450 q 199 267 199 450 q 216 191 199 224 q 264 134 233 157 q 340 98 295 111 q 441 86 385 86 q 690 149 576 86 l 690 36 z "},"℈":{"ha":856,"x_min":71,"x_max":791,"o":"m 71 40 l 71 151 q 189 102 124 119 q 329 86 253 86 q 463 110 402 86 q 567 178 523 133 q 638 287 612 222 q 671 433 665 351 l 240 433 l 240 536 l 669 536 q 632 684 661 619 q 559 794 604 749 q 454 863 515 839 q 321 886 394 886 q 71 828 184 886 l 71 947 q 321 989 174 989 q 661 847 530 989 q 791 472 791 709 q 665 119 791 254 q 335 -17 539 -17 q 190 -3 256 -17 q 71 40 124 12 z "},"℉":{"ha":1201,"x_min":74,"x_max":1144,"o":"m 261 608 q 189 623 223 608 q 129 663 155 637 q 89 723 104 689 q 74 798 74 758 q 89 870 74 836 q 128 929 103 903 q 187 969 153 954 q 260 983 221 983 q 334 968 299 983 q 394 928 368 954 q 434 869 419 903 q 449 798 449 836 q 434 725 449 760 q 394 665 419 690 q 334 624 368 639 q 261 608 300 608 m 261 904 q 219 896 239 904 q 185 873 199 888 q 162 839 171 859 q 154 798 154 820 q 162 755 154 775 q 184 720 170 735 q 218 696 199 705 q 260 688 237 688 q 302 696 282 688 q 336 720 321 705 q 360 755 351 735 q 368 798 368 775 q 360 839 368 820 q 337 873 351 859 q 303 896 323 888 q 261 904 283 904 m 1144 869 l 765 869 l 765 533 l 1116 533 l 1116 431 l 765 431 l 765 0 l 651 0 l 651 972 l 1144 972 l 1144 869 z "},"ℊ":{"ha":897,"x_min":-20,"x_max":892,"o":"m -20 -148 q 6 -41 -20 -84 q 72 30 32 2 q 160 73 112 57 q 253 98 208 88 l 253 100 q 202 124 227 106 q 158 168 178 141 q 125 232 138 195 q 113 313 113 269 q 123 407 113 359 q 154 499 134 454 q 203 582 174 543 q 270 649 232 621 q 354 695 308 678 q 453 711 399 711 q 505 707 476 711 q 562 695 533 703 q 619 676 591 688 q 671 652 647 665 l 585 193 q 667 239 631 213 q 734 301 703 266 q 795 382 765 336 q 863 488 826 428 l 892 474 q 820 353 854 405 q 749 263 785 301 q 670 198 712 224 q 577 152 629 171 l 568 106 q 501 -105 542 -22 q 410 -237 460 -189 q 306 -306 361 -286 q 196 -326 251 -326 q 110 -313 150 -326 q 42 -277 71 -300 q -4 -221 13 -254 q -20 -148 -20 -189 m 557 642 q 512 669 538 658 q 451 681 486 681 q 353 652 395 681 q 283 573 311 623 q 241 459 256 524 q 227 321 227 393 q 239 232 227 269 q 271 171 251 195 q 317 137 291 148 q 370 127 342 127 q 419 133 396 127 q 467 149 442 138 l 557 642 m 231 -285 q 304 -269 271 -285 q 363 -217 338 -252 q 409 -124 389 -181 q 444 13 429 -68 q 453 70 449 45 q 460 109 457 96 l 457 109 q 408 96 435 102 q 355 85 381 90 q 241 58 294 73 q 149 19 188 43 q 88 -41 111 -5 q 66 -132 66 -77 q 76 -194 66 -166 q 107 -242 87 -222 q 159 -274 128 -262 q 231 -285 190 -285 z "},"ℌ":{"ha":1342,"x_min":39,"x_max":1329,"o":"m 1026 -17 q 985 -5 1003 -17 q 955 28 967 7 q 936 79 942 50 q 929 145 929 109 l 929 526 l 778 374 l 645 507 l 553 418 l 553 327 q 540 251 553 290 q 505 173 527 211 q 452 100 482 134 q 388 40 422 66 q 317 -1 353 14 q 244 -16 280 -16 l 143 86 l 226 168 l 335 56 q 375 85 356 69 q 408 125 394 100 q 431 187 422 150 q 439 279 439 224 l 439 723 q 436 793 439 759 q 422 855 434 828 q 385 899 410 882 q 314 916 359 916 q 247 900 280 916 q 188 861 214 885 q 145 808 161 837 q 129 751 129 779 q 142 716 129 734 q 174 680 155 699 q 215 642 193 661 q 257 602 238 622 q 289 561 276 581 q 302 519 302 540 q 295 483 302 501 q 272 444 288 465 q 231 399 256 423 q 168 346 205 375 l 140 373 q 172 404 160 391 q 191 426 184 416 q 200 444 198 435 q 203 461 203 452 q 191 497 203 479 q 160 533 178 515 q 121 568 142 550 q 81 604 100 585 q 51 643 63 623 q 39 686 39 663 q 53 739 39 707 q 91 804 66 770 q 148 872 115 838 q 220 933 181 906 q 303 976 260 960 q 391 993 347 993 q 458 979 428 993 q 509 935 488 964 q 541 863 530 906 q 553 761 553 819 l 553 465 l 701 613 l 834 480 l 929 576 l 929 722 q 942 799 929 759 q 977 877 955 838 q 1030 949 1000 915 q 1094 1009 1060 983 q 1165 1050 1128 1035 q 1238 1065 1202 1065 l 1329 972 l 1246 890 l 1147 993 q 1107 964 1126 980 q 1074 924 1088 949 q 1051 862 1059 899 q 1043 770 1043 825 l 1043 193 q 1045 152 1043 172 q 1052 115 1046 132 q 1065 89 1057 99 q 1087 78 1074 78 q 1141 104 1114 78 q 1208 177 1169 131 l 1236 151 q 1184 92 1211 121 q 1129 38 1157 62 q 1076 -2 1102 14 q 1026 -17 1049 -17 z "},"ℍ":{"ha":1064,"x_min":127,"x_max":937,"o":"m 937 0 l 717 0 l 717 461 l 347 461 l 347 0 l 127 0 l 127 972 l 347 972 l 347 529 l 717 529 l 717 972 l 937 972 l 937 0 m 869 905 l 785 905 l 785 68 l 869 68 l 869 905 m 279 905 l 195 905 l 195 68 l 279 68 l 279 905 z "},"ℏ":{"ha":809,"x_min":37,"x_max":706,"o":"m 706 519 q 704 493 706 511 q 698 454 701 475 q 691 414 695 434 q 684 380 688 394 l 604 0 l 491 0 l 576 407 q 581 432 578 418 q 586 460 584 446 q 589 487 588 475 q 591 505 591 498 q 567 587 591 558 q 492 616 543 616 q 406 591 449 616 q 325 525 362 566 q 260 435 288 485 q 222 336 233 385 l 149 0 l 37 0 l 211 815 l 119 815 l 138 905 l 230 905 l 256 1028 l 368 1028 l 341 905 l 566 905 l 547 815 l 322 815 l 262 532 l 264 532 q 319 603 290 570 q 383 660 349 636 q 453 698 416 684 q 530 711 490 711 q 661 660 616 711 q 706 519 706 609 z "},"ℑ":{"ha":666,"x_min":39,"x_max":553,"o":"m 226 168 l 335 56 q 375 85 356 69 q 408 125 394 100 q 431 187 422 150 q 439 279 439 224 l 439 723 q 436 793 439 759 q 422 855 434 828 q 385 899 410 882 q 314 916 359 916 q 247 900 280 916 q 188 861 214 885 q 145 808 161 837 q 129 751 129 779 q 142 716 129 734 q 174 680 155 699 q 215 642 193 661 q 257 602 238 622 q 289 561 276 581 q 302 519 302 540 q 295 483 302 501 q 272 444 288 465 q 231 399 256 423 q 168 346 205 375 l 140 373 q 172 404 160 391 q 191 426 184 416 q 200 444 198 435 q 203 461 203 452 q 191 497 203 479 q 160 533 178 515 q 121 568 142 550 q 81 604 100 585 q 51 643 63 623 q 39 686 39 663 q 53 739 39 707 q 91 804 66 770 q 148 872 115 838 q 220 933 181 906 q 303 976 260 960 q 391 993 347 993 q 458 979 428 993 q 509 935 488 964 q 541 863 530 906 q 553 761 553 819 l 553 327 q 540 251 553 290 q 505 173 527 211 q 452 100 482 134 q 388 40 422 66 q 317 -1 353 14 q 244 -16 280 -16 l 143 86 l 226 168 z "},"ℒ":{"ha":922,"x_min":47,"x_max":854,"o":"m 427 522 q 297 548 351 527 q 209 599 243 568 q 158 668 174 630 q 142 747 142 707 q 190 887 142 831 q 340 973 237 943 l 351 951 q 300 929 323 943 q 259 893 277 915 q 232 840 242 871 q 222 767 222 809 q 238 681 222 719 q 282 615 254 643 q 349 571 310 588 q 433 549 387 555 q 493 745 458 663 q 566 882 527 828 q 645 962 604 936 q 724 988 686 988 q 782 977 758 988 q 823 947 806 966 q 847 901 839 928 q 854 842 854 874 q 842 750 854 791 q 806 675 829 709 q 752 616 783 642 q 685 571 721 590 q 609 539 649 552 q 530 520 570 527 q 476 291 510 386 q 395 134 441 196 q 467 96 431 115 q 538 61 503 77 q 608 34 573 45 q 679 24 643 24 q 748 47 726 24 q 769 109 769 71 q 762 148 769 131 q 743 181 755 165 l 758 196 q 804 169 789 186 q 819 118 819 151 q 809 68 819 92 q 778 25 799 43 q 723 -5 756 6 q 642 -17 689 -17 q 557 -8 597 -17 q 480 13 517 0 q 410 42 444 26 q 345 74 376 58 q 245 4 296 24 q 150 -17 195 -17 q 72 8 97 -17 q 47 73 47 34 q 59 121 47 100 q 90 157 71 142 q 137 180 110 172 q 195 189 164 189 q 265 181 232 189 q 331 161 298 174 q 362 244 349 200 q 387 334 376 289 q 406 423 397 379 q 424 505 415 467 l 427 522 m 722 958 q 665 940 692 958 q 614 874 637 921 q 571 749 591 828 q 535 551 551 671 q 636 582 589 558 q 718 643 684 606 q 773 730 753 680 q 793 842 793 781 q 789 887 793 866 q 777 924 785 908 q 755 949 769 940 q 722 958 742 958 m 155 14 q 235 36 200 14 q 296 98 269 59 q 233 120 264 111 q 172 130 203 130 q 109 112 129 130 q 90 67 90 94 q 106 29 90 44 q 155 14 122 14 z "},"ℓ":{"ha":505,"x_min":27,"x_max":455,"o":"m 27 286 l 149 446 l 149 754 q 190 958 149 907 q 307 1011 233 1011 q 368 999 340 1011 q 415 965 395 987 q 445 914 434 944 q 455 848 455 884 q 407 684 455 783 q 262 452 359 585 l 262 170 q 264 121 262 139 q 271 94 267 103 q 283 83 276 85 q 301 81 291 81 q 435 153 334 81 l 435 43 q 283 -17 359 -17 q 149 147 149 -17 l 149 300 l 94 233 l 27 286 m 262 610 q 320 714 298 673 q 348 774 342 755 q 361 848 361 812 q 309 929 361 929 q 276 908 290 929 q 262 764 262 888 l 262 610 z "},"℔":{"ha":1166,"x_min":31,"x_max":1098,"o":"m 234 905 l 459 905 l 459 1028 l 570 1028 l 570 905 l 795 905 l 795 815 l 570 815 l 570 572 l 573 572 q 813 711 654 711 q 932 686 880 711 q 1022 615 985 661 q 1078 507 1059 570 q 1098 368 1098 444 q 1076 210 1098 281 q 1014 89 1055 139 q 914 11 972 38 q 781 -17 855 -17 q 573 100 644 -17 l 570 100 l 570 0 l 459 0 l 459 815 l 234 815 l 234 0 l 123 0 l 123 815 l 31 815 l 31 905 l 123 905 l 123 1028 l 234 1028 l 234 905 m 984 370 q 970 474 984 428 q 930 551 956 519 q 868 600 905 583 q 785 616 831 616 q 697 599 737 616 q 630 550 658 581 q 586 475 602 518 q 570 380 570 431 l 570 283 q 585 203 570 240 q 627 138 600 165 q 690 94 654 110 q 769 78 726 78 q 859 98 819 78 q 926 155 899 117 q 969 247 954 193 q 984 370 984 300 z "},"ℕ":{"ha":1064,"x_min":111,"x_max":953,"o":"m 953 0 l 851 0 l 182 673 l 179 673 l 179 0 l 111 0 l 111 972 l 211 972 l 882 300 l 885 300 l 885 972 l 953 972 l 953 0 m 885 68 l 885 199 l 179 905 l 179 772 l 885 68 z "},"№":{"ha":1558,"x_min":127,"x_max":1493,"o":"m 1235 410 q 1128 429 1175 410 q 1049 485 1081 448 q 1000 574 1017 522 q 983 693 983 627 q 1052 911 983 836 q 1247 986 1120 986 q 1431 913 1368 986 q 1493 703 1493 840 q 1476 581 1493 635 q 1424 489 1458 527 q 1343 430 1391 451 q 1235 410 1295 410 m 1242 895 q 1127 843 1168 895 q 1086 696 1086 791 q 1239 501 1086 501 q 1389 697 1389 501 q 1242 895 1389 895 m 869 0 l 728 0 l 271 771 q 253 805 260 790 q 240 831 245 819 l 236 831 q 240 782 239 815 q 241 699 241 749 l 241 0 l 127 0 l 127 972 l 277 972 l 758 150 l 761 150 q 756 202 758 167 q 755 292 755 237 l 755 972 l 869 972 l 869 0 m 1472 215 l 1004 215 l 1004 306 l 1472 306 l 1472 215 z "},"℗":{"ha":1236,"x_min":110,"x_max":1126,"o":"m 618 -22 q 483 -4 548 -22 q 362 47 418 14 q 259 127 306 81 q 180 230 213 174 q 128 352 146 287 q 110 486 110 416 q 128 621 110 556 q 180 743 146 686 q 260 845 213 799 q 363 925 307 892 q 484 976 419 958 q 618 994 549 994 q 752 976 688 994 q 874 924 817 958 q 977 845 930 891 q 1057 742 1023 798 q 1108 621 1090 686 q 1126 486 1126 556 q 1108 352 1126 416 q 1057 230 1090 287 q 978 127 1024 174 q 874 47 931 81 q 753 -4 818 14 q 618 -22 688 -22 m 618 935 q 499 919 556 935 q 392 873 442 903 q 301 803 342 844 q 231 712 260 762 q 186 605 202 663 q 170 486 170 548 q 205 312 170 393 q 302 169 241 230 q 445 73 363 108 q 618 37 526 37 q 737 54 680 37 q 844 99 794 70 q 935 169 894 128 q 1005 260 976 210 q 1051 368 1035 311 q 1067 486 1067 425 q 1051 605 1067 547 q 1005 712 1035 662 q 935 803 976 762 q 844 873 894 844 q 737 918 794 902 q 618 935 680 935 m 529 389 l 529 168 l 440 168 l 440 815 l 635 815 q 811 763 749 815 q 873 608 873 710 q 860 530 873 569 q 817 459 846 491 q 739 408 787 428 q 624 389 692 389 l 529 389 m 529 737 l 529 467 l 616 467 q 698 478 666 467 q 749 510 730 490 q 775 554 768 530 q 782 604 782 578 q 773 660 782 635 q 745 702 764 685 q 695 728 726 719 q 621 737 664 737 l 529 737 z "},"℘":{"ha":858,"x_min":42,"x_max":781,"o":"m 305 683 q 260 635 281 660 q 224 580 239 610 q 200 515 209 551 q 191 434 191 479 q 199 331 191 389 q 225 208 207 274 q 318 363 271 288 q 413 504 364 439 q 514 622 462 570 q 625 708 567 675 q 697 659 667 688 q 745 596 726 630 q 773 523 764 562 q 781 442 781 484 q 768 334 781 389 q 732 228 755 279 q 679 132 709 177 q 614 55 648 87 q 544 2 580 22 q 473 -17 507 -17 q 440 -13 457 -17 q 406 -3 422 -9 q 376 11 390 3 q 352 26 362 18 l 406 127 q 484 86 445 103 q 570 65 523 68 q 667 191 632 115 q 702 358 702 267 q 693 441 702 402 q 667 513 684 481 q 625 570 650 546 q 566 610 600 595 q 499 552 536 592 q 421 453 463 511 q 334 321 379 395 q 241 163 288 248 q 293 2 273 79 q 313 -145 313 -74 q 304 -183 313 -163 q 281 -223 296 -203 q 249 -262 267 -243 q 210 -296 230 -281 q 170 -318 190 -310 q 132 -327 149 -327 q 98 -319 115 -327 q 70 -299 82 -312 q 50 -267 57 -286 q 42 -227 42 -248 q 70 -86 42 -161 q 151 79 97 -12 q 132 138 142 105 q 113 210 122 172 q 97 291 103 248 q 90 379 90 333 q 97 427 90 400 q 115 482 103 453 q 143 542 127 511 q 181 602 160 572 q 226 659 201 631 q 277 708 250 686 l 305 683 m 165 30 q 131 -47 143 -9 q 118 -129 118 -86 q 122 -171 118 -149 q 135 -212 125 -193 q 159 -242 144 -230 q 199 -254 175 -254 q 202 -222 201 -238 q 203 -189 203 -206 q 200 -128 203 -159 q 192 -69 197 -98 q 181 -15 187 -40 q 168 30 174 10 l 165 30 z "},"ℙ":{"ha":826,"x_min":127,"x_max":770,"o":"m 347 385 l 347 0 l 127 0 l 127 972 l 467 972 q 602 952 545 972 q 696 892 659 931 q 752 799 734 854 q 770 675 770 744 q 747 549 770 604 q 683 458 724 494 q 585 403 642 421 q 463 385 529 385 l 347 385 m 524 452 l 524 905 l 347 905 l 347 452 l 524 452 m 699 675 q 670 817 699 765 q 592 890 642 869 l 592 472 q 638 504 618 486 q 672 546 659 522 q 692 602 685 570 q 699 675 699 634 m 279 68 l 279 905 l 195 905 l 195 68 l 279 68 z "},"ℚ":{"ha":1047,"x_min":66,"x_max":1007,"o":"m 919 -119 q 966 -116 945 -119 q 1007 -106 987 -113 l 1007 -239 q 980 -250 994 -245 q 953 -259 967 -255 q 922 -264 939 -262 q 883 -266 905 -266 q 791 -256 837 -266 q 696 -219 745 -246 q 596 -143 648 -191 q 487 -16 545 -94 q 309 33 387 -7 q 177 136 231 72 q 94 285 123 199 q 66 473 66 371 q 100 690 66 594 q 195 852 134 786 q 343 954 256 919 q 534 989 429 989 q 719 954 636 989 q 860 855 802 920 q 950 699 918 791 q 982 493 982 608 q 961 322 982 401 q 903 183 941 244 q 814 80 866 122 q 700 17 762 37 q 762 -53 732 -26 q 819 -95 791 -80 q 871 -114 846 -109 q 919 -119 897 -119 m 526 932 q 411 917 465 932 q 314 872 358 901 l 314 98 q 413 54 360 68 q 522 39 465 39 q 635 54 582 39 q 735 98 689 69 l 735 874 q 640 917 692 903 q 526 932 587 932 m 134 463 q 164 285 134 362 q 246 154 194 208 l 246 814 q 162 664 191 752 q 134 463 134 575 m 914 477 q 886 671 914 585 q 803 817 857 758 l 803 155 q 885 292 855 211 q 914 477 914 372 m 887 -216 q 930 -213 912 -216 q 965 -205 949 -210 l 965 -157 q 944 -161 957 -159 q 918 -162 930 -162 q 845 -155 878 -162 q 781 -130 812 -148 q 718 -79 750 -111 q 647 3 686 -47 q 602 -8 627 -3 q 557 -14 577 -13 q 650 -119 607 -79 q 733 -180 694 -158 q 810 -209 772 -201 q 887 -216 848 -216 z "},"ℜ":{"ha":1170,"x_min":47,"x_max":1135,"o":"m 925 -17 q 884 -5 902 -17 q 853 28 866 7 q 834 79 841 50 q 828 145 828 109 l 828 303 q 813 389 828 358 q 772 436 798 420 q 714 456 747 452 q 645 460 681 460 l 635 460 q 600 444 618 452 q 562 429 581 436 l 562 327 q 549 251 562 290 q 513 173 536 211 q 461 100 491 134 q 396 40 431 66 q 326 -1 362 14 q 253 -16 289 -16 l 152 86 l 235 168 l 344 56 q 384 85 365 69 q 417 125 403 100 q 439 187 431 150 q 448 279 448 224 l 448 723 q 445 793 448 759 q 431 855 443 828 q 393 899 418 882 q 323 916 368 916 q 256 900 289 916 q 196 861 222 885 q 154 808 170 837 q 138 751 138 779 q 151 716 138 734 q 182 680 163 699 q 224 642 201 661 q 266 602 247 622 q 298 561 285 581 q 311 519 311 540 q 303 483 311 501 q 281 444 296 465 q 239 399 265 423 q 177 346 214 375 l 149 373 q 181 404 169 391 q 200 426 193 416 q 209 444 207 435 q 212 461 212 452 q 199 497 212 479 q 169 533 187 515 q 130 568 151 550 q 90 604 109 585 q 60 643 72 623 q 47 686 47 663 q 61 739 47 707 q 99 804 75 770 q 157 872 123 838 q 229 933 190 906 q 312 976 269 960 q 399 993 355 993 q 466 979 437 993 q 514 940 494 965 q 546 879 534 914 q 560 800 557 843 q 620 866 587 832 q 684 929 652 901 q 744 975 715 957 q 791 993 772 993 q 845 981 814 993 q 903 944 876 970 q 950 876 930 918 q 969 772 969 833 q 955 723 969 751 q 914 662 941 694 q 847 593 887 629 q 753 524 806 558 q 838 510 802 522 q 897 474 874 498 q 931 411 920 449 q 942 317 942 372 l 942 193 q 944 152 942 172 q 950 115 945 132 q 964 89 956 99 q 986 78 972 78 q 1040 104 1013 78 q 1107 177 1068 131 l 1135 151 q 1083 92 1110 121 q 1028 38 1056 62 q 975 -2 1001 14 q 925 -17 948 -17 m 851 739 q 840 814 851 784 q 809 862 828 844 q 765 887 789 880 q 714 895 741 895 q 687 878 700 887 q 657 852 673 868 q 618 813 641 837 q 562 751 595 789 l 562 470 q 781 591 711 524 q 851 739 851 659 z "},"ℝ":{"ha":895,"x_min":127,"x_max":889,"o":"m 768 708 q 726 553 768 617 q 606 456 684 488 l 889 0 l 642 0 l 401 421 l 347 421 l 347 0 l 127 0 l 127 972 l 455 972 q 594 955 535 972 q 692 903 653 937 q 749 820 730 869 q 768 708 768 771 m 522 489 l 522 905 l 347 905 l 347 489 l 522 489 m 696 708 q 669 828 696 784 q 590 892 641 873 l 590 513 q 632 541 613 524 q 666 580 652 557 q 688 635 680 604 q 696 708 696 666 m 683 60 l 779 60 l 548 435 q 510 428 531 431 q 472 423 490 425 l 683 60 m 279 61 l 279 905 l 195 905 l 195 61 l 279 61 z "},"℞":{"ha":900,"x_min":127,"x_max":871,"o":"m 584 215 l 543 272 q 493 335 515 309 q 447 379 471 362 q 395 405 422 397 q 329 414 367 414 l 241 414 l 241 0 l 127 0 l 127 972 l 418 972 q 535 956 481 972 q 629 908 589 940 q 691 827 669 876 q 714 714 714 779 q 699 621 714 663 q 655 545 684 578 q 587 488 627 511 q 497 452 547 464 l 497 449 q 573 394 538 431 q 650 302 609 357 l 758 448 l 871 448 l 706 226 l 871 0 l 743 0 l 641 138 l 538 0 l 424 0 l 584 215 m 241 869 l 241 517 l 396 517 q 475 530 439 517 q 538 567 511 543 q 580 625 565 591 q 595 704 595 660 q 544 826 595 783 q 397 869 494 869 l 241 869 z "},"℟":{"ha":858,"x_min":127,"x_max":852,"o":"m 277 1216 l 650 1088 l 600 942 q 658 906 632 927 q 703 856 684 884 q 731 792 721 827 q 741 714 741 757 q 726 621 741 663 q 682 545 711 578 q 614 488 654 511 q 524 452 574 464 l 524 449 q 567 424 549 437 q 601 391 585 410 q 633 347 617 372 q 669 292 649 323 l 852 0 l 716 0 l 553 272 q 488 363 519 329 q 418 412 457 398 l 212 -190 l 127 -190 l 193 0 l 127 0 l 127 972 l 445 972 q 485 971 465 972 q 523 966 505 969 l 547 1036 l 250 1139 l 277 1216 m 241 869 l 241 510 l 367 510 l 488 863 q 425 869 459 869 l 241 869 m 622 704 q 562 832 622 790 l 452 512 q 521 532 490 517 q 574 573 552 548 q 609 631 597 597 q 622 704 622 664 m 241 142 l 336 420 l 241 420 l 241 142 z "},"℠":{"ha":1057,"x_min":75,"x_max":930,"o":"m 930 524 l 857 524 l 857 848 l 854 848 l 705 524 l 665 524 l 520 848 l 517 848 l 517 524 l 448 524 l 448 972 l 534 972 l 687 636 l 690 636 l 844 972 l 930 972 l 930 524 m 76 623 q 129 594 97 605 q 193 583 161 583 q 225 586 210 583 q 251 596 240 589 q 269 615 262 604 q 276 642 276 626 q 272 665 276 655 q 258 684 268 675 q 231 701 248 692 q 191 722 215 710 q 140 748 161 735 q 103 775 118 761 q 82 808 89 790 q 75 850 75 825 q 89 910 75 885 q 125 950 103 935 q 175 973 148 966 q 227 980 202 980 q 256 979 240 980 q 288 976 272 978 q 318 969 303 973 q 343 960 332 966 l 343 887 q 321 899 334 893 q 293 908 308 904 q 262 915 278 912 q 231 917 246 917 q 173 903 195 917 q 151 857 151 888 q 156 834 151 844 q 170 817 161 825 q 193 802 180 809 q 224 787 207 795 q 270 765 248 777 q 311 737 293 753 q 341 701 330 722 q 352 652 352 680 q 340 597 352 621 q 308 555 329 572 q 257 529 287 538 q 193 519 228 519 q 128 527 159 519 q 76 547 97 534 l 76 623 z "},"℡":{"ha":1074,"x_min":52,"x_max":1022,"o":"m 408 382 l 267 382 l 267 0 l 191 0 l 191 382 l 52 382 l 52 449 l 408 449 l 408 382 m 713 0 l 465 0 l 465 449 l 703 449 l 703 382 l 541 382 l 541 262 l 690 262 l 690 195 l 541 195 l 541 66 l 713 66 l 713 0 m 1022 0 l 770 0 l 770 449 l 845 449 l 845 66 l 1022 66 l 1022 0 z "},"℣":{"ha":863,"x_min":12,"x_max":850,"o":"m 850 972 l 490 0 l 366 0 l 317 132 l 207 -190 l 122 -190 l 273 253 l 12 972 l 139 972 l 331 422 l 542 1036 l 245 1139 l 271 1216 l 645 1088 l 374 298 l 408 201 q 428 115 422 163 l 431 115 q 439 157 434 135 q 453 203 444 179 l 728 972 l 850 972 z "},"ℤ":{"ha":791,"x_min":22,"x_max":762,"o":"m 762 0 l 22 0 l 22 68 l 537 905 l 58 905 l 58 972 l 761 972 l 761 905 l 255 68 l 762 68 l 762 0 m 97 68 l 180 68 l 688 905 l 610 905 l 97 68 z "},"℥":{"ha":693,"x_min":31,"x_max":646,"o":"m 31 -160 q 263 -231 142 -231 q 371 -214 321 -231 q 456 -169 420 -198 q 513 -98 492 -139 q 533 -9 533 -58 q 514 80 533 41 q 457 148 494 120 q 366 190 420 175 q 242 204 311 204 l 187 204 l 187 239 l 441 555 l 68 555 l 68 649 l 244 649 l 431 878 l 68 878 l 68 972 l 594 972 l 594 938 l 357 649 l 604 649 l 604 614 l 340 292 q 472 258 414 283 q 568 194 529 233 q 626 105 606 156 q 646 -7 646 54 q 617 -134 646 -76 q 535 -235 587 -193 q 413 -301 484 -277 q 259 -325 342 -325 q 141 -311 197 -325 q 31 -269 84 -298 l 31 -160 z "},"Ω":{"ha":1048,"x_min":68,"x_max":983,"o":"m 983 0 l 631 0 l 631 100 q 865 529 865 273 q 840 678 865 612 q 770 791 815 745 q 663 864 725 838 q 528 889 601 889 q 391 864 454 889 q 283 793 328 840 q 212 680 237 747 q 186 529 186 613 q 421 100 186 272 l 421 0 l 68 0 l 68 100 l 304 100 q 127 288 186 180 q 68 532 68 395 q 101 722 68 637 q 193 866 134 807 q 337 957 253 925 q 524 989 421 989 q 713 958 628 989 q 858 868 798 926 q 951 725 918 809 q 983 533 983 640 q 747 100 983 261 l 983 100 l 983 0 z "},"℧":{"ha":1048,"x_min":68,"x_max":983,"o":"m 983 873 l 747 873 q 983 439 983 711 q 951 248 983 332 q 858 105 918 163 q 713 15 798 46 q 524 -16 628 -16 q 337 16 421 -16 q 193 106 253 47 q 101 250 134 165 q 68 441 68 335 q 127 685 68 578 q 304 873 186 792 l 68 873 l 68 972 l 421 972 l 421 873 q 186 444 186 701 q 212 293 186 359 q 283 179 237 226 q 391 108 328 133 q 528 83 454 83 q 663 109 601 83 q 770 181 725 134 q 840 294 815 228 q 865 444 865 361 q 631 873 865 700 l 631 972 l 983 972 l 983 873 z "},"ℨ":{"ha":705,"x_min":34,"x_max":625,"o":"m 616 366 q 596 256 616 307 q 542 163 576 205 q 462 89 508 121 q 362 33 416 56 q 251 -2 309 10 q 135 -16 193 -15 l 34 86 l 117 168 l 243 41 q 298 52 269 44 q 358 74 328 60 q 416 109 389 87 q 466 158 444 130 q 500 224 488 187 q 513 309 513 262 q 453 476 513 410 q 274 558 393 542 l 182 492 l 157 526 q 264 606 213 564 q 359 692 315 648 q 443 781 404 736 q 513 869 481 826 l 249 869 q 173 867 201 869 q 128 863 145 866 q 100 853 111 859 q 79 838 90 848 l 58 854 l 139 1036 l 181 1036 l 154 972 l 625 972 l 625 943 q 573 872 603 911 q 510 793 544 833 q 440 714 476 753 q 368 642 404 675 l 368 639 q 473 604 427 631 q 551 538 519 576 q 599 455 583 500 q 616 366 616 410 z "},"℩":{"ha":398,"x_min":32,"x_max":272,"o":"m 161 -1 l 161 511 q 93 605 161 605 q 32 592 64 605 l 32 687 q 114 702 75 702 q 272 515 272 702 l 272 -1 l 161 -1 z "},"K":{"ha":806,"x_min":127,"x_max":804,"o":"m 804 0 l 646 0 l 269 444 q 253 466 259 457 q 244 479 247 474 l 241 479 l 241 0 l 127 0 l 127 972 l 241 972 l 241 515 l 244 515 q 256 531 250 523 q 269 549 262 539 l 633 972 l 775 972 l 358 505 l 804 0 z "},"Å":{"ha":896,"x_min":15,"x_max":880,"o":"m 880 0 l 754 0 l 651 273 l 239 273 l 142 0 l 15 0 l 374 935 q 305 1046 305 970 q 316 1100 305 1076 q 346 1143 327 1125 q 392 1171 366 1161 q 449 1181 418 1181 q 503 1171 478 1181 q 546 1144 528 1161 q 574 1102 564 1126 q 585 1050 585 1078 q 519 937 585 974 l 880 0 m 445 1125 q 389 1104 410 1125 q 368 1050 368 1082 q 445 972 368 972 q 475 979 461 972 q 500 995 490 985 q 516 1019 510 1005 q 522 1050 522 1034 q 516 1080 522 1066 q 500 1104 510 1094 q 475 1120 490 1114 q 445 1125 461 1125 m 614 375 l 461 789 q 454 816 458 800 q 446 854 450 832 l 444 854 q 428 789 437 814 l 277 375 l 614 375 z "},"ℭ":{"ha":884,"x_min":77,"x_max":854,"o":"m 588 989 q 634 974 610 989 q 679 942 658 960 q 716 910 700 924 q 742 895 733 895 q 772 910 755 895 q 818 958 790 924 l 829 972 l 854 950 q 812 897 835 924 q 765 848 789 870 q 721 813 742 827 q 684 800 699 800 q 648 814 668 800 q 605 850 627 829 q 559 894 583 871 q 513 930 535 916 q 479 904 496 923 q 449 859 463 886 q 426 801 435 833 q 416 736 416 769 q 435 678 416 709 q 483 615 454 647 q 544 552 511 583 q 605 491 577 520 q 652 436 633 462 q 671 392 671 411 q 656 338 671 365 q 620 288 642 311 q 576 244 599 264 q 538 213 553 225 l 510 240 q 542 271 530 258 q 561 293 554 283 q 569 311 567 302 q 572 328 572 319 q 554 370 572 347 q 511 420 537 394 q 456 475 486 447 q 400 532 426 504 q 357 588 374 561 q 340 641 340 616 q 349 716 340 677 q 373 790 358 754 q 406 856 388 825 q 441 907 423 886 q 401 887 425 900 q 349 852 377 873 q 294 800 321 831 q 243 727 266 770 q 207 627 221 684 q 193 499 193 571 q 208 360 193 421 q 249 253 222 299 q 310 176 275 208 q 386 124 345 144 q 470 95 426 104 q 557 86 514 86 q 621 90 590 86 q 679 101 651 94 q 729 117 706 108 q 770 136 753 125 l 814 191 l 842 168 q 809 124 825 146 q 776 83 792 102 q 746 49 760 64 q 720 22 731 33 q 679 6 699 13 q 637 -6 659 -1 q 589 -14 614 -11 q 534 -16 564 -16 q 343 18 428 -16 q 200 113 259 52 q 109 260 141 174 q 77 450 77 347 q 103 602 77 531 q 172 733 130 673 q 270 841 215 793 q 381 921 324 888 q 492 971 438 954 q 588 989 546 989 z "},"℮":{"ha":833,"x_min":58,"x_max":777,"o":"m 214 359 l 215 109 q 415 26 297 26 q 684 193 589 26 l 732 164 q 662 77 697 113 q 588 18 626 41 q 507 -14 549 -4 q 416 -24 465 -24 q 270 6 336 -24 q 157 87 204 35 q 84 208 110 138 q 58 359 58 278 q 85 517 58 446 q 160 638 113 588 q 273 716 208 688 q 414 743 338 743 q 549 719 486 743 q 662 647 613 695 q 741 527 711 599 q 777 359 771 455 l 214 359 m 618 410 l 618 611 q 412 694 530 694 q 214 611 295 694 l 214 410 l 618 410 z "},"ℯ":{"ha":881,"x_min":34,"x_max":842,"o":"m 646 549 q 619 458 646 498 q 546 392 592 419 q 439 351 500 366 q 310 337 378 337 q 265 339 286 337 q 226 342 244 340 q 225 335 226 340 q 225 322 225 329 q 224 309 224 315 q 224 301 224 303 q 238 203 224 245 q 275 131 251 160 q 332 87 298 102 q 405 73 365 73 q 492 87 452 73 q 571 131 532 102 q 649 202 610 159 q 731 302 688 245 q 772 358 752 330 q 812 419 793 387 l 842 396 q 715 221 774 298 q 597 92 655 144 q 481 11 540 39 q 357 -16 422 -16 q 258 5 302 -16 q 182 66 214 27 q 134 160 151 105 q 117 280 117 214 q 118 315 117 300 q 121 346 119 331 l 119 347 q 80 300 103 324 q 34 256 56 275 l 34 293 q 73 342 53 315 q 112 396 91 365 q 152 467 132 428 q 286 647 211 583 q 451 711 360 711 q 542 696 505 711 q 602 657 579 681 q 635 605 625 633 q 646 549 646 576 m 557 561 q 552 607 557 585 q 533 646 546 629 q 500 671 521 662 q 451 681 480 681 q 377 663 412 681 q 312 606 341 644 q 261 510 282 568 q 229 373 239 452 q 260 370 243 372 q 300 368 278 368 q 408 379 360 368 q 489 415 456 391 q 540 475 522 439 q 557 561 557 512 z "},"Ⅎ":{"ha":677,"x_min":56,"x_max":550,"o":"m 56 103 l 436 103 l 436 439 l 85 439 l 85 542 l 436 542 l 436 972 l 550 972 l 550 0 l 56 0 l 56 103 z "},"ℳ":{"ha":1505,"x_min":14,"x_max":1449,"o":"m 92 111 q 101 71 92 89 q 126 40 110 53 q 166 21 143 28 q 217 14 189 14 q 332 43 285 14 q 416 135 379 73 q 484 293 452 197 q 553 522 516 389 q 608 702 582 623 q 662 841 633 782 q 723 938 690 900 q 798 992 756 975 q 824 982 814 992 q 834 956 834 972 q 778 923 795 947 q 761 851 761 898 q 768 769 761 814 q 785 673 774 724 q 807 568 795 622 q 829 459 819 513 q 846 351 839 404 q 852 249 852 298 l 855 249 q 959 474 905 374 q 1065 652 1012 574 q 1170 787 1119 730 q 1267 884 1221 844 q 1351 948 1312 924 q 1416 983 1389 972 q 1438 975 1428 983 q 1449 951 1449 967 q 1440 929 1449 936 q 1419 918 1432 923 q 1394 908 1407 913 q 1369 889 1380 902 q 1333 823 1350 865 q 1299 726 1315 781 q 1270 607 1283 671 q 1247 475 1257 543 q 1233 340 1238 408 q 1227 212 1227 273 q 1244 85 1227 126 q 1303 43 1261 43 q 1342 54 1325 43 q 1374 80 1360 64 q 1399 116 1388 96 q 1421 155 1410 136 l 1446 142 q 1397 60 1421 91 q 1349 12 1373 29 q 1301 -11 1324 -5 q 1254 -17 1277 -17 q 1191 -3 1217 -17 q 1148 35 1164 10 q 1124 95 1131 60 q 1116 172 1116 130 q 1124 295 1116 232 q 1145 419 1132 357 q 1176 542 1158 481 q 1213 656 1194 602 q 1253 759 1232 711 q 1291 845 1273 807 l 1289 846 q 1221 780 1254 814 q 1154 702 1187 745 q 1085 607 1120 659 q 1014 488 1050 554 q 939 338 977 421 q 857 152 900 255 q 802 25 823 67 q 768 -17 781 -17 q 736 0 744 -17 q 737 15 736 7 q 742 32 739 22 q 750 55 745 41 q 764 89 755 68 q 759 211 764 157 q 746 313 753 266 q 730 404 739 361 q 713 492 721 447 q 701 586 706 536 q 696 694 696 635 q 701 781 696 744 q 712 848 705 817 l 709 848 q 684 792 696 821 q 661 728 672 764 q 637 648 649 693 q 610 543 625 603 q 552 337 581 425 q 493 187 523 250 q 431 85 463 125 q 365 23 399 45 q 293 -8 331 0 q 212 -17 254 -17 q 120 -1 158 -17 q 59 41 83 16 q 24 98 35 66 q 14 162 14 130 q 20 209 14 186 q 38 249 26 232 q 66 277 50 267 q 102 288 82 288 q 135 277 121 288 q 149 243 149 266 q 140 214 149 225 q 120 189 131 202 q 101 158 110 176 q 92 111 92 140 z "},"ℴ":{"ha":878,"x_min":7,"x_max":852,"o":"m 437 711 q 539 689 497 711 q 609 628 582 666 q 649 539 636 589 q 661 434 661 489 q 659 385 661 411 q 653 332 657 359 q 644 282 650 306 q 632 239 639 258 q 686 265 659 247 q 737 308 713 283 q 783 362 762 332 q 823 425 805 393 l 852 407 q 811 344 834 376 q 759 284 787 312 q 698 234 730 256 q 631 201 666 212 l 618 197 q 569 109 597 149 q 505 41 541 69 q 423 -2 468 13 q 324 -17 378 -17 q 217 8 262 -17 q 145 75 173 33 q 103 173 117 117 q 90 289 90 228 q 91 317 90 302 q 94 346 92 332 l 89 347 q 71 321 79 333 q 52 299 62 310 q 32 278 43 289 q 7 256 21 268 l 7 292 q 40 333 25 313 q 68 375 55 353 q 95 419 82 396 q 123 470 109 442 q 263 652 186 593 q 437 711 340 711 m 562 226 q 583 324 576 273 q 590 431 590 374 q 581 527 590 481 q 552 607 571 572 q 503 661 532 641 q 432 681 473 681 q 328 648 372 681 q 255 562 284 615 q 212 441 226 509 q 197 304 197 374 q 211 186 197 238 q 248 99 224 134 q 306 45 272 64 q 380 27 340 27 q 432 36 408 27 q 474 57 455 44 q 506 87 492 71 q 529 121 520 104 q 495 136 509 121 q 481 170 481 151 q 501 208 481 194 q 562 226 520 222 z "},"ℵ":{"ha":977,"x_min":75,"x_max":909,"o":"m 909 0 l 770 0 l 355 467 q 280 425 309 448 q 235 371 252 403 q 212 293 219 338 q 200 183 204 248 l 188 0 l 75 0 l 88 183 q 102 300 92 247 q 135 396 112 353 q 197 474 158 439 q 298 534 235 508 l 78 778 l 222 778 l 543 414 q 656 457 614 432 q 719 516 697 483 q 750 591 741 549 q 764 683 758 632 l 774 778 l 887 778 l 878 688 q 851 557 871 613 q 799 459 832 500 q 718 389 766 417 q 606 342 670 360 l 909 0 z "},"ℶ":{"ha":741,"x_min":61,"x_max":699,"o":"m 607 106 l 699 106 l 699 0 l 61 0 l 61 106 l 500 106 l 500 424 q 488 547 500 498 q 449 623 476 595 q 380 661 422 650 q 277 672 338 672 l 93 672 l 93 778 l 277 778 q 441 758 377 778 q 542 695 505 738 q 593 587 578 653 q 607 428 607 520 l 607 106 z "},"ℷ":{"ha":517,"x_min":25,"x_max":491,"o":"m 491 0 l 380 0 l 300 246 q 283 194 292 217 q 262 152 274 172 q 233 116 250 133 q 193 83 216 100 q 140 48 170 66 q 68 7 109 30 l 25 -16 l 25 108 l 62 129 q 137 173 105 153 q 192 213 169 193 q 229 252 214 232 q 253 298 244 273 q 264 354 261 323 q 268 427 268 385 l 268 524 q 267 575 268 554 q 261 611 266 597 q 248 632 257 625 q 224 644 239 640 l 81 681 l 81 798 l 277 745 q 329 720 309 736 q 358 679 348 703 q 372 621 368 654 q 375 545 375 587 l 375 400 q 383 332 375 365 q 401 267 391 300 l 491 0 z "},"ℸ":{"ha":679,"x_min":12,"x_max":650,"o":"m 545 672 l 545 0 l 439 0 l 439 672 l 12 672 l 12 778 l 650 778 l 650 672 l 545 672 z "},"ℹ":{"ha":1147,"x_min":492,"x_max":656,"o":"m 574 694 q 541 700 556 694 q 515 716 526 706 q 498 740 504 726 q 492 769 492 753 q 515 822 492 802 q 574 842 538 842 q 634 822 611 842 q 656 769 656 802 q 634 715 656 736 q 574 694 611 694 m 645 127 l 502 127 l 502 622 l 645 622 l 645 127 z "},"℺":{"ha":1348,"x_min":64,"x_max":1315,"o":"m 1315 867 q 1296 750 1315 802 q 1243 653 1276 699 q 1165 566 1210 608 q 1069 478 1120 524 q 1015 289 1058 372 q 906 148 972 205 q 751 60 839 90 q 564 29 664 29 q 372 59 463 29 q 213 148 281 90 q 104 292 144 206 q 64 488 64 377 q 82 621 64 559 q 133 733 100 682 q 211 825 165 785 q 312 892 257 865 q 429 934 367 920 q 558 949 492 949 q 728 929 648 949 q 872 868 808 909 q 983 762 937 826 q 1053 608 1029 697 q 1122 677 1093 646 q 1171 739 1152 709 q 1200 801 1190 769 q 1209 873 1209 833 q 1205 924 1209 897 q 1193 972 1200 951 l 1303 972 q 1312 920 1309 949 q 1315 867 1315 890 m 183 493 q 211 341 183 408 q 289 228 239 275 q 411 157 340 182 q 568 132 481 132 q 724 158 654 132 q 845 231 795 184 q 923 346 895 279 q 951 494 951 412 q 924 639 951 574 q 847 750 897 704 q 727 821 798 795 q 569 846 656 846 q 410 824 481 846 q 289 757 339 802 q 211 647 238 713 q 183 493 183 581 z "},"℻":{"ha":1555,"x_min":127,"x_max":1517,"o":"m 1004 0 l 880 0 l 827 272 l 635 272 l 585 0 l 467 0 l 666 972 l 801 972 l 1004 0 m 1517 0 l 1389 0 l 1286 304 q 1276 341 1280 319 q 1270 389 1272 364 l 1267 389 q 1261 347 1267 371 q 1251 304 1256 322 l 1154 0 l 1024 0 l 1210 486 l 1033 972 l 1166 972 l 1255 688 q 1266 639 1262 663 q 1273 592 1270 614 l 1276 592 q 1284 648 1280 625 q 1295 688 1289 671 l 1386 972 l 1506 972 l 1331 490 l 1517 0 m 465 869 l 241 869 l 241 533 l 448 533 l 448 431 l 241 431 l 241 0 l 127 0 l 127 972 l 465 972 l 465 869 m 755 694 q 743 780 748 742 q 735 855 738 817 l 732 855 q 722 781 728 819 q 708 694 715 743 l 656 375 l 808 375 l 755 694 z "},"ℽ":{"ha":803,"x_min":1,"x_max":726,"o":"m 650 551 q 645 625 650 591 q 629 694 640 660 l 710 694 q 722 628 718 663 q 726 554 726 593 q 711 406 726 479 q 669 263 696 332 q 603 132 642 194 q 515 18 564 69 q 509 -72 512 -26 q 503 -163 506 -119 q 496 -250 499 -208 q 490 -326 492 -292 l 271 -326 q 291 -151 282 -230 q 302 0 299 -71 q 177 345 253 173 q 1 694 101 516 l 243 694 q 316 550 283 619 q 380 409 350 480 q 437 262 410 338 q 492 98 465 186 l 496 98 q 559 193 531 141 q 607 303 587 245 q 638 424 627 361 q 650 551 650 487 m 369 10 q 365 -65 368 -28 q 359 -137 362 -102 q 353 -203 356 -172 q 347 -258 349 -234 l 429 -258 q 440 -127 435 -195 q 448 18 445 -58 q 337 340 401 189 q 206 627 274 492 l 111 627 q 250 339 188 493 q 369 10 313 184 z "},"ℾ":{"ha":745,"x_min":127,"x_max":688,"o":"m 688 905 l 347 905 l 347 0 l 127 0 l 127 972 l 688 972 l 688 905 m 279 61 l 279 905 l 195 905 l 195 61 l 279 61 z "},"ℿ":{"ha":1143,"x_min":127,"x_max":1016,"o":"m 1016 -319 l 797 -319 l 797 905 l 347 905 l 347 -319 l 127 -319 l 127 972 l 1016 972 l 1016 -319 m 279 -258 l 279 905 l 195 905 l 195 -258 l 279 -258 m 948 -258 l 948 905 l 865 905 l 865 -258 l 948 -258 z "},"⅀":{"ha":892,"x_min":36,"x_max":861,"o":"m 861 -318 l 36 -318 l 36 -250 l 469 302 l 53 905 l 53 972 l 839 972 l 839 905 l 302 905 l 644 412 l 237 -106 l 861 -106 l 861 -318 m 793 -250 l 793 -174 l 180 -174 l 121 -250 l 793 -250 m 515 354 l 563 414 l 222 905 l 134 905 l 515 354 z "},"⅁":{"ha":953,"x_min":98,"x_max":889,"o":"m 98 905 q 424 989 245 989 q 613 954 528 989 q 760 854 699 918 q 855 699 821 789 q 889 498 889 608 q 851 290 889 385 q 745 127 812 195 q 585 21 677 59 q 385 -17 492 -17 q 239 -4 305 -17 q 118 35 173 8 l 118 161 q 397 85 237 85 q 548 116 479 85 q 666 199 616 146 q 742 327 715 253 q 770 490 770 401 q 744 656 770 583 q 672 781 719 730 q 559 859 625 831 q 410 886 492 886 q 212 840 296 886 l 212 568 l 425 568 l 425 465 l 98 465 l 98 905 z "},"⅂":{"ha":654,"x_min":22,"x_max":527,"o":"m 22 972 l 527 972 l 527 0 l 413 0 l 413 869 l 22 869 l 22 972 z "},"⅃":{"ha":654,"x_min":22,"x_max":527,"o":"m 22 103 l 413 103 l 413 972 l 527 972 l 527 0 l 22 0 l 22 103 z "},"⅄":{"ha":768,"x_min":9,"x_max":756,"o":"m 9 0 l 330 613 l 330 972 l 444 972 l 444 616 l 756 0 l 627 0 l 409 439 q 400 458 406 444 q 385 499 395 473 l 384 499 q 374 473 380 488 q 357 439 367 458 l 130 0 l 9 0 z "},"ⅅ":{"ha":974,"x_min":14,"x_max":923,"o":"m 220 972 l 547 972 q 700 950 630 972 q 819 884 769 928 q 896 777 868 841 q 923 629 923 713 q 880 369 923 486 q 759 171 837 253 q 572 44 681 89 q 331 0 463 0 l 14 0 l 220 972 m 347 68 q 475 82 417 68 q 581 123 532 97 l 736 854 q 645 893 695 882 q 541 905 594 905 l 425 905 l 247 68 l 347 68 m 357 905 l 274 905 l 96 68 l 179 68 l 357 905 m 842 626 q 829 726 842 683 q 793 800 816 768 l 661 178 q 743 272 708 219 q 799 384 777 326 q 832 505 821 443 q 842 626 842 567 z "},"ⅆ":{"ha":892,"x_min":56,"x_max":892,"o":"m 678 0 l 481 0 q 482 25 481 9 q 484 57 483 40 q 487 90 486 74 q 490 117 489 106 l 488 117 q 445 62 468 87 q 395 20 422 38 q 337 -7 368 3 q 271 -17 306 -17 q 181 2 221 -17 q 113 56 141 21 q 71 139 85 90 q 56 249 56 189 q 86 429 56 345 q 175 576 117 513 q 317 675 233 639 q 507 711 401 711 q 563 709 534 711 q 608 703 591 706 l 678 1028 l 892 1028 l 678 0 m 596 644 l 368 644 l 225 59 q 250 50 237 52 q 279 48 262 48 q 366 72 325 48 q 439 135 406 96 q 495 225 472 174 q 530 331 519 277 l 596 644 m 541 68 l 623 68 l 812 960 l 730 960 l 541 68 m 123 264 q 168 101 123 154 l 294 605 q 241 565 271 591 q 185 497 212 538 q 141 399 159 456 q 123 264 123 341 z "},"ⅇ":{"ha":815,"x_min":62,"x_max":740,"o":"m 496 711 q 604 694 558 711 q 681 645 650 676 q 725 571 711 614 q 740 478 740 528 q 730 386 740 435 l 715 318 l 288 318 l 238 79 q 301 56 267 63 q 373 49 335 49 q 506 67 440 49 q 631 117 571 85 l 614 40 q 495 -1 560 14 q 347 -17 429 -17 q 228 3 281 -17 q 138 60 175 23 q 82 149 102 97 q 62 266 62 201 q 78 390 62 332 q 122 498 94 449 q 190 588 151 548 q 278 655 230 627 q 381 697 326 682 q 496 711 437 711 m 524 386 l 577 640 l 357 640 l 303 386 l 524 386 m 132 271 q 144 187 132 225 q 179 121 155 149 l 280 593 q 222 536 249 570 q 175 461 195 503 q 144 371 155 419 q 132 271 132 323 m 662 386 q 672 431 669 408 q 676 481 676 454 q 667 547 676 515 q 636 603 658 579 l 591 386 l 662 386 z "},"ⅈ":{"ha":441,"x_min":12,"x_max":433,"o":"m 226 0 l 12 0 l 159 694 l 374 694 l 226 0 m 172 68 l 291 627 l 212 627 l 94 68 l 172 68 m 301 804 q 259 811 280 804 q 221 831 238 818 q 195 863 205 844 q 184 907 184 882 q 194 955 184 933 q 221 991 204 976 q 263 1014 239 1006 q 315 1022 287 1022 q 360 1015 339 1022 q 398 994 382 1007 q 424 961 414 980 q 433 918 433 941 q 422 868 433 889 q 392 832 410 846 q 349 811 373 818 q 301 804 326 804 m 310 961 q 289 958 299 961 q 270 948 278 955 q 257 932 262 942 q 252 909 252 922 q 267 877 252 890 q 307 865 281 865 q 350 879 335 865 q 366 917 366 893 q 349 949 366 938 q 310 961 333 961 z "},"ⅉ":{"ha":441,"x_min":-233,"x_max":434,"o":"m -217 -231 q -177 -244 -197 -239 q -134 -250 -157 -250 q -97 -244 -115 -250 q -64 -226 -79 -239 q -37 -191 -49 -213 q -18 -136 -25 -169 l 160 694 l 374 694 l 220 -27 q 202 -91 214 -57 q 172 -157 191 -124 q 128 -221 154 -191 q 66 -275 102 -252 q -16 -312 30 -298 q -121 -326 -62 -326 q -177 -322 -149 -326 q -233 -304 -204 -317 l -217 -231 m 34 -220 q 73 -188 55 -205 q 106 -146 91 -170 q 134 -91 121 -122 q 155 -18 146 -60 l 292 627 l 213 627 l 34 -220 m 302 804 q 260 811 281 804 q 222 831 239 818 q 195 863 205 844 q 185 907 185 882 q 195 955 185 933 q 222 991 205 976 q 263 1014 239 1006 q 316 1022 288 1022 q 361 1015 340 1022 q 399 994 382 1007 q 425 961 415 980 q 434 918 434 941 q 422 868 434 889 q 392 832 411 846 q 350 811 374 818 q 302 804 326 804 m 311 961 q 289 958 300 961 q 271 948 279 955 q 258 932 262 942 q 253 909 253 922 q 268 877 253 890 q 307 865 282 865 q 351 879 336 865 q 366 917 366 893 q 350 949 366 938 q 311 961 334 961 z "}}}
